0
SECTION
2
HEADER
9
$INSUNITS
70
4
0
ENDSEC
0
SECTION
2
TABLES
0
TABLE
2
LTYPE
0
LTYPE
72
65
70
0
2
CONTINUOUS
3
______
73
0
40
0
0
LTYPE
72
65
70
0
2
DASHED
3
_ _ _ 
73
2
40
7.5
49
5
49
-2.5
0
LTYPE
72
65
70
0
2
DOTTED
3
. . . 
73
2
40
1.5
49
0.5
49
-1
0
ENDTAB
0
TABLE
2
LAYER
0
ENDTAB
0
ENDSEC
0
SECTION
2
ENTITIES
0
LINE
8
0
6
CONTINUOUS
10
254.125
20
-99.275
11
84.475
21
-99.275
0
LINE
8
0
6
CONTINUOUS
10
82.475
20
-101.275
11
82.475
21
-216.7836195
0
LINE
8
0
6
CONTINUOUS
10
84.466362
20
-218.7836008
11
254.116362
21
-219.5163246
0
LINE
8
0
6
CONTINUOUS
10
256.125
20
-217.5163433
11
256.125
21
-101.275
0
ARC
8
0
6
CONTINUOUS
10
84.475
20
-101.275
40
2
50
90
51
180
0
ARC
8
0
6
CONTINUOUS
10
84.475
20
-216.7836195
40
2
50
180
51
269.7525388
0
ARC
8
0
6
CONTINUOUS
10
254.125
20
-217.5163433
40
2
50
269.7525388
51
0
0
ARC
8
0
6
CONTINUOUS
10
254.125
20
-101.275
40
2
50
0
51
90
0
ENDSEC
0
EOF