0
SECTION
2
HEADER
9
$INSUNITS
70
4
0
ENDSEC
0
SECTION
2
TABLES
0
TABLE
2
LTYPE
0
LTYPE
72
65
70
0
2
CONTINUOUS
3
______
73
0
40
0
0
LTYPE
72
65
70
0
2
DASHED
3
_ _ _ 
73
2
40
7.5
49
5
49
-2.5
0
LTYPE
72
65
70
0
2
DOTTED
3
. . . 
73
2
40
1.5
49
0.5
49
-1
0
ENDTAB
0
TABLE
2
LAYER
0
ENDTAB
0
ENDSEC
0
SECTION
2
ENTITIES
0
LINE
8
0
6
CONTINUOUS
10
90.75
20
-189.475
11
109.25
21
-189.475
0
LINE
8
0
6
CONTINUOUS
10
109.25
20
-189.475
11
109.25
21
-170.925
0
LINE
8
0
6
CONTINUOUS
10
109.25
20
-170.925
11
90.75
21
-170.925
0
LINE
8
0
6
CONTINUOUS
10
90.75
20
-170.925
11
90.75
21
-189.475
0
LINE
8
0
6
CONTINUOUS
10
90.75
20
-169.675
11
109.25
21
-169.675
0
LINE
8
0
6
CONTINUOUS
10
109.25
20
-169.675
11
109.25
21
-151.125
0
LINE
8
0
6
CONTINUOUS
10
109.25
20
-151.125
11
90.75
21
-151.125
0
LINE
8
0
6
CONTINUOUS
10
90.75
20
-151.125
11
90.75
21
-169.675
0
LINE
8
0
6
CONTINUOUS
10
90.75
20
-149.875
11
109.25
21
-149.875
0
LINE
8
0
6
CONTINUOUS
10
109.25
20
-149.875
11
109.25
21
-131.325
0
LINE
8
0
6
CONTINUOUS
10
109.25
20
-131.325
11
90.75
21
-131.325
0
LINE
8
0
6
CONTINUOUS
10
90.75
20
-131.325
11
90.75
21
-149.875
0
LINE
8
0
6
CONTINUOUS
10
90.75
20
-130.075
11
109.25
21
-130.075
0
LINE
8
0
6
CONTINUOUS
10
109.25
20
-130.075
11
109.25
21
-111.525
0
LINE
8
0
6
CONTINUOUS
10
109.25
20
-111.525
11
90.75
21
-111.525
0
LINE
8
0
6
CONTINUOUS
10
90.75
20
-111.525
11
90.75
21
-130.075
0
LINE
8
0
6
CONTINUOUS
10
91.55
20
-209.275
11
148.05
21
-209.275
0
LINE
8
0
6
CONTINUOUS
10
91.55
20
-190.725
11
148.05
21
-190.725
0
LINE
8
0
6
CONTINUOUS
10
110.55
20
-189.475
11
129.05
21
-189.475
0
LINE
8
0
6
CONTINUOUS
10
129.05
20
-189.475
11
129.05
21
-170.925
0
LINE
8
0
6
CONTINUOUS
10
129.05
20
-170.925
11
110.55
21
-170.925
0
LINE
8
0
6
CONTINUOUS
10
110.55
20
-170.925
11
110.55
21
-189.475
0
LINE
8
0
6
CONTINUOUS
10
110.55
20
-169.675
11
129.05
21
-169.675
0
LINE
8
0
6
CONTINUOUS
10
129.05
20
-169.675
11
129.05
21
-151.125
0
LINE
8
0
6
CONTINUOUS
10
129.05
20
-151.125
11
110.55
21
-151.125
0
LINE
8
0
6
CONTINUOUS
10
110.55
20
-151.125
11
110.55
21
-169.675
0
LINE
8
0
6
CONTINUOUS
10
110.55
20
-149.875
11
129.05
21
-149.875
0
LINE
8
0
6
CONTINUOUS
10
129.05
20
-149.875
11
129.05
21
-131.325
0
LINE
8
0
6
CONTINUOUS
10
129.05
20
-131.325
11
110.55
21
-131.325
0
LINE
8
0
6
CONTINUOUS
10
110.55
20
-131.325
11
110.55
21
-149.875
0
LINE
8
0
6
CONTINUOUS
10
110.55
20
-130.075
11
129.05
21
-130.075
0
LINE
8
0
6
CONTINUOUS
10
129.05
20
-130.075
11
129.05
21
-111.525
0
LINE
8
0
6
CONTINUOUS
10
129.05
20
-111.525
11
110.55
21
-111.525
0
LINE
8
0
6
CONTINUOUS
10
110.55
20
-111.525
11
110.55
21
-130.075
0
LINE
8
0
6
CONTINUOUS
10
130.35
20
-187.475
11
148.85
21
-187.475
0
LINE
8
0
6
CONTINUOUS
10
148.85
20
-187.475
11
148.85
21
-168.925
0
LINE
8
0
6
CONTINUOUS
10
148.85
20
-168.925
11
130.35
21
-168.925
0
LINE
8
0
6
CONTINUOUS
10
130.35
20
-168.925
11
130.35
21
-187.475
0
LINE
8
0
6
CONTINUOUS
10
130.35
20
-167.675
11
148.85
21
-167.675
0
LINE
8
0
6
CONTINUOUS
10
148.85
20
-167.675
11
148.85
21
-149.125
0
LINE
8
0
6
CONTINUOUS
10
148.85
20
-149.125
11
130.35
21
-149.125
0
LINE
8
0
6
CONTINUOUS
10
130.35
20
-149.125
11
130.35
21
-167.675
0
LINE
8
0
6
CONTINUOUS
10
130.35
20
-147.875
11
148.85
21
-147.875
0
LINE
8
0
6
CONTINUOUS
10
148.85
20
-147.875
11
148.85
21
-129.325
0
LINE
8
0
6
CONTINUOUS
10
148.85
20
-129.325
11
130.35
21
-129.325
0
LINE
8
0
6
CONTINUOUS
10
130.35
20
-129.325
11
130.35
21
-147.875
0
LINE
8
0
6
CONTINUOUS
10
130.35
20
-128.075
11
148.85
21
-128.075
0
LINE
8
0
6
CONTINUOUS
10
148.85
20
-128.075
11
148.85
21
-109.525
0
LINE
8
0
6
CONTINUOUS
10
148.85
20
-109.525
11
130.35
21
-109.525
0
LINE
8
0
6
CONTINUOUS
10
130.35
20
-109.525
11
130.35
21
-128.075
0
LINE
8
0
6
CONTINUOUS
10
150.15
20
-205.275
11
168.65
21
-205.275
0
LINE
8
0
6
CONTINUOUS
10
168.65
20
-205.275
11
168.65
21
-186.725
0
LINE
8
0
6
CONTINUOUS
10
168.65
20
-186.725
11
150.15
21
-186.725
0
LINE
8
0
6
CONTINUOUS
10
150.15
20
-186.725
11
150.15
21
-205.275
0
LINE
8
0
6
CONTINUOUS
10
150.15
20
-185.475
11
168.65
21
-185.475
0
LINE
8
0
6
CONTINUOUS
10
168.65
20
-185.475
11
168.65
21
-166.925
0
LINE
8
0
6
CONTINUOUS
10
168.65
20
-166.925
11
150.15
21
-166.925
0
LINE
8
0
6
CONTINUOUS
10
150.15
20
-166.925
11
150.15
21
-185.475
0
LINE
8
0
6
CONTINUOUS
10
150.15
20
-165.675
11
168.65
21
-165.675
0
LINE
8
0
6
CONTINUOUS
10
168.65
20
-165.675
11
168.65
21
-147.125
0
LINE
8
0
6
CONTINUOUS
10
168.65
20
-147.125
11
150.15
21
-147.125
0
LINE
8
0
6
CONTINUOUS
10
150.15
20
-147.125
11
150.15
21
-165.675
0
LINE
8
0
6
CONTINUOUS
10
150.15
20
-145.875
11
168.65
21
-145.875
0
LINE
8
0
6
CONTINUOUS
10
168.65
20
-145.875
11
168.65
21
-127.325
0
LINE
8
0
6
CONTINUOUS
10
168.65
20
-127.325
11
150.15
21
-127.325
0
LINE
8
0
6
CONTINUOUS
10
150.15
20
-127.325
11
150.15
21
-145.875
0
LINE
8
0
6
CONTINUOUS
10
150.15
20
-126.075
11
168.65
21
-126.075
0
LINE
8
0
6
CONTINUOUS
10
168.65
20
-126.075
11
168.65
21
-107.525
0
LINE
8
0
6
CONTINUOUS
10
168.65
20
-107.525
11
150.15
21
-107.525
0
LINE
8
0
6
CONTINUOUS
10
150.15
20
-107.525
11
150.15
21
-126.075
0
LINE
8
0
6
CONTINUOUS
10
169.95
20
-207.275
11
188.45
21
-207.275
0
LINE
8
0
6
CONTINUOUS
10
188.45
20
-207.275
11
188.45
21
-188.725
0
LINE
8
0
6
CONTINUOUS
10
188.45
20
-188.725
11
169.95
21
-188.725
0
LINE
8
0
6
CONTINUOUS
10
169.95
20
-188.725
11
169.95
21
-207.275
0
LINE
8
0
6
CONTINUOUS
10
169.95
20
-187.475
11
188.45
21
-187.475
0
LINE
8
0
6
CONTINUOUS
10
188.45
20
-187.475
11
188.45
21
-168.925
0
LINE
8
0
6
CONTINUOUS
10
188.45
20
-168.925
11
169.95
21
-168.925
0
LINE
8
0
6
CONTINUOUS
10
169.95
20
-168.925
11
169.95
21
-187.475
0
LINE
8
0
6
CONTINUOUS
10
169.95
20
-167.675
11
188.45
21
-167.675
0
LINE
8
0
6
CONTINUOUS
10
188.45
20
-167.675
11
188.45
21
-149.125
0
LINE
8
0
6
CONTINUOUS
10
188.45
20
-149.125
11
169.95
21
-149.125
0
LINE
8
0
6
CONTINUOUS
10
169.95
20
-149.125
11
169.95
21
-167.675
0
LINE
8
0
6
CONTINUOUS
10
169.95
20
-147.875
11
188.45
21
-147.875
0
LINE
8
0
6
CONTINUOUS
10
188.45
20
-147.875
11
188.45
21
-129.325
0
LINE
8
0
6
CONTINUOUS
10
188.45
20
-129.325
11
169.95
21
-129.325
0
LINE
8
0
6
CONTINUOUS
10
169.95
20
-129.325
11
169.95
21
-147.875
0
LINE
8
0
6
CONTINUOUS
10
169.95
20
-128.075
11
188.45
21
-128.075
0
LINE
8
0
6
CONTINUOUS
10
188.45
20
-128.075
11
188.45
21
-109.525
0
LINE
8
0
6
CONTINUOUS
10
188.45
20
-109.525
11
169.95
21
-109.525
0
LINE
8
0
6
CONTINUOUS
10
169.95
20
-109.525
11
169.95
21
-128.075
0
LINE
8
0
6
CONTINUOUS
10
189.75
20
-211.275
11
208.25
21
-211.275
0
LINE
8
0
6
CONTINUOUS
10
208.25
20
-211.275
11
208.25
21
-192.725
0
LINE
8
0
6
CONTINUOUS
10
208.25
20
-192.725
11
189.75
21
-192.725
0
LINE
8
0
6
CONTINUOUS
10
189.75
20
-192.725
11
189.75
21
-211.275
0
LINE
8
0
6
CONTINUOUS
10
189.75
20
-191.475
11
208.25
21
-191.475
0
LINE
8
0
6
CONTINUOUS
10
208.25
20
-191.475
11
208.25
21
-172.925
0
LINE
8
0
6
CONTINUOUS
10
208.25
20
-172.925
11
189.75
21
-172.925
0
LINE
8
0
6
CONTINUOUS
10
189.75
20
-172.925
11
189.75
21
-191.475
0
LINE
8
0
6
CONTINUOUS
10
189.75
20
-171.675
11
208.25
21
-171.675
0
LINE
8
0
6
CONTINUOUS
10
208.25
20
-171.675
11
208.25
21
-153.125
0
LINE
8
0
6
CONTINUOUS
10
208.25
20
-153.125
11
189.75
21
-153.125
0
LINE
8
0
6
CONTINUOUS
10
189.75
20
-153.125
11
189.75
21
-171.675
0
LINE
8
0
6
CONTINUOUS
10
189.75
20
-151.875
11
208.25
21
-151.875
0
LINE
8
0
6
CONTINUOUS
10
208.25
20
-151.875
11
208.25
21
-133.325
0
LINE
8
0
6
CONTINUOUS
10
208.25
20
-133.325
11
189.75
21
-133.325
0
LINE
8
0
6
CONTINUOUS
10
189.75
20
-133.325
11
189.75
21
-151.875
0
LINE
8
0
6
CONTINUOUS
10
189.75
20
-132.075
11
208.25
21
-132.075
0
LINE
8
0
6
CONTINUOUS
10
208.25
20
-132.075
11
208.25
21
-113.525
0
LINE
8
0
6
CONTINUOUS
10
208.25
20
-113.525
11
189.75
21
-113.525
0
LINE
8
0
6
CONTINUOUS
10
189.75
20
-113.525
11
189.75
21
-132.075
0
LINE
8
0
6
CONTINUOUS
10
209.55
20
-211.275
11
228.05
21
-211.275
0
LINE
8
0
6
CONTINUOUS
10
228.05
20
-211.275
11
228.05
21
-192.725
0
LINE
8
0
6
CONTINUOUS
10
228.05
20
-192.725
11
209.55
21
-192.725
0
LINE
8
0
6
CONTINUOUS
10
209.55
20
-192.725
11
209.55
21
-211.275
0
LINE
8
0
6
CONTINUOUS
10
209.55
20
-191.475
11
228.05
21
-191.475
0
LINE
8
0
6
CONTINUOUS
10
228.05
20
-191.475
11
228.05
21
-172.925
0
LINE
8
0
6
CONTINUOUS
10
228.05
20
-172.925
11
209.55
21
-172.925
0
LINE
8
0
6
CONTINUOUS
10
209.55
20
-172.925
11
209.55
21
-191.475
0
LINE
8
0
6
CONTINUOUS
10
209.55
20
-171.675
11
228.05
21
-171.675
0
LINE
8
0
6
CONTINUOUS
10
228.05
20
-171.675
11
228.05
21
-153.125
0
LINE
8
0
6
CONTINUOUS
10
228.05
20
-153.125
11
209.55
21
-153.125
0
LINE
8
0
6
CONTINUOUS
10
209.55
20
-153.125
11
209.55
21
-171.675
0
LINE
8
0
6
CONTINUOUS
10
209.55
20
-151.875
11
228.05
21
-151.875
0
LINE
8
0
6
CONTINUOUS
10
228.05
20
-151.875
11
228.05
21
-133.325
0
LINE
8
0
6
CONTINUOUS
10
228.05
20
-133.325
11
209.55
21
-133.325
0
LINE
8
0
6
CONTINUOUS
10
209.55
20
-133.325
11
209.55
21
-151.875
0
LINE
8
0
6
CONTINUOUS
10
229.35
20
-211.275
11
247.85
21
-211.275
0
LINE
8
0
6
CONTINUOUS
10
247.85
20
-211.275
11
247.85
21
-192.725
0
LINE
8
0
6
CONTINUOUS
10
247.85
20
-192.725
11
229.35
21
-192.725
0
LINE
8
0
6
CONTINUOUS
10
229.35
20
-192.725
11
229.35
21
-211.275
0
LINE
8
0
6
CONTINUOUS
10
229.35
20
-191.475
11
247.85
21
-191.475
0
LINE
8
0
6
CONTINUOUS
10
247.85
20
-191.475
11
247.85
21
-172.925
0
LINE
8
0
6
CONTINUOUS
10
247.85
20
-172.925
11
229.35
21
-172.925
0
LINE
8
0
6
CONTINUOUS
10
229.35
20
-172.925
11
229.35
21
-191.475
0
LINE
8
0
6
CONTINUOUS
10
229.35
20
-161.4
11
247.85
21
-161.4
0
LINE
8
0
6
CONTINUOUS
10
247.85
20
-161.4
11
247.85
21
-142.85
0
LINE
8
0
6
CONTINUOUS
10
247.85
20
-142.85
11
229.35
21
-142.85
0
LINE
8
0
6
CONTINUOUS
10
229.35
20
-142.85
11
229.35
21
-161.4
0
LINE
8
0
6
CONTINUOUS
10
210.325
20
-132.075
11
247.825
21
-132.075
0
LINE
8
0
6
CONTINUOUS
10
210.325
20
-113.525
11
247.825
21
-113.525
0
LINE
8
0
6
CONTINUOUS
10
247.825
20
-132.075
11
247.825
21
-113.525
0
LINE
8
0
6
CONTINUOUS
10
210.325
20
-113.525
11
210.325
21
-132.075
0
LINE
8
0
6
CONTINUOUS
10
148.05
20
-209.275
11
148.05
21
-190.725
0
LINE
8
0
6
CONTINUOUS
10
91.55
20
-190.725
11
91.55
21
-209.275
0
ENDSEC
0
EOF