0
SECTION
2
HEADER
9
$INSUNITS
70
4
0
ENDSEC
0
SECTION
2
TABLES
0
TABLE
2
LTYPE
0
LTYPE
72
65
70
0
2
CONTINUOUS
3
______
73
0
40
0
0
LTYPE
72
65
70
0
2
DASHED
3
_ _ _ 
73
2
40
7.5
49
5
49
-2.5
0
LTYPE
72
65
70
0
2
DOTTED
3
. . . 
73
2
40
1.5
49
0.5
49
-1
0
ENDTAB
0
TABLE
2
LAYER
0
ENDTAB
0
ENDSEC
0
SECTION
2
ENTITIES
0
LINE
8
0
6
CONTINUOUS
10
89.475
20
-190.725
11
99.275
21
-190.725
0
LINE
8
0
6
CONTINUOUS
10
89.475
20
-190.725
11
89.475
21
-110.275
0
LINE
8
0
6
CONTINUOUS
10
89.475
20
-110.275
11
129.075
21
-110.275
0
LINE
8
0
6
CONTINUOUS
10
109.275
20
-210.525
11
130.325
21
-210.525
0
LINE
8
0
6
CONTINUOUS
10
130.325
20
-210.525
11
130.325
21
-188.725
0
LINE
8
0
6
CONTINUOUS
10
109.275
20
-200.725
11
109.275
21
-210.525
0
LINE
8
0
6
CONTINUOUS
10
109.275
20
-200.725
11
99.275
21
-200.725
0
LINE
8
0
6
CONTINUOUS
10
99.275
20
-200.725
11
99.275
21
-190.725
0
LINE
8
0
6
CONTINUOUS
10
130.325
20
-188.725
11
138.875
21
-188.725
0
LINE
8
0
6
CONTINUOUS
10
129.075
20
-108.275
11
148.875
21
-108.275
0
LINE
8
0
6
CONTINUOUS
10
129.075
20
-108.275
11
129.075
21
-110.275
0
LINE
8
0
6
CONTINUOUS
10
148.875
20
-206.525
11
168.675
21
-206.525
0
LINE
8
0
6
CONTINUOUS
10
148.875
20
-196.725
11
148.875
21
-206.525
0
LINE
8
0
6
CONTINUOUS
10
148.875
20
-196.725
11
138.875
21
-196.725
0
LINE
8
0
6
CONTINUOUS
10
138.875
20
-196.725
11
138.875
21
-188.725
0
LINE
8
0
6
CONTINUOUS
10
169.925
20
-108.275
11
169.925
21
-106.275
0
LINE
8
0
6
CONTINUOUS
10
169.925
20
-106.275
11
148.875
21
-106.275
0
LINE
8
0
6
CONTINUOUS
10
148.875
20
-106.275
11
148.875
21
-108.275
0
LINE
8
0
6
CONTINUOUS
10
168.675
20
-208.525
11
188.475
21
-208.525
0
LINE
8
0
6
CONTINUOUS
10
168.675
20
-206.525
11
168.675
21
-208.525
0
LINE
8
0
6
CONTINUOUS
10
189.725
20
-112.275
11
189.725
21
-108.275
0
LINE
8
0
6
CONTINUOUS
10
169.925
20
-108.275
11
189.725
21
-108.275
0
LINE
8
0
6
CONTINUOUS
10
188.475
20
-212.525
11
249.125
21
-212.525
0
LINE
8
0
6
CONTINUOUS
10
188.475
20
-208.525
11
188.475
21
-212.525
0
LINE
8
0
6
CONTINUOUS
10
209.525
20
-122.075
11
218.55
21
-122.075
0
LINE
8
0
6
CONTINUOUS
10
209.525
20
-122.075
11
209.525
21
-112.275
0
LINE
8
0
6
CONTINUOUS
10
189.725
20
-112.275
11
209.525
21
-112.275
0
LINE
8
0
6
CONTINUOUS
10
249.125
20
-212.525
11
249.125
21
-131.6
0
LINE
8
0
6
CONTINUOUS
10
239.6
20
-131.6
11
249.125
21
-131.6
0
LINE
8
0
6
CONTINUOUS
10
239.6
20
-131.6
11
239.6
21
-112.275
0
LINE
8
0
6
CONTINUOUS
10
239.6
20
-112.275
11
218.55
21
-112.275
0
LINE
8
0
6
CONTINUOUS
10
218.55
20
-112.275
11
218.55
21
-122.075
0
ENDSEC
0
EOF