M48
; DRILL file KiCad 10.0.0 date 2026-03-28T23:53:14
; FORMAT={-:-/ absolute / metric / decimal}
; #@! TF.CreationDate,2026-03-28T23:53:14+01:00
; #@! TF.GenerationSoftware,Kicad,Pcbnew,10.0.0
; #@! TF.FileFunction,NonPlated,1,2,NPTH
FMAT,2
METRIC
; #@! TA.AperFunction,NonPlated,NPTH,ComponentDrill
T1C1.702
; #@! TA.AperFunction,NonPlated,NPTH,ComponentDrill
T2C3.000
; #@! TA.AperFunction,NonPlated,NPTH,ComponentDrill
T3C3.048
; #@! TA.AperFunction,NonPlated,NPTH,ComponentDrill
T4C3.988
; #@! TA.AperFunction,NonPlated,NPTH,ComponentDrill
T5C4.000
%
G90
G05
T1
X94.92Y-120.8
X94.92Y-180.2
X104.42Y-140.6
X104.42Y-160.4
X104.42Y-200.0
X105.08Y-120.8
X105.08Y-180.2
X114.58Y-140.6
X114.58Y-160.4
X114.58Y-200.0
X114.72Y-120.8
X114.72Y-180.2
X124.88Y-120.8
X124.88Y-180.2
X134.52Y-116.8
X134.52Y-136.6
X134.52Y-156.4
X134.52Y-176.2
X134.52Y-196.0
X144.68Y-116.8
X144.68Y-136.6
X144.68Y-156.4
X144.68Y-176.2
X144.68Y-196.0
X154.32Y-114.8
X154.32Y-134.6
X154.32Y-154.4
X154.32Y-174.2
X154.32Y-194.0
X164.48Y-114.8
X164.48Y-134.6
X164.48Y-154.4
X164.48Y-174.2
X164.48Y-194.0
X174.12Y-116.8
X174.12Y-136.6
X174.12Y-156.4
X174.12Y-176.2
X184.28Y-116.8
X184.28Y-136.6
X184.28Y-156.4
X184.28Y-176.2
X193.92Y-118.8
X193.92Y-138.6
X193.92Y-158.4
X193.92Y-178.2
X193.92Y-198.0
X193.92Y-217.8
X204.08Y-118.8
X204.08Y-138.6
X204.08Y-158.4
X204.08Y-178.2
X204.08Y-198.0
X204.08Y-217.8
X213.72Y-118.8
X213.72Y-138.6
X213.72Y-158.4
X213.72Y-178.2
X213.72Y-217.8
X223.88Y-118.8
X223.88Y-138.6
X223.88Y-158.4
X223.88Y-178.2
X223.88Y-217.8
T2
X96.19Y-118.26
X96.19Y-177.66
X102.54Y-115.72
X102.54Y-175.12
X105.69Y-138.06
X105.69Y-157.86
X105.69Y-197.46
X112.04Y-135.52
X112.04Y-155.32
X112.04Y-194.92
X115.99Y-118.26
X115.99Y-177.66
X122.34Y-115.72
X122.34Y-175.12
X135.79Y-114.26
X135.79Y-134.06
X135.79Y-153.86
X135.79Y-173.66
X135.79Y-193.46
X142.14Y-111.72
X142.14Y-131.52
X142.14Y-151.32
X142.14Y-171.12
X142.14Y-190.92
X155.59Y-112.26
X155.59Y-132.06
X155.59Y-151.86
X155.59Y-171.66
X155.59Y-191.46
X161.94Y-109.72
X161.94Y-129.52
X161.94Y-149.32
X161.94Y-169.12
X161.94Y-188.92
X175.39Y-114.26
X175.39Y-134.06
X175.39Y-153.86
X175.39Y-173.66
X181.74Y-111.72
X181.74Y-131.52
X181.74Y-151.32
X181.74Y-171.12
X195.19Y-116.26
X195.19Y-136.06
X195.19Y-155.86
X195.19Y-175.66
X195.19Y-195.46
X195.19Y-215.26
X201.54Y-113.72
X201.54Y-133.52
X201.54Y-153.32
X201.54Y-173.12
X201.54Y-192.92
X201.54Y-212.72
X214.99Y-116.26
X214.99Y-136.06
X214.99Y-155.86
X214.99Y-175.66
X214.99Y-215.26
X221.34Y-113.72
X221.34Y-133.52
X221.34Y-153.32
X221.34Y-173.12
X221.34Y-212.72
T3
X97.562Y-133.415
X97.562Y-153.415
X97.562Y-193.015
X121.438Y-133.415
X121.438Y-153.415
X121.438Y-193.015
X179.95Y-191.015
X218.05Y-191.015
T4
X97.562Y-148.625
X97.562Y-168.625
X97.562Y-208.225
X100.0Y-120.8
X100.0Y-180.2
X109.5Y-140.6
X109.5Y-160.4
X109.5Y-200.0
X119.8Y-120.8
X119.8Y-180.2
X121.438Y-148.625
X121.438Y-168.625
X121.438Y-208.225
X139.6Y-116.8
X139.6Y-136.6
X139.6Y-156.4
X139.6Y-176.2
X139.6Y-196.0
X159.4Y-114.8
X159.4Y-134.6
X159.4Y-154.4
X159.4Y-174.2
X159.4Y-194.0
X179.2Y-116.8
X179.2Y-136.6
X179.2Y-156.4
X179.2Y-176.2
X179.95Y-206.225
X199.0Y-118.8
X199.0Y-138.6
X199.0Y-158.4
X199.0Y-178.2
X199.0Y-198.0
X199.0Y-217.8
X218.05Y-206.225
X218.8Y-118.8
X218.8Y-138.6
X218.8Y-158.4
X218.8Y-178.2
X218.8Y-217.8
T5
X87.0Y-102.8
X87.0Y-212.0
X169.2Y-145.875
X182.45Y-212.0
X231.8Y-102.8
X232.05Y-212.0
M30
