%TF.GenerationSoftware,KiCad,Pcbnew,10.0.0*%
%TF.CreationDate,2026-03-28T23:53:15+01:00*%
%TF.ProjectId,Bifrost_left,42696672-6f73-4745-9f6c-6566742e6b69,v1.0.0*%
%TF.SameCoordinates,Original*%
%TF.FileFunction,Copper,L2,Bot*%
%TF.FilePolarity,Positive*%
%FSLAX46Y46*%
G04 Gerber Fmt 4.6, Leading zero omitted, Abs format (unit mm)*
G04 Created by KiCad (PCBNEW 10.0.0) date 2026-03-28 23:53:15*
%MOMM*%
%LPD*%
G01*
G04 APERTURE LIST*
%TA.AperFunction,SMDPad,CuDef*%
%ADD10R,2.550000X2.500000*%
%TD*%
%TA.AperFunction,ComponentPad*%
%ADD11C,1.752600*%
%TD*%
%TA.AperFunction,ComponentPad*%
%ADD12R,1.778000X1.778000*%
%TD*%
%TA.AperFunction,SMDPad,CuDef*%
%ADD13R,0.900000X1.200000*%
%TD*%
%TA.AperFunction,ComponentPad*%
%ADD14C,1.905000*%
%TD*%
%TA.AperFunction,ComponentPad*%
%ADD15R,1.700000X1.200000*%
%TD*%
%TA.AperFunction,ComponentPad*%
%ADD16O,1.700000X1.200000*%
%TD*%
%TA.AperFunction,Conductor*%
%ADD17C,0.250000*%
%TD*%
G04 APERTURE END LIST*
D10*
%TO.P,S3,2*%
%TO.N,c1_r3*%
X115342000Y-155320000D03*
%TO.P,S3,1*%
%TO.N,P024*%
X102415000Y-157860000D03*
%TD*%
D11*
%TO.P,SW1,1*%
%TO.N,pos*%
X182500000Y-103070000D03*
%TO.P,SW1,2*%
%TO.N,RAW*%
X182500000Y-100530000D03*
%TD*%
D10*
%TO.P,S25,1*%
%TO.N,P022*%
X191915000Y-136060000D03*
%TO.P,S25,2*%
%TO.N,c6_r2*%
X204842000Y-133520000D03*
%TD*%
%TO.P,S24,1*%
%TO.N,P022*%
X191915000Y-155860000D03*
%TO.P,S24,2*%
%TO.N,c6_r3*%
X204842000Y-153320000D03*
%TD*%
%TO.P,S15,1*%
%TO.N,P104*%
X152315000Y-151860000D03*
%TO.P,S15,2*%
%TO.N,c4_r3*%
X165242000Y-149320000D03*
%TD*%
%TO.P,S31,1*%
%TO.N,P022*%
X191915000Y-215260000D03*
%TO.P,S31,2*%
%TO.N,layer_cluster*%
X204842000Y-212720000D03*
%TD*%
D12*
%TO.P,D3,1*%
%TO.N,P111*%
X105690000Y-170400000D03*
D13*
X107850000Y-170400000D03*
%TO.P,D3,2*%
%TO.N,c1_r3*%
X111150000Y-170400000D03*
D14*
X113310000Y-170400000D03*
%TD*%
D12*
%TO.P,D23,1*%
%TO.N,P113*%
X195190000Y-188200000D03*
D13*
X197350000Y-188200000D03*
%TO.P,D23,2*%
%TO.N,c6_r4*%
X200650000Y-188200000D03*
D14*
X202810000Y-188200000D03*
%TD*%
D12*
%TO.P,D32,1*%
%TO.N,P002*%
X214990000Y-227800000D03*
D13*
X217150000Y-227800000D03*
%TO.P,D32,2*%
%TO.N,space_cluster*%
X220450000Y-227800000D03*
D14*
X222610000Y-227800000D03*
%TD*%
D10*
%TO.P,S8,1*%
%TO.N,P011*%
X132515000Y-193460000D03*
%TO.P,S8,2*%
%TO.N,c3_r5*%
X145442000Y-190920000D03*
%TD*%
D12*
%TO.P,D7,1*%
%TO.N,P009*%
X115990000Y-130800000D03*
D13*
X118150000Y-130800000D03*
%TO.P,D7,2*%
%TO.N,c2_r1*%
X121450000Y-130800000D03*
D14*
X123610000Y-130800000D03*
%TD*%
D10*
%TO.P,S11,1*%
%TO.N,P011*%
X132515000Y-134060000D03*
%TO.P,S11,2*%
%TO.N,c3_r2*%
X145442000Y-131520000D03*
%TD*%
D12*
%TO.P,D11,1*%
%TO.N,P010*%
X135790000Y-146600000D03*
D13*
X137950000Y-146600000D03*
%TO.P,D11,2*%
%TO.N,c3_r2*%
X141250000Y-146600000D03*
D14*
X143410000Y-146600000D03*
%TD*%
D12*
%TO.P,D29,1*%
%TO.N,P010*%
X214990000Y-148600000D03*
D13*
X217150000Y-148600000D03*
%TO.P,D29,2*%
%TO.N,c7_r2*%
X220450000Y-148600000D03*
D14*
X222610000Y-148600000D03*
%TD*%
D10*
%TO.P,S23,1*%
%TO.N,P022*%
X191915000Y-175660000D03*
%TO.P,S23,2*%
%TO.N,c6_r4*%
X204842000Y-173120000D03*
%TD*%
D12*
%TO.P,D26,1*%
%TO.N,P009*%
X195190000Y-128800000D03*
D13*
X197350000Y-128800000D03*
%TO.P,D26,2*%
%TO.N,c6_r1*%
X200650000Y-128800000D03*
D14*
X202810000Y-128800000D03*
%TD*%
D12*
%TO.P,D30,1*%
%TO.N,P009*%
X214990000Y-128800000D03*
D13*
X217150000Y-128800000D03*
%TO.P,D30,2*%
%TO.N,c7_r1*%
X220450000Y-128800000D03*
D14*
X222610000Y-128800000D03*
%TD*%
D10*
%TO.P,S13,1*%
%TO.N,P104*%
X152315000Y-191460000D03*
%TO.P,S13,2*%
%TO.N,c4_r5*%
X165242000Y-188920000D03*
%TD*%
D12*
%TO.P,D25,1*%
%TO.N,P010*%
X195190000Y-148600000D03*
D13*
X197350000Y-148600000D03*
%TO.P,D25,2*%
%TO.N,c6_r2*%
X200650000Y-148600000D03*
D14*
X202810000Y-148600000D03*
%TD*%
D10*
%TO.P,S19,1*%
%TO.N,P106*%
X172115000Y-153860000D03*
%TO.P,S19,2*%
%TO.N,c5_r3*%
X185042000Y-151320000D03*
%TD*%
D12*
%TO.P,D12,1*%
%TO.N,P009*%
X135790000Y-126800000D03*
D13*
X137950000Y-126800000D03*
%TO.P,D12,2*%
%TO.N,c3_r1*%
X141250000Y-126800000D03*
D14*
X143410000Y-126800000D03*
%TD*%
D12*
%TO.P,D31,1*%
%TO.N,P002*%
X195190000Y-227800000D03*
D13*
X197350000Y-227800000D03*
%TO.P,D31,2*%
%TO.N,layer_cluster*%
X200650000Y-227800000D03*
D14*
X202810000Y-227800000D03*
%TD*%
D10*
%TO.P,S21,1*%
%TO.N,P106*%
X172115000Y-114260000D03*
%TO.P,S21,2*%
%TO.N,c5_r1*%
X185042000Y-111720000D03*
%TD*%
%TO.P,S1,1*%
%TO.N,P024*%
X102415000Y-197460000D03*
%TO.P,S1,2*%
%TO.N,c1_r5*%
X115342000Y-194920000D03*
%TD*%
%TO.P,S5,1*%
%TO.N,P024*%
X92915000Y-118260000D03*
%TO.P,S5,2*%
%TO.N,c1_r1*%
X105842000Y-115720000D03*
%TD*%
%TO.P,S7,1*%
%TO.N,P100*%
X112715000Y-118260000D03*
%TO.P,S7,2*%
%TO.N,c2_r1*%
X125642000Y-115720000D03*
%TD*%
D12*
%TO.P,D5,1*%
%TO.N,P009*%
X96190000Y-130800000D03*
D13*
X98350000Y-130800000D03*
%TO.P,D5,2*%
%TO.N,c1_r1*%
X101650000Y-130800000D03*
D14*
X103810000Y-130800000D03*
%TD*%
D12*
%TO.P,D22,1*%
%TO.N,P115*%
X195190000Y-208000000D03*
D13*
X197350000Y-208000000D03*
%TO.P,D22,2*%
%TO.N,c6_r5*%
X200650000Y-208000000D03*
D14*
X202810000Y-208000000D03*
%TD*%
D12*
%TO.P,D14,1*%
%TO.N,P113*%
X155590000Y-184200000D03*
D13*
X157750000Y-184200000D03*
%TO.P,D14,2*%
%TO.N,c4_r4*%
X161050000Y-184200000D03*
D14*
X163210000Y-184200000D03*
%TD*%
D10*
%TO.P,S12,1*%
%TO.N,P011*%
X132515000Y-114260000D03*
%TO.P,S12,2*%
%TO.N,c3_r1*%
X145442000Y-111720000D03*
%TD*%
%TO.P,S22,1*%
%TO.N,P022*%
X191915000Y-195460000D03*
%TO.P,S22,2*%
%TO.N,c6_r5*%
X204842000Y-192920000D03*
%TD*%
D12*
%TO.P,D13,1*%
%TO.N,P115*%
X155590000Y-204000000D03*
D13*
X157750000Y-204000000D03*
%TO.P,D13,2*%
%TO.N,c4_r5*%
X161050000Y-204000000D03*
D14*
X163210000Y-204000000D03*
%TD*%
D12*
%TO.P,D19,1*%
%TO.N,P111*%
X175390000Y-166400000D03*
D13*
X177550000Y-166400000D03*
%TO.P,D19,2*%
%TO.N,c5_r3*%
X180850000Y-166400000D03*
D14*
X183010000Y-166400000D03*
%TD*%
D11*
%TO.P,SW2,1*%
%TO.N,GND*%
X189000000Y-105070000D03*
%TO.P,SW2,2*%
%TO.N,RST*%
X189000000Y-102530000D03*
%TD*%
D12*
%TO.P,D10,1*%
%TO.N,P111*%
X135790000Y-166400000D03*
D13*
X137950000Y-166400000D03*
%TO.P,D10,2*%
%TO.N,c3_r3*%
X141250000Y-166400000D03*
D14*
X143410000Y-166400000D03*
%TD*%
D10*
%TO.P,S2,1*%
%TO.N,P024*%
X92915000Y-177660000D03*
%TO.P,S2,2*%
%TO.N,c1_r4*%
X105842000Y-175120000D03*
%TD*%
%TO.P,S27,1*%
%TO.N,P020*%
X211715000Y-175660000D03*
%TO.P,S27,2*%
%TO.N,c7_r4*%
X224642000Y-173120000D03*
%TD*%
D12*
%TO.P,D8,1*%
%TO.N,P115*%
X135790000Y-206000000D03*
D13*
X137950000Y-206000000D03*
%TO.P,D8,2*%
%TO.N,c3_r5*%
X141250000Y-206000000D03*
D14*
X143410000Y-206000000D03*
%TD*%
D12*
%TO.P,D16,1*%
%TO.N,P010*%
X155590000Y-144600000D03*
D13*
X157750000Y-144600000D03*
%TO.P,D16,2*%
%TO.N,c4_r2*%
X161050000Y-144600000D03*
D14*
X163210000Y-144600000D03*
%TD*%
D10*
%TO.P,S32,1*%
%TO.N,P020*%
X211715000Y-215260000D03*
%TO.P,S32,2*%
%TO.N,space_cluster*%
X224642000Y-212720000D03*
%TD*%
%TO.P,S10,1*%
%TO.N,P011*%
X132515000Y-153860000D03*
%TO.P,S10,2*%
%TO.N,c3_r3*%
X145442000Y-151320000D03*
%TD*%
D12*
%TO.P,D24,1*%
%TO.N,P111*%
X195190000Y-168400000D03*
D13*
X197350000Y-168400000D03*
%TO.P,D24,2*%
%TO.N,c6_r3*%
X200650000Y-168400000D03*
D14*
X202810000Y-168400000D03*
%TD*%
D12*
%TO.P,D9,1*%
%TO.N,P113*%
X135790000Y-186200000D03*
D13*
X137950000Y-186200000D03*
%TO.P,D9,2*%
%TO.N,c3_r4*%
X141250000Y-186200000D03*
D14*
X143410000Y-186200000D03*
%TD*%
D10*
%TO.P,S14,1*%
%TO.N,P104*%
X152315000Y-171660000D03*
%TO.P,S14,2*%
%TO.N,c4_r4*%
X165242000Y-169120000D03*
%TD*%
%TO.P,S20,1*%
%TO.N,P106*%
X172115000Y-134060000D03*
%TO.P,S20,2*%
%TO.N,c5_r2*%
X185042000Y-131520000D03*
%TD*%
D12*
%TO.P,D20,1*%
%TO.N,P010*%
X175390000Y-146600000D03*
D13*
X177550000Y-146600000D03*
%TO.P,D20,2*%
%TO.N,c5_r2*%
X180850000Y-146600000D03*
D14*
X183010000Y-146600000D03*
%TD*%
D11*
%TO.P,MCU1,1*%
%TO.N,P006*%
X232500000Y-107680000D03*
%TO.P,MCU1,2*%
%TO.N,P008*%
X229960000Y-107680000D03*
%TO.P,MCU1,3*%
%TO.N,GND*%
X227420000Y-107680000D03*
%TO.P,MCU1,4*%
X224880000Y-107680000D03*
%TO.P,MCU1,5*%
%TO.N,P017*%
X222340000Y-107680000D03*
%TO.P,MCU1,6*%
%TO.N,P020*%
X219800000Y-107680000D03*
%TO.P,MCU1,7*%
%TO.N,P022*%
X217260000Y-107680000D03*
%TO.P,MCU1,8*%
%TO.N,P024*%
X214720000Y-107680000D03*
%TO.P,MCU1,9*%
%TO.N,P100*%
X212180000Y-107680000D03*
%TO.P,MCU1,10*%
%TO.N,P011*%
X209640000Y-107680000D03*
%TO.P,MCU1,11*%
%TO.N,P104*%
X207100000Y-107680000D03*
%TO.P,MCU1,12*%
%TO.N,P106*%
X204560000Y-107680000D03*
%TO.P,MCU1,13*%
%TO.N,P009*%
X204560000Y-122920000D03*
%TO.P,MCU1,14*%
%TO.N,P010*%
X207100000Y-122920000D03*
%TO.P,MCU1,15*%
%TO.N,P111*%
X209640000Y-122920000D03*
%TO.P,MCU1,16*%
%TO.N,P113*%
X212180000Y-122920000D03*
%TO.P,MCU1,17*%
%TO.N,P115*%
X214720000Y-122920000D03*
%TO.P,MCU1,18*%
%TO.N,P002*%
X217260000Y-122920000D03*
%TO.P,MCU1,19*%
%TO.N,P029*%
X219800000Y-122920000D03*
%TO.P,MCU1,20*%
%TO.N,P031*%
X222340000Y-122920000D03*
%TO.P,MCU1,21*%
%TO.N,VCC*%
X224880000Y-122920000D03*
%TO.P,MCU1,22*%
%TO.N,RST*%
X227420000Y-122920000D03*
%TO.P,MCU1,23*%
%TO.N,GND*%
X229960000Y-122920000D03*
%TO.P,MCU1,24*%
%TO.N,RAW*%
X232500000Y-122920000D03*
%TO.P,MCU1,31*%
%TO.N,P101*%
X209640000Y-110220000D03*
%TO.P,MCU1,32*%
%TO.N,P102*%
X209640000Y-112760000D03*
%TO.P,MCU1,33*%
%TO.N,N/C*%
X209640000Y-115300000D03*
%TD*%
D12*
%TO.P,D6,1*%
%TO.N,P113*%
X115990000Y-190200000D03*
D13*
X118150000Y-190200000D03*
%TO.P,D6,2*%
%TO.N,c2_r4*%
X121450000Y-190200000D03*
D14*
X123610000Y-190200000D03*
%TD*%
D10*
%TO.P,S29,1*%
%TO.N,P020*%
X211715000Y-136060000D03*
%TO.P,S29,2*%
%TO.N,c7_r2*%
X224642000Y-133520000D03*
%TD*%
%TO.P,S18,1*%
%TO.N,P106*%
X172115000Y-173660000D03*
%TO.P,S18,2*%
%TO.N,c5_r4*%
X185042000Y-171120000D03*
%TD*%
%TO.P,S6,1*%
%TO.N,P100*%
X112715000Y-177660000D03*
%TO.P,S6,2*%
%TO.N,c2_r4*%
X125642000Y-175120000D03*
%TD*%
D12*
%TO.P,D28,1*%
%TO.N,P111*%
X214990000Y-168400000D03*
D13*
X217150000Y-168400000D03*
%TO.P,D28,2*%
%TO.N,c7_r3*%
X220450000Y-168400000D03*
D14*
X222610000Y-168400000D03*
%TD*%
D12*
%TO.P,D27,1*%
%TO.N,P113*%
X214990000Y-188200000D03*
D13*
X217150000Y-188200000D03*
%TO.P,D27,2*%
%TO.N,c7_r4*%
X220450000Y-188200000D03*
D14*
X222610000Y-188200000D03*
%TD*%
D10*
%TO.P,S16,1*%
%TO.N,P104*%
X152315000Y-132060000D03*
%TO.P,S16,2*%
%TO.N,c4_r2*%
X165242000Y-129520000D03*
%TD*%
D12*
%TO.P,D4,1*%
%TO.N,P010*%
X105690000Y-150600000D03*
D13*
X107850000Y-150600000D03*
%TO.P,D4,2*%
%TO.N,c1_r2*%
X111150000Y-150600000D03*
D14*
X113310000Y-150600000D03*
%TD*%
D15*
%TO.P,JST1,1*%
%TO.N,pos*%
X176200000Y-102800000D03*
D16*
%TO.P,JST1,2*%
%TO.N,GND*%
X176200000Y-104800000D03*
%TD*%
D12*
%TO.P,D1,1*%
%TO.N,P115*%
X105690000Y-210000000D03*
D13*
X107850000Y-210000000D03*
%TO.P,D1,2*%
%TO.N,c1_r5*%
X111150000Y-210000000D03*
D14*
X113310000Y-210000000D03*
%TD*%
D12*
%TO.P,D15,1*%
%TO.N,P111*%
X155590000Y-164400000D03*
D13*
X157750000Y-164400000D03*
%TO.P,D15,2*%
%TO.N,c4_r3*%
X161050000Y-164400000D03*
D14*
X163210000Y-164400000D03*
%TD*%
D10*
%TO.P,S9,1*%
%TO.N,P011*%
X132515000Y-173660000D03*
%TO.P,S9,2*%
%TO.N,c3_r4*%
X145442000Y-171120000D03*
%TD*%
D12*
%TO.P,D18,1*%
%TO.N,P113*%
X175390000Y-186200000D03*
D13*
X177550000Y-186200000D03*
%TO.P,D18,2*%
%TO.N,c5_r4*%
X180850000Y-186200000D03*
D14*
X183010000Y-186200000D03*
%TD*%
D10*
%TO.P,S28,1*%
%TO.N,P020*%
X211715000Y-155860000D03*
%TO.P,S28,2*%
%TO.N,c7_r3*%
X224642000Y-153320000D03*
%TD*%
D12*
%TO.P,D21,1*%
%TO.N,P009*%
X175390000Y-126800000D03*
D13*
X177550000Y-126800000D03*
%TO.P,D21,2*%
%TO.N,c5_r1*%
X180850000Y-126800000D03*
D14*
X183010000Y-126800000D03*
%TD*%
D10*
%TO.P,S17,1*%
%TO.N,P104*%
X152315000Y-112260000D03*
%TO.P,S17,2*%
%TO.N,c4_r1*%
X165242000Y-109720000D03*
%TD*%
%TO.P,S4,1*%
%TO.N,P024*%
X102415000Y-138060000D03*
%TO.P,S4,2*%
%TO.N,c1_r2*%
X115342000Y-135520000D03*
%TD*%
D12*
%TO.P,D2,1*%
%TO.N,P113*%
X96190000Y-190200000D03*
D13*
X98350000Y-190200000D03*
%TO.P,D2,2*%
%TO.N,c1_r4*%
X101650000Y-190200000D03*
D14*
X103810000Y-190200000D03*
%TD*%
D10*
%TO.P,S30,1*%
%TO.N,P020*%
X211715000Y-116260000D03*
%TO.P,S30,2*%
%TO.N,c7_r1*%
X224642000Y-113720000D03*
%TD*%
D12*
%TO.P,D17,1*%
%TO.N,P009*%
X155590000Y-124800000D03*
D13*
X157750000Y-124800000D03*
%TO.P,D17,2*%
%TO.N,c4_r1*%
X161050000Y-124800000D03*
D14*
X163210000Y-124800000D03*
%TD*%
D10*
%TO.P,S26,1*%
%TO.N,P022*%
X191915000Y-116260000D03*
%TO.P,S26,2*%
%TO.N,c6_r1*%
X204842000Y-113720000D03*
%TD*%
%TO.N,c6_r1*%
D17*
X205761300Y-114639300D02*
X204842000Y-113720000D01*
X205761300Y-125848700D02*
X205761300Y-114639300D01*
X202810000Y-128800000D02*
X205761300Y-125848700D01*
%TO.N,P022*%
X191915000Y-116260000D02*
X196753700Y-111421300D01*
X196753700Y-111421300D02*
X213518700Y-111421300D01*
X213518700Y-111421300D02*
X217260000Y-107680000D01*
X191915000Y-215260000D02*
X191915000Y-116260000D01*
%TO.N,c6_r2*%
X205305900Y-146104100D02*
X202810000Y-148600000D01*
X200650000Y-148600000D02*
X202810000Y-148600000D01*
X205305900Y-133983900D02*
X205305900Y-146104100D01*
X204842000Y-133520000D02*
X205305900Y-133983900D01*
%TO.N,c6_r3*%
X205305900Y-165904100D02*
X202810000Y-168400000D01*
X205305900Y-153783900D02*
X205305900Y-165904100D01*
X204842000Y-153320000D02*
X205305900Y-153783900D01*
X200650000Y-168400000D02*
X202810000Y-168400000D01*
%TO.N,P104*%
X152315000Y-112260000D02*
X158096300Y-106478700D01*
X152315000Y-112260000D02*
X152315000Y-191460000D01*
X158096300Y-106478700D02*
X205898700Y-106478700D01*
X205898700Y-106478700D02*
X207100000Y-107680000D01*
%TO.N,c4_r3*%
X165705900Y-161904100D02*
X163210000Y-164400000D01*
X165242000Y-149320000D02*
X165705900Y-149783900D01*
X165705900Y-149783900D02*
X165705900Y-161904100D01*
X161050000Y-164400000D02*
X163210000Y-164400000D01*
%TO.N,layer_cluster*%
X205305900Y-213183900D02*
X205305900Y-225304100D01*
X200650000Y-227800000D02*
X202810000Y-227800000D01*
X205305900Y-225304100D02*
X202810000Y-227800000D01*
X204842000Y-212720000D02*
X205305900Y-213183900D01*
%TO.N,P111*%
X137950000Y-166400000D02*
X135790000Y-166400000D01*
X217150000Y-168400000D02*
X214990000Y-168400000D01*
X197350000Y-168400000D02*
X195190000Y-168400000D01*
X107850000Y-170400000D02*
X105690000Y-170400000D01*
X177550000Y-166400000D02*
X175390000Y-166400000D01*
X157750000Y-164400000D02*
X155590000Y-164400000D01*
%TO.N,c1_r3*%
X115805900Y-155783900D02*
X115805900Y-167904100D01*
X111150000Y-170400000D02*
X113310000Y-170400000D01*
X115805900Y-167904100D02*
X113310000Y-170400000D01*
X115342000Y-155320000D02*
X115805900Y-155783900D01*
%TO.N,P113*%
X98350000Y-190200000D02*
X96190000Y-190200000D01*
X177550000Y-186200000D02*
X175390000Y-186200000D01*
X118150000Y-190200000D02*
X115990000Y-190200000D01*
X157750000Y-184200000D02*
X155590000Y-184200000D01*
X197350000Y-188200000D02*
X195190000Y-188200000D01*
X137950000Y-186200000D02*
X135790000Y-186200000D01*
X217150000Y-188200000D02*
X214990000Y-188200000D01*
%TO.N,c6_r4*%
X200650000Y-188200000D02*
X202810000Y-188200000D01*
X205305900Y-185704100D02*
X202810000Y-188200000D01*
X204842000Y-173120000D02*
X205305900Y-173583900D01*
X205305900Y-173583900D02*
X205305900Y-185704100D01*
%TO.N,P002*%
X217150000Y-227800000D02*
X214990000Y-227800000D01*
X197350000Y-227800000D02*
X195190000Y-227800000D01*
%TO.N,space_cluster*%
X225105900Y-213183900D02*
X225105900Y-225304100D01*
X224642000Y-212720000D02*
X225105900Y-213183900D01*
X225105900Y-225304100D02*
X222610000Y-227800000D01*
X220450000Y-227800000D02*
X222610000Y-227800000D01*
%TO.N,P011*%
X188502405Y-103868700D02*
X205828700Y-103868700D01*
X140746300Y-106028700D02*
X186342405Y-106028700D01*
X186342405Y-106028700D02*
X188502405Y-103868700D01*
X132515000Y-114260000D02*
X132515000Y-193460000D01*
X205828700Y-103868700D02*
X209640000Y-107680000D01*
X132515000Y-114260000D02*
X140746300Y-106028700D01*
%TO.N,c3_r5*%
X145905900Y-203504100D02*
X143410000Y-206000000D01*
X141250000Y-206000000D02*
X143410000Y-206000000D01*
X145905900Y-191383900D02*
X145905900Y-203504100D01*
X145442000Y-190920000D02*
X145905900Y-191383900D01*
%TO.N,P009*%
X197350000Y-128800000D02*
X195190000Y-128800000D01*
X137950000Y-126800000D02*
X135790000Y-126800000D01*
X118150000Y-130800000D02*
X115990000Y-130800000D01*
X217150000Y-128800000D02*
X214990000Y-128800000D01*
X157750000Y-124800000D02*
X155590000Y-124800000D01*
X177550000Y-126800000D02*
X175390000Y-126800000D01*
X98350000Y-130800000D02*
X96190000Y-130800000D01*
%TO.N,c2_r1*%
X121450000Y-130800000D02*
X123610000Y-130800000D01*
X126105900Y-116183900D02*
X126105900Y-128304100D01*
X126105900Y-128304100D02*
X123610000Y-130800000D01*
X125642000Y-115720000D02*
X126105900Y-116183900D01*
%TO.N,c3_r2*%
X141250000Y-146600000D02*
X143410000Y-146600000D01*
X145442000Y-131520000D02*
X145905900Y-131983900D01*
X145905900Y-144104100D02*
X143410000Y-146600000D01*
X145905900Y-131983900D02*
X145905900Y-144104100D01*
%TO.N,P010*%
X157750000Y-144600000D02*
X155590000Y-144600000D01*
X107850000Y-150600000D02*
X105690000Y-150600000D01*
X177550000Y-146600000D02*
X175390000Y-146600000D01*
X137950000Y-146600000D02*
X135790000Y-146600000D01*
X197350000Y-148600000D02*
X195190000Y-148600000D01*
X217150000Y-148600000D02*
X214990000Y-148600000D01*
%TO.N,c7_r2*%
X224642000Y-133520000D02*
X225105900Y-133983900D01*
X225105900Y-133983900D02*
X225105900Y-146104100D01*
X225105900Y-146104100D02*
X222610000Y-148600000D01*
X220450000Y-148600000D02*
X222610000Y-148600000D01*
%TO.N,c6_r1*%
X200650000Y-128800000D02*
X202810000Y-128800000D01*
%TO.N,c7_r1*%
X226081300Y-125328700D02*
X222610000Y-128800000D01*
X224642000Y-113720000D02*
X226081300Y-115159300D01*
X226081300Y-115159300D02*
X226081300Y-125328700D01*
X220450000Y-128800000D02*
X222610000Y-128800000D01*
%TO.N,c4_r5*%
X165705900Y-201504100D02*
X163210000Y-204000000D01*
X161050000Y-204000000D02*
X163210000Y-204000000D01*
X165242000Y-188920000D02*
X165705900Y-189383900D01*
X165705900Y-189383900D02*
X165705900Y-201504100D01*
%TO.N,P106*%
X172115000Y-114260000D02*
X178695000Y-107680000D01*
X178695000Y-107680000D02*
X204560000Y-107680000D01*
X172115000Y-114260000D02*
X172115000Y-173660000D01*
%TO.N,c5_r3*%
X180850000Y-166400000D02*
X183010000Y-166400000D01*
X185505900Y-151783900D02*
X185505900Y-163904100D01*
X185042000Y-151320000D02*
X185505900Y-151783900D01*
X185505900Y-163904100D02*
X183010000Y-166400000D01*
%TO.N,c3_r1*%
X141250000Y-126800000D02*
X143410000Y-126800000D01*
X145905900Y-112183900D02*
X145905900Y-124304100D01*
X145905900Y-124304100D02*
X143410000Y-126800000D01*
X145442000Y-111720000D02*
X145905900Y-112183900D01*
%TO.N,c5_r1*%
X185505900Y-112183900D02*
X185505900Y-124304100D01*
X180850000Y-126800000D02*
X183010000Y-126800000D01*
X185505900Y-124304100D02*
X183010000Y-126800000D01*
X185042000Y-111720000D02*
X185505900Y-112183900D01*
%TO.N,P024*%
X92915000Y-123765000D02*
X102415000Y-133265000D01*
X92915000Y-118260000D02*
X92915000Y-123765000D01*
X206368700Y-99328700D02*
X214720000Y-107680000D01*
X102415000Y-138060000D02*
X102415000Y-157860000D01*
X92915000Y-118260000D02*
X111846300Y-99328700D01*
X102415000Y-192565000D02*
X102415000Y-197460000D01*
X111846300Y-99328700D02*
X206368700Y-99328700D01*
X92915000Y-183065000D02*
X102415000Y-192565000D01*
X92915000Y-177660000D02*
X92915000Y-183065000D01*
X102415000Y-133265000D02*
X102415000Y-138060000D01*
X102415000Y-138060000D02*
X92915000Y-147560000D01*
X92915000Y-147560000D02*
X92915000Y-177660000D01*
%TO.N,c1_r5*%
X115805900Y-195383900D02*
X115805900Y-207504100D01*
X111150000Y-210000000D02*
X113310000Y-210000000D01*
X115805900Y-207504100D02*
X113310000Y-210000000D01*
X115342000Y-194920000D02*
X115805900Y-195383900D01*
%TO.N,c1_r1*%
X106305900Y-128304100D02*
X103810000Y-130800000D01*
X106305900Y-116183900D02*
X106305900Y-128304100D01*
X105842000Y-115720000D02*
X106305900Y-116183900D01*
X101650000Y-130800000D02*
X103810000Y-130800000D01*
%TO.N,P100*%
X111868900Y-161381231D02*
X110000000Y-163250131D01*
X129106300Y-101868700D02*
X187962405Y-101868700D01*
X111868900Y-141581231D02*
X110000000Y-143450131D01*
X111868900Y-159418769D02*
X111868900Y-161381231D01*
X110165000Y-137165000D02*
X111868900Y-138868900D01*
X110000000Y-174945000D02*
X112715000Y-177660000D01*
X187962405Y-101868700D02*
X188502405Y-101328700D01*
X110000000Y-157549869D02*
X111868900Y-159418769D01*
X111868900Y-138868900D02*
X111868900Y-141581231D01*
X112715000Y-118260000D02*
X129106300Y-101868700D01*
X110000000Y-163250131D02*
X110000000Y-174945000D01*
X188502405Y-101328700D02*
X205828700Y-101328700D01*
X205828700Y-101328700D02*
X212180000Y-107680000D01*
X110165000Y-120810000D02*
X110165000Y-137165000D01*
X110000000Y-143450131D02*
X110000000Y-157549869D01*
X112715000Y-118260000D02*
X110165000Y-120810000D01*
%TO.N,P115*%
X137950000Y-206000000D02*
X135790000Y-206000000D01*
X157750000Y-204000000D02*
X155590000Y-204000000D01*
X107850000Y-210000000D02*
X105690000Y-210000000D01*
X197350000Y-208000000D02*
X195190000Y-208000000D01*
%TO.N,c6_r5*%
X205305900Y-205504100D02*
X202810000Y-208000000D01*
X200650000Y-208000000D02*
X202810000Y-208000000D01*
X205305900Y-193383900D02*
X205305900Y-205504100D01*
X204842000Y-192920000D02*
X205305900Y-193383900D01*
%TO.N,c4_r4*%
X165705900Y-181704100D02*
X163210000Y-184200000D01*
X165242000Y-169120000D02*
X165705900Y-169583900D01*
X165705900Y-169583900D02*
X165705900Y-181704100D01*
X161050000Y-184200000D02*
X163210000Y-184200000D01*
%TO.N,c3_r3*%
X145442000Y-151320000D02*
X145905900Y-151783900D01*
X145905900Y-151783900D02*
X145905900Y-163904100D01*
X141250000Y-166400000D02*
X143410000Y-166400000D01*
X145905900Y-163904100D02*
X143410000Y-166400000D01*
%TO.N,c1_r4*%
X106305900Y-187704100D02*
X103810000Y-190200000D01*
X106305900Y-175583900D02*
X106305900Y-187704100D01*
X101650000Y-190200000D02*
X103810000Y-190200000D01*
X105842000Y-175120000D02*
X106305900Y-175583900D01*
%TO.N,P020*%
X211715000Y-118528684D02*
X211715000Y-116260000D01*
X211715000Y-136060000D02*
X211715000Y-215260000D01*
X210978700Y-135323700D02*
X211715000Y-136060000D01*
X211715000Y-115765000D02*
X219800000Y-107680000D01*
X211715000Y-118528684D02*
X210978700Y-119264984D01*
X211715000Y-116260000D02*
X211715000Y-115765000D01*
X210978700Y-119264984D02*
X210978700Y-135323700D01*
%TO.N,c7_r4*%
X220450000Y-188200000D02*
X222610000Y-188200000D01*
X224642000Y-173120000D02*
X225105900Y-173583900D01*
X225105900Y-173583900D02*
X225105900Y-185704100D01*
X225105900Y-185704100D02*
X222610000Y-188200000D01*
%TO.N,c4_r2*%
X165705900Y-142104100D02*
X163210000Y-144600000D01*
X165705900Y-129983900D02*
X165705900Y-142104100D01*
X161050000Y-144600000D02*
X163210000Y-144600000D01*
X165242000Y-129520000D02*
X165705900Y-129983900D01*
%TO.N,c3_r4*%
X145905900Y-171583900D02*
X145905900Y-183704100D01*
X141250000Y-186200000D02*
X143410000Y-186200000D01*
X145905900Y-183704100D02*
X143410000Y-186200000D01*
X145442000Y-171120000D02*
X145905900Y-171583900D01*
%TO.N,c5_r2*%
X185505900Y-144104100D02*
X183010000Y-146600000D01*
X185042000Y-131520000D02*
X185505900Y-131983900D01*
X185505900Y-131983900D02*
X185505900Y-144104100D01*
X180850000Y-146600000D02*
X183010000Y-146600000D01*
%TO.N,c2_r4*%
X126105900Y-187704100D02*
X123610000Y-190200000D01*
X126105900Y-175583900D02*
X126105900Y-187704100D01*
X125642000Y-175120000D02*
X126105900Y-175583900D01*
X121450000Y-190200000D02*
X123610000Y-190200000D01*
%TO.N,c5_r4*%
X180850000Y-186200000D02*
X183010000Y-186200000D01*
X185505900Y-183704100D02*
X183010000Y-186200000D01*
X185042000Y-171120000D02*
X185505900Y-171583900D01*
X185505900Y-171583900D02*
X185505900Y-183704100D01*
%TO.N,c7_r3*%
X220450000Y-168400000D02*
X222610000Y-168400000D01*
X225105900Y-153783900D02*
X225105900Y-165904100D01*
X225105900Y-165904100D02*
X222610000Y-168400000D01*
X224642000Y-153320000D02*
X225105900Y-153783900D01*
%TO.N,c1_r2*%
X111150000Y-150600000D02*
X113310000Y-150600000D01*
X115342000Y-135520000D02*
X115805900Y-135983900D01*
X115805900Y-135983900D02*
X115805900Y-148104100D01*
X115805900Y-148104100D02*
X113310000Y-150600000D01*
%TO.N,c4_r1*%
X165705900Y-122304100D02*
X163210000Y-124800000D01*
X165705900Y-110183900D02*
X165705900Y-122304100D01*
X165242000Y-109720000D02*
X165705900Y-110183900D01*
X161050000Y-124800000D02*
X163210000Y-124800000D01*
%TD*%
M02*
