%TF.GenerationSoftware,KiCad,Pcbnew,10.0.0*%
%TF.CreationDate,2026-03-28T23:53:15+01:00*%
%TF.ProjectId,Bifrost_left,42696672-6f73-4745-9f6c-6566742e6b69,v1.0.0*%
%TF.SameCoordinates,Original*%
%TF.FileFunction,Paste,Bot*%
%TF.FilePolarity,Positive*%
%FSLAX46Y46*%
G04 Gerber Fmt 4.6, Leading zero omitted, Abs format (unit mm)*
G04 Created by KiCad (PCBNEW 10.0.0) date 2026-03-28 23:53:15*
%MOMM*%
%LPD*%
G01*
G04 APERTURE LIST*
%ADD10R,2.550000X2.500000*%
%ADD11R,0.900000X1.200000*%
G04 APERTURE END LIST*
D10*
%TO.C,S3*%
X115342000Y-155320000D03*
X102415000Y-157860000D03*
%TD*%
%TO.C,S25*%
X191915000Y-136060000D03*
X204842000Y-133520000D03*
%TD*%
%TO.C,S24*%
X191915000Y-155860000D03*
X204842000Y-153320000D03*
%TD*%
%TO.C,S15*%
X152315000Y-151860000D03*
X165242000Y-149320000D03*
%TD*%
%TO.C,S31*%
X191915000Y-215260000D03*
X204842000Y-212720000D03*
%TD*%
D11*
%TO.C,D3*%
X107850000Y-170400000D03*
X111150000Y-170400000D03*
%TD*%
%TO.C,D23*%
X197350000Y-188200000D03*
X200650000Y-188200000D03*
%TD*%
%TO.C,D32*%
X217150000Y-227800000D03*
X220450000Y-227800000D03*
%TD*%
D10*
%TO.C,S8*%
X132515000Y-193460000D03*
X145442000Y-190920000D03*
%TD*%
D11*
%TO.C,D7*%
X118150000Y-130800000D03*
X121450000Y-130800000D03*
%TD*%
D10*
%TO.C,S11*%
X132515000Y-134060000D03*
X145442000Y-131520000D03*
%TD*%
D11*
%TO.C,D11*%
X137950000Y-146600000D03*
X141250000Y-146600000D03*
%TD*%
%TO.C,D29*%
X217150000Y-148600000D03*
X220450000Y-148600000D03*
%TD*%
D10*
%TO.C,S23*%
X191915000Y-175660000D03*
X204842000Y-173120000D03*
%TD*%
D11*
%TO.C,D26*%
X197350000Y-128800000D03*
X200650000Y-128800000D03*
%TD*%
%TO.C,D30*%
X217150000Y-128800000D03*
X220450000Y-128800000D03*
%TD*%
D10*
%TO.C,S13*%
X152315000Y-191460000D03*
X165242000Y-188920000D03*
%TD*%
D11*
%TO.C,D25*%
X197350000Y-148600000D03*
X200650000Y-148600000D03*
%TD*%
D10*
%TO.C,S19*%
X172115000Y-153860000D03*
X185042000Y-151320000D03*
%TD*%
D11*
%TO.C,D12*%
X137950000Y-126800000D03*
X141250000Y-126800000D03*
%TD*%
%TO.C,D31*%
X197350000Y-227800000D03*
X200650000Y-227800000D03*
%TD*%
D10*
%TO.C,S21*%
X172115000Y-114260000D03*
X185042000Y-111720000D03*
%TD*%
%TO.C,S1*%
X102415000Y-197460000D03*
X115342000Y-194920000D03*
%TD*%
%TO.C,S5*%
X92915000Y-118260000D03*
X105842000Y-115720000D03*
%TD*%
%TO.C,S7*%
X112715000Y-118260000D03*
X125642000Y-115720000D03*
%TD*%
D11*
%TO.C,D5*%
X98350000Y-130800000D03*
X101650000Y-130800000D03*
%TD*%
%TO.C,D22*%
X197350000Y-208000000D03*
X200650000Y-208000000D03*
%TD*%
%TO.C,D14*%
X157750000Y-184200000D03*
X161050000Y-184200000D03*
%TD*%
D10*
%TO.C,S12*%
X132515000Y-114260000D03*
X145442000Y-111720000D03*
%TD*%
%TO.C,S22*%
X191915000Y-195460000D03*
X204842000Y-192920000D03*
%TD*%
D11*
%TO.C,D13*%
X157750000Y-204000000D03*
X161050000Y-204000000D03*
%TD*%
%TO.C,D19*%
X177550000Y-166400000D03*
X180850000Y-166400000D03*
%TD*%
%TO.C,D10*%
X137950000Y-166400000D03*
X141250000Y-166400000D03*
%TD*%
D10*
%TO.C,S2*%
X92915000Y-177660000D03*
X105842000Y-175120000D03*
%TD*%
%TO.C,S27*%
X211715000Y-175660000D03*
X224642000Y-173120000D03*
%TD*%
D11*
%TO.C,D8*%
X137950000Y-206000000D03*
X141250000Y-206000000D03*
%TD*%
%TO.C,D16*%
X157750000Y-144600000D03*
X161050000Y-144600000D03*
%TD*%
D10*
%TO.C,S32*%
X211715000Y-215260000D03*
X224642000Y-212720000D03*
%TD*%
%TO.C,S10*%
X132515000Y-153860000D03*
X145442000Y-151320000D03*
%TD*%
D11*
%TO.C,D24*%
X197350000Y-168400000D03*
X200650000Y-168400000D03*
%TD*%
%TO.C,D9*%
X137950000Y-186200000D03*
X141250000Y-186200000D03*
%TD*%
D10*
%TO.C,S14*%
X152315000Y-171660000D03*
X165242000Y-169120000D03*
%TD*%
%TO.C,S20*%
X172115000Y-134060000D03*
X185042000Y-131520000D03*
%TD*%
D11*
%TO.C,D20*%
X177550000Y-146600000D03*
X180850000Y-146600000D03*
%TD*%
%TO.C,D6*%
X118150000Y-190200000D03*
X121450000Y-190200000D03*
%TD*%
D10*
%TO.C,S29*%
X211715000Y-136060000D03*
X224642000Y-133520000D03*
%TD*%
%TO.C,S18*%
X172115000Y-173660000D03*
X185042000Y-171120000D03*
%TD*%
%TO.C,S6*%
X112715000Y-177660000D03*
X125642000Y-175120000D03*
%TD*%
D11*
%TO.C,D28*%
X217150000Y-168400000D03*
X220450000Y-168400000D03*
%TD*%
%TO.C,D27*%
X217150000Y-188200000D03*
X220450000Y-188200000D03*
%TD*%
D10*
%TO.C,S16*%
X152315000Y-132060000D03*
X165242000Y-129520000D03*
%TD*%
D11*
%TO.C,D4*%
X107850000Y-150600000D03*
X111150000Y-150600000D03*
%TD*%
%TO.C,D1*%
X107850000Y-210000000D03*
X111150000Y-210000000D03*
%TD*%
%TO.C,D15*%
X157750000Y-164400000D03*
X161050000Y-164400000D03*
%TD*%
D10*
%TO.C,S9*%
X132515000Y-173660000D03*
X145442000Y-171120000D03*
%TD*%
D11*
%TO.C,D18*%
X177550000Y-186200000D03*
X180850000Y-186200000D03*
%TD*%
D10*
%TO.C,S28*%
X211715000Y-155860000D03*
X224642000Y-153320000D03*
%TD*%
D11*
%TO.C,D21*%
X177550000Y-126800000D03*
X180850000Y-126800000D03*
%TD*%
D10*
%TO.C,S17*%
X152315000Y-112260000D03*
X165242000Y-109720000D03*
%TD*%
%TO.C,S4*%
X102415000Y-138060000D03*
X115342000Y-135520000D03*
%TD*%
D11*
%TO.C,D2*%
X98350000Y-190200000D03*
X101650000Y-190200000D03*
%TD*%
D10*
%TO.C,S30*%
X211715000Y-116260000D03*
X224642000Y-113720000D03*
%TD*%
D11*
%TO.C,D17*%
X157750000Y-124800000D03*
X161050000Y-124800000D03*
%TD*%
D10*
%TO.C,S26*%
X191915000Y-116260000D03*
X204842000Y-113720000D03*
%TD*%
M02*
