%TF.GenerationSoftware,KiCad,Pcbnew,10.0.0*%
%TF.CreationDate,2026-03-28T23:53:15+01:00*%
%TF.ProjectId,Bifrost_left,42696672-6f73-4745-9f6c-6566742e6b69,v1.0.0*%
%TF.SameCoordinates,Original*%
%TF.FileFunction,Legend,Top*%
%TF.FilePolarity,Positive*%
%FSLAX46Y46*%
G04 Gerber Fmt 4.6, Leading zero omitted, Abs format (unit mm)*
G04 Created by KiCad (PCBNEW 10.0.0) date 2026-03-28 23:53:15*
%MOMM*%
%LPD*%
G01*
G04 APERTURE LIST*
%ADD10C,0.150000*%
%ADD11C,0.300000*%
%ADD12C,0.100000*%
%ADD13C,0.381000*%
%ADD14C,1.752600*%
%ADD15C,4.000000*%
G04 APERTURE END LIST*
D10*
X108166666Y-158854819D02*
X107833333Y-158378628D01*
X107595238Y-158854819D02*
X107595238Y-157854819D01*
X107595238Y-157854819D02*
X107976190Y-157854819D01*
X107976190Y-157854819D02*
X108071428Y-157902438D01*
X108071428Y-157902438D02*
X108119047Y-157950057D01*
X108119047Y-157950057D02*
X108166666Y-158045295D01*
X108166666Y-158045295D02*
X108166666Y-158188152D01*
X108166666Y-158188152D02*
X108119047Y-158283390D01*
X108119047Y-158283390D02*
X108071428Y-158331009D01*
X108071428Y-158331009D02*
X107976190Y-158378628D01*
X107976190Y-158378628D02*
X107595238Y-158378628D01*
X108595238Y-158331009D02*
X108928571Y-158331009D01*
X109071428Y-158854819D02*
X108595238Y-158854819D01*
X108595238Y-158854819D02*
X108595238Y-157854819D01*
X108595238Y-157854819D02*
X109071428Y-157854819D01*
X109833333Y-158331009D02*
X109500000Y-158331009D01*
X109500000Y-158854819D02*
X109500000Y-157854819D01*
X109500000Y-157854819D02*
X109976190Y-157854819D01*
X110500000Y-157854819D02*
X110500000Y-158092914D01*
X110261905Y-157997676D02*
X110500000Y-158092914D01*
X110500000Y-158092914D02*
X110738095Y-157997676D01*
X110357143Y-158283390D02*
X110500000Y-158092914D01*
X110500000Y-158092914D02*
X110642857Y-158283390D01*
X111261905Y-157854819D02*
X111261905Y-158092914D01*
X111023810Y-157997676D02*
X111261905Y-158092914D01*
X111261905Y-158092914D02*
X111500000Y-157997676D01*
X111119048Y-158283390D02*
X111261905Y-158092914D01*
X111261905Y-158092914D02*
X111404762Y-158283390D01*
X108166666Y-198454819D02*
X107833333Y-197978628D01*
X107595238Y-198454819D02*
X107595238Y-197454819D01*
X107595238Y-197454819D02*
X107976190Y-197454819D01*
X107976190Y-197454819D02*
X108071428Y-197502438D01*
X108071428Y-197502438D02*
X108119047Y-197550057D01*
X108119047Y-197550057D02*
X108166666Y-197645295D01*
X108166666Y-197645295D02*
X108166666Y-197788152D01*
X108166666Y-197788152D02*
X108119047Y-197883390D01*
X108119047Y-197883390D02*
X108071428Y-197931009D01*
X108071428Y-197931009D02*
X107976190Y-197978628D01*
X107976190Y-197978628D02*
X107595238Y-197978628D01*
X108595238Y-197931009D02*
X108928571Y-197931009D01*
X109071428Y-198454819D02*
X108595238Y-198454819D01*
X108595238Y-198454819D02*
X108595238Y-197454819D01*
X108595238Y-197454819D02*
X109071428Y-197454819D01*
X109833333Y-197931009D02*
X109500000Y-197931009D01*
X109500000Y-198454819D02*
X109500000Y-197454819D01*
X109500000Y-197454819D02*
X109976190Y-197454819D01*
X110500000Y-197454819D02*
X110500000Y-197692914D01*
X110261905Y-197597676D02*
X110500000Y-197692914D01*
X110500000Y-197692914D02*
X110738095Y-197597676D01*
X110357143Y-197883390D02*
X110500000Y-197692914D01*
X110500000Y-197692914D02*
X110642857Y-197883390D01*
X111261905Y-197454819D02*
X111261905Y-197692914D01*
X111023810Y-197597676D02*
X111261905Y-197692914D01*
X111261905Y-197692914D02*
X111500000Y-197597676D01*
X111119048Y-197883390D02*
X111261905Y-197692914D01*
X111261905Y-197692914D02*
X111404762Y-197883390D01*
X197666666Y-196454819D02*
X197333333Y-195978628D01*
X197095238Y-196454819D02*
X197095238Y-195454819D01*
X197095238Y-195454819D02*
X197476190Y-195454819D01*
X197476190Y-195454819D02*
X197571428Y-195502438D01*
X197571428Y-195502438D02*
X197619047Y-195550057D01*
X197619047Y-195550057D02*
X197666666Y-195645295D01*
X197666666Y-195645295D02*
X197666666Y-195788152D01*
X197666666Y-195788152D02*
X197619047Y-195883390D01*
X197619047Y-195883390D02*
X197571428Y-195931009D01*
X197571428Y-195931009D02*
X197476190Y-195978628D01*
X197476190Y-195978628D02*
X197095238Y-195978628D01*
X198095238Y-195931009D02*
X198428571Y-195931009D01*
X198571428Y-196454819D02*
X198095238Y-196454819D01*
X198095238Y-196454819D02*
X198095238Y-195454819D01*
X198095238Y-195454819D02*
X198571428Y-195454819D01*
X199333333Y-195931009D02*
X199000000Y-195931009D01*
X199000000Y-196454819D02*
X199000000Y-195454819D01*
X199000000Y-195454819D02*
X199476190Y-195454819D01*
X200000000Y-195454819D02*
X200000000Y-195692914D01*
X199761905Y-195597676D02*
X200000000Y-195692914D01*
X200000000Y-195692914D02*
X200238095Y-195597676D01*
X199857143Y-195883390D02*
X200000000Y-195692914D01*
X200000000Y-195692914D02*
X200142857Y-195883390D01*
X200761905Y-195454819D02*
X200761905Y-195692914D01*
X200523810Y-195597676D02*
X200761905Y-195692914D01*
X200761905Y-195692914D02*
X201000000Y-195597676D01*
X200619048Y-195883390D02*
X200761905Y-195692914D01*
X200761905Y-195692914D02*
X200904762Y-195883390D01*
D11*
X204746328Y-120589714D02*
X205746328Y-120589714D01*
X204889185Y-120589714D02*
X204817757Y-120518285D01*
X204817757Y-120518285D02*
X204746328Y-120375428D01*
X204746328Y-120375428D02*
X204746328Y-120161142D01*
X204746328Y-120161142D02*
X204817757Y-120018285D01*
X204817757Y-120018285D02*
X204960614Y-119946857D01*
X204960614Y-119946857D02*
X205746328Y-119946857D01*
X205746328Y-119232571D02*
X204746328Y-119232571D01*
X204246328Y-119232571D02*
X204317757Y-119303999D01*
X204317757Y-119303999D02*
X204389185Y-119232571D01*
X204389185Y-119232571D02*
X204317757Y-119161142D01*
X204317757Y-119161142D02*
X204246328Y-119232571D01*
X204246328Y-119232571D02*
X204389185Y-119232571D01*
X205674900Y-117875428D02*
X205746328Y-118018285D01*
X205746328Y-118018285D02*
X205746328Y-118303999D01*
X205746328Y-118303999D02*
X205674900Y-118446856D01*
X205674900Y-118446856D02*
X205603471Y-118518285D01*
X205603471Y-118518285D02*
X205460614Y-118589713D01*
X205460614Y-118589713D02*
X205032042Y-118589713D01*
X205032042Y-118589713D02*
X204889185Y-118518285D01*
X204889185Y-118518285D02*
X204817757Y-118446856D01*
X204817757Y-118446856D02*
X204746328Y-118303999D01*
X204746328Y-118303999D02*
X204746328Y-118018285D01*
X204746328Y-118018285D02*
X204817757Y-117875428D01*
X205674900Y-116661142D02*
X205746328Y-116803999D01*
X205746328Y-116803999D02*
X205746328Y-117089714D01*
X205746328Y-117089714D02*
X205674900Y-117232571D01*
X205674900Y-117232571D02*
X205532042Y-117303999D01*
X205532042Y-117303999D02*
X204960614Y-117303999D01*
X204960614Y-117303999D02*
X204817757Y-117232571D01*
X204817757Y-117232571D02*
X204746328Y-117089714D01*
X204746328Y-117089714D02*
X204746328Y-116803999D01*
X204746328Y-116803999D02*
X204817757Y-116661142D01*
X204817757Y-116661142D02*
X204960614Y-116589714D01*
X204960614Y-116589714D02*
X205103471Y-116589714D01*
X205103471Y-116589714D02*
X205246328Y-117303999D01*
X205603471Y-115946857D02*
X205674900Y-115875428D01*
X205674900Y-115875428D02*
X205746328Y-115946857D01*
X205746328Y-115946857D02*
X205674900Y-116018285D01*
X205674900Y-116018285D02*
X205603471Y-115946857D01*
X205603471Y-115946857D02*
X205746328Y-115946857D01*
X205174900Y-115946857D02*
X204317757Y-116018285D01*
X204317757Y-116018285D02*
X204246328Y-115946857D01*
X204246328Y-115946857D02*
X204317757Y-115875428D01*
X204317757Y-115875428D02*
X205174900Y-115946857D01*
X205174900Y-115946857D02*
X204246328Y-115946857D01*
X204746328Y-115232571D02*
X205746328Y-115232571D01*
X204889185Y-115232571D02*
X204817757Y-115161142D01*
X204817757Y-115161142D02*
X204746328Y-115018285D01*
X204746328Y-115018285D02*
X204746328Y-114803999D01*
X204746328Y-114803999D02*
X204817757Y-114661142D01*
X204817757Y-114661142D02*
X204960614Y-114589714D01*
X204960614Y-114589714D02*
X205746328Y-114589714D01*
X205746328Y-113232571D02*
X204960614Y-113232571D01*
X204960614Y-113232571D02*
X204817757Y-113303999D01*
X204817757Y-113303999D02*
X204746328Y-113446856D01*
X204746328Y-113446856D02*
X204746328Y-113732571D01*
X204746328Y-113732571D02*
X204817757Y-113875428D01*
X205674900Y-113232571D02*
X205746328Y-113375428D01*
X205746328Y-113375428D02*
X205746328Y-113732571D01*
X205746328Y-113732571D02*
X205674900Y-113875428D01*
X205674900Y-113875428D02*
X205532042Y-113946856D01*
X205532042Y-113946856D02*
X205389185Y-113946856D01*
X205389185Y-113946856D02*
X205246328Y-113875428D01*
X205246328Y-113875428D02*
X205174900Y-113732571D01*
X205174900Y-113732571D02*
X205174900Y-113375428D01*
X205174900Y-113375428D02*
X205103471Y-113232571D01*
X204746328Y-112518285D02*
X205746328Y-112518285D01*
X204889185Y-112518285D02*
X204817757Y-112446856D01*
X204817757Y-112446856D02*
X204746328Y-112303999D01*
X204746328Y-112303999D02*
X204746328Y-112089713D01*
X204746328Y-112089713D02*
X204817757Y-111946856D01*
X204817757Y-111946856D02*
X204960614Y-111875428D01*
X204960614Y-111875428D02*
X205746328Y-111875428D01*
X205746328Y-110946856D02*
X205674900Y-111089713D01*
X205674900Y-111089713D02*
X205603471Y-111161142D01*
X205603471Y-111161142D02*
X205460614Y-111232570D01*
X205460614Y-111232570D02*
X205032042Y-111232570D01*
X205032042Y-111232570D02*
X204889185Y-111161142D01*
X204889185Y-111161142D02*
X204817757Y-111089713D01*
X204817757Y-111089713D02*
X204746328Y-110946856D01*
X204746328Y-110946856D02*
X204746328Y-110732570D01*
X204746328Y-110732570D02*
X204817757Y-110589713D01*
X204817757Y-110589713D02*
X204889185Y-110518285D01*
X204889185Y-110518285D02*
X205032042Y-110446856D01*
X205032042Y-110446856D02*
X205460614Y-110446856D01*
X205460614Y-110446856D02*
X205603471Y-110518285D01*
X205603471Y-110518285D02*
X205674900Y-110589713D01*
X205674900Y-110589713D02*
X205746328Y-110732570D01*
X205746328Y-110732570D02*
X205746328Y-110946856D01*
D10*
X207462295Y-110296143D02*
X207462295Y-110753286D01*
X207462295Y-110524714D02*
X206662295Y-110524714D01*
X206662295Y-110524714D02*
X206776580Y-110600905D01*
X206776580Y-110600905D02*
X206852771Y-110677095D01*
X206852771Y-110677095D02*
X206890866Y-110753286D01*
X206662295Y-109800904D02*
X206662295Y-109724714D01*
X206662295Y-109724714D02*
X206700390Y-109648523D01*
X206700390Y-109648523D02*
X206738485Y-109610428D01*
X206738485Y-109610428D02*
X206814676Y-109572333D01*
X206814676Y-109572333D02*
X206967057Y-109534238D01*
X206967057Y-109534238D02*
X207157533Y-109534238D01*
X207157533Y-109534238D02*
X207309914Y-109572333D01*
X207309914Y-109572333D02*
X207386104Y-109610428D01*
X207386104Y-109610428D02*
X207424200Y-109648523D01*
X207424200Y-109648523D02*
X207462295Y-109724714D01*
X207462295Y-109724714D02*
X207462295Y-109800904D01*
X207462295Y-109800904D02*
X207424200Y-109877095D01*
X207424200Y-109877095D02*
X207386104Y-109915190D01*
X207386104Y-109915190D02*
X207309914Y-109953285D01*
X207309914Y-109953285D02*
X207157533Y-109991381D01*
X207157533Y-109991381D02*
X206967057Y-109991381D01*
X206967057Y-109991381D02*
X206814676Y-109953285D01*
X206814676Y-109953285D02*
X206738485Y-109915190D01*
X206738485Y-109915190D02*
X206700390Y-109877095D01*
X206700390Y-109877095D02*
X206662295Y-109800904D01*
X206928961Y-108848523D02*
X207462295Y-108848523D01*
X206624200Y-109038999D02*
X207195628Y-109229476D01*
X207195628Y-109229476D02*
X207195628Y-108734237D01*
X206662295Y-121637190D02*
X206662295Y-121561000D01*
X206662295Y-121561000D02*
X206700390Y-121484809D01*
X206700390Y-121484809D02*
X206738485Y-121446714D01*
X206738485Y-121446714D02*
X206814676Y-121408619D01*
X206814676Y-121408619D02*
X206967057Y-121370524D01*
X206967057Y-121370524D02*
X207157533Y-121370524D01*
X207157533Y-121370524D02*
X207309914Y-121408619D01*
X207309914Y-121408619D02*
X207386104Y-121446714D01*
X207386104Y-121446714D02*
X207424200Y-121484809D01*
X207424200Y-121484809D02*
X207462295Y-121561000D01*
X207462295Y-121561000D02*
X207462295Y-121637190D01*
X207462295Y-121637190D02*
X207424200Y-121713381D01*
X207424200Y-121713381D02*
X207386104Y-121751476D01*
X207386104Y-121751476D02*
X207309914Y-121789571D01*
X207309914Y-121789571D02*
X207157533Y-121827667D01*
X207157533Y-121827667D02*
X206967057Y-121827667D01*
X206967057Y-121827667D02*
X206814676Y-121789571D01*
X206814676Y-121789571D02*
X206738485Y-121751476D01*
X206738485Y-121751476D02*
X206700390Y-121713381D01*
X206700390Y-121713381D02*
X206662295Y-121637190D01*
X207462295Y-120608619D02*
X207462295Y-121065762D01*
X207462295Y-120837190D02*
X206662295Y-120837190D01*
X206662295Y-120837190D02*
X206776580Y-120913381D01*
X206776580Y-120913381D02*
X206852771Y-120989571D01*
X206852771Y-120989571D02*
X206890866Y-121065762D01*
X206662295Y-120113380D02*
X206662295Y-120037190D01*
X206662295Y-120037190D02*
X206700390Y-119960999D01*
X206700390Y-119960999D02*
X206738485Y-119922904D01*
X206738485Y-119922904D02*
X206814676Y-119884809D01*
X206814676Y-119884809D02*
X206967057Y-119846714D01*
X206967057Y-119846714D02*
X207157533Y-119846714D01*
X207157533Y-119846714D02*
X207309914Y-119884809D01*
X207309914Y-119884809D02*
X207386104Y-119922904D01*
X207386104Y-119922904D02*
X207424200Y-119960999D01*
X207424200Y-119960999D02*
X207462295Y-120037190D01*
X207462295Y-120037190D02*
X207462295Y-120113380D01*
X207462295Y-120113380D02*
X207424200Y-120189571D01*
X207424200Y-120189571D02*
X207386104Y-120227666D01*
X207386104Y-120227666D02*
X207309914Y-120265761D01*
X207309914Y-120265761D02*
X207157533Y-120303857D01*
X207157533Y-120303857D02*
X206967057Y-120303857D01*
X206967057Y-120303857D02*
X206814676Y-120265761D01*
X206814676Y-120265761D02*
X206738485Y-120227666D01*
X206738485Y-120227666D02*
X206700390Y-120189571D01*
X206700390Y-120189571D02*
X206662295Y-120113380D01*
X210002295Y-121370524D02*
X210002295Y-121827667D01*
X210002295Y-121599095D02*
X209202295Y-121599095D01*
X209202295Y-121599095D02*
X209316580Y-121675286D01*
X209316580Y-121675286D02*
X209392771Y-121751476D01*
X209392771Y-121751476D02*
X209430866Y-121827667D01*
X210002295Y-120608619D02*
X210002295Y-121065762D01*
X210002295Y-120837190D02*
X209202295Y-120837190D01*
X209202295Y-120837190D02*
X209316580Y-120913381D01*
X209316580Y-120913381D02*
X209392771Y-120989571D01*
X209392771Y-120989571D02*
X209430866Y-121065762D01*
X210002295Y-119846714D02*
X210002295Y-120303857D01*
X210002295Y-120075285D02*
X209202295Y-120075285D01*
X209202295Y-120075285D02*
X209316580Y-120151476D01*
X209316580Y-120151476D02*
X209392771Y-120227666D01*
X209392771Y-120227666D02*
X209430866Y-120303857D01*
X212542295Y-110296143D02*
X212542295Y-110753286D01*
X212542295Y-110524714D02*
X211742295Y-110524714D01*
X211742295Y-110524714D02*
X211856580Y-110600905D01*
X211856580Y-110600905D02*
X211932771Y-110677095D01*
X211932771Y-110677095D02*
X211970866Y-110753286D01*
X211742295Y-109800904D02*
X211742295Y-109724714D01*
X211742295Y-109724714D02*
X211780390Y-109648523D01*
X211780390Y-109648523D02*
X211818485Y-109610428D01*
X211818485Y-109610428D02*
X211894676Y-109572333D01*
X211894676Y-109572333D02*
X212047057Y-109534238D01*
X212047057Y-109534238D02*
X212237533Y-109534238D01*
X212237533Y-109534238D02*
X212389914Y-109572333D01*
X212389914Y-109572333D02*
X212466104Y-109610428D01*
X212466104Y-109610428D02*
X212504200Y-109648523D01*
X212504200Y-109648523D02*
X212542295Y-109724714D01*
X212542295Y-109724714D02*
X212542295Y-109800904D01*
X212542295Y-109800904D02*
X212504200Y-109877095D01*
X212504200Y-109877095D02*
X212466104Y-109915190D01*
X212466104Y-109915190D02*
X212389914Y-109953285D01*
X212389914Y-109953285D02*
X212237533Y-109991381D01*
X212237533Y-109991381D02*
X212047057Y-109991381D01*
X212047057Y-109991381D02*
X211894676Y-109953285D01*
X211894676Y-109953285D02*
X211818485Y-109915190D01*
X211818485Y-109915190D02*
X211780390Y-109877095D01*
X211780390Y-109877095D02*
X211742295Y-109800904D01*
X211742295Y-109038999D02*
X211742295Y-108962809D01*
X211742295Y-108962809D02*
X211780390Y-108886618D01*
X211780390Y-108886618D02*
X211818485Y-108848523D01*
X211818485Y-108848523D02*
X211894676Y-108810428D01*
X211894676Y-108810428D02*
X212047057Y-108772333D01*
X212047057Y-108772333D02*
X212237533Y-108772333D01*
X212237533Y-108772333D02*
X212389914Y-108810428D01*
X212389914Y-108810428D02*
X212466104Y-108848523D01*
X212466104Y-108848523D02*
X212504200Y-108886618D01*
X212504200Y-108886618D02*
X212542295Y-108962809D01*
X212542295Y-108962809D02*
X212542295Y-109038999D01*
X212542295Y-109038999D02*
X212504200Y-109115190D01*
X212504200Y-109115190D02*
X212466104Y-109153285D01*
X212466104Y-109153285D02*
X212389914Y-109191380D01*
X212389914Y-109191380D02*
X212237533Y-109229476D01*
X212237533Y-109229476D02*
X212047057Y-109229476D01*
X212047057Y-109229476D02*
X211894676Y-109191380D01*
X211894676Y-109191380D02*
X211818485Y-109153285D01*
X211818485Y-109153285D02*
X211780390Y-109115190D01*
X211780390Y-109115190D02*
X211742295Y-109038999D01*
X212542295Y-121370524D02*
X212542295Y-121827667D01*
X212542295Y-121599095D02*
X211742295Y-121599095D01*
X211742295Y-121599095D02*
X211856580Y-121675286D01*
X211856580Y-121675286D02*
X211932771Y-121751476D01*
X211932771Y-121751476D02*
X211970866Y-121827667D01*
X212542295Y-120608619D02*
X212542295Y-121065762D01*
X212542295Y-120837190D02*
X211742295Y-120837190D01*
X211742295Y-120837190D02*
X211856580Y-120913381D01*
X211856580Y-120913381D02*
X211932771Y-120989571D01*
X211932771Y-120989571D02*
X211970866Y-121065762D01*
X211742295Y-120341952D02*
X211742295Y-119846714D01*
X211742295Y-119846714D02*
X212047057Y-120113380D01*
X212047057Y-120113380D02*
X212047057Y-119999095D01*
X212047057Y-119999095D02*
X212085152Y-119922904D01*
X212085152Y-119922904D02*
X212123247Y-119884809D01*
X212123247Y-119884809D02*
X212199438Y-119846714D01*
X212199438Y-119846714D02*
X212389914Y-119846714D01*
X212389914Y-119846714D02*
X212466104Y-119884809D01*
X212466104Y-119884809D02*
X212504200Y-119922904D01*
X212504200Y-119922904D02*
X212542295Y-119999095D01*
X212542295Y-119999095D02*
X212542295Y-120227666D01*
X212542295Y-120227666D02*
X212504200Y-120303857D01*
X212504200Y-120303857D02*
X212466104Y-120341952D01*
X214282295Y-110562809D02*
X214282295Y-110486619D01*
X214282295Y-110486619D02*
X214320390Y-110410428D01*
X214320390Y-110410428D02*
X214358485Y-110372333D01*
X214358485Y-110372333D02*
X214434676Y-110334238D01*
X214434676Y-110334238D02*
X214587057Y-110296143D01*
X214587057Y-110296143D02*
X214777533Y-110296143D01*
X214777533Y-110296143D02*
X214929914Y-110334238D01*
X214929914Y-110334238D02*
X215006104Y-110372333D01*
X215006104Y-110372333D02*
X215044200Y-110410428D01*
X215044200Y-110410428D02*
X215082295Y-110486619D01*
X215082295Y-110486619D02*
X215082295Y-110562809D01*
X215082295Y-110562809D02*
X215044200Y-110639000D01*
X215044200Y-110639000D02*
X215006104Y-110677095D01*
X215006104Y-110677095D02*
X214929914Y-110715190D01*
X214929914Y-110715190D02*
X214777533Y-110753286D01*
X214777533Y-110753286D02*
X214587057Y-110753286D01*
X214587057Y-110753286D02*
X214434676Y-110715190D01*
X214434676Y-110715190D02*
X214358485Y-110677095D01*
X214358485Y-110677095D02*
X214320390Y-110639000D01*
X214320390Y-110639000D02*
X214282295Y-110562809D01*
X214358485Y-109991381D02*
X214320390Y-109953285D01*
X214320390Y-109953285D02*
X214282295Y-109877095D01*
X214282295Y-109877095D02*
X214282295Y-109686619D01*
X214282295Y-109686619D02*
X214320390Y-109610428D01*
X214320390Y-109610428D02*
X214358485Y-109572333D01*
X214358485Y-109572333D02*
X214434676Y-109534238D01*
X214434676Y-109534238D02*
X214510866Y-109534238D01*
X214510866Y-109534238D02*
X214625152Y-109572333D01*
X214625152Y-109572333D02*
X215082295Y-110029476D01*
X215082295Y-110029476D02*
X215082295Y-109534238D01*
X214548961Y-108848523D02*
X215082295Y-108848523D01*
X214244200Y-109038999D02*
X214815628Y-109229476D01*
X214815628Y-109229476D02*
X214815628Y-108734237D01*
X215082295Y-121370524D02*
X215082295Y-121827667D01*
X215082295Y-121599095D02*
X214282295Y-121599095D01*
X214282295Y-121599095D02*
X214396580Y-121675286D01*
X214396580Y-121675286D02*
X214472771Y-121751476D01*
X214472771Y-121751476D02*
X214510866Y-121827667D01*
X215082295Y-120608619D02*
X215082295Y-121065762D01*
X215082295Y-120837190D02*
X214282295Y-120837190D01*
X214282295Y-120837190D02*
X214396580Y-120913381D01*
X214396580Y-120913381D02*
X214472771Y-120989571D01*
X214472771Y-120989571D02*
X214510866Y-121065762D01*
X214282295Y-119884809D02*
X214282295Y-120265761D01*
X214282295Y-120265761D02*
X214663247Y-120303857D01*
X214663247Y-120303857D02*
X214625152Y-120265761D01*
X214625152Y-120265761D02*
X214587057Y-120189571D01*
X214587057Y-120189571D02*
X214587057Y-119999095D01*
X214587057Y-119999095D02*
X214625152Y-119922904D01*
X214625152Y-119922904D02*
X214663247Y-119884809D01*
X214663247Y-119884809D02*
X214739438Y-119846714D01*
X214739438Y-119846714D02*
X214929914Y-119846714D01*
X214929914Y-119846714D02*
X215006104Y-119884809D01*
X215006104Y-119884809D02*
X215044200Y-119922904D01*
X215044200Y-119922904D02*
X215082295Y-119999095D01*
X215082295Y-119999095D02*
X215082295Y-120189571D01*
X215082295Y-120189571D02*
X215044200Y-120265761D01*
X215044200Y-120265761D02*
X215006104Y-120303857D01*
X216792295Y-110562809D02*
X216792295Y-110486619D01*
X216792295Y-110486619D02*
X216830390Y-110410428D01*
X216830390Y-110410428D02*
X216868485Y-110372333D01*
X216868485Y-110372333D02*
X216944676Y-110334238D01*
X216944676Y-110334238D02*
X217097057Y-110296143D01*
X217097057Y-110296143D02*
X217287533Y-110296143D01*
X217287533Y-110296143D02*
X217439914Y-110334238D01*
X217439914Y-110334238D02*
X217516104Y-110372333D01*
X217516104Y-110372333D02*
X217554200Y-110410428D01*
X217554200Y-110410428D02*
X217592295Y-110486619D01*
X217592295Y-110486619D02*
X217592295Y-110562809D01*
X217592295Y-110562809D02*
X217554200Y-110639000D01*
X217554200Y-110639000D02*
X217516104Y-110677095D01*
X217516104Y-110677095D02*
X217439914Y-110715190D01*
X217439914Y-110715190D02*
X217287533Y-110753286D01*
X217287533Y-110753286D02*
X217097057Y-110753286D01*
X217097057Y-110753286D02*
X216944676Y-110715190D01*
X216944676Y-110715190D02*
X216868485Y-110677095D01*
X216868485Y-110677095D02*
X216830390Y-110639000D01*
X216830390Y-110639000D02*
X216792295Y-110562809D01*
X216868485Y-109991381D02*
X216830390Y-109953285D01*
X216830390Y-109953285D02*
X216792295Y-109877095D01*
X216792295Y-109877095D02*
X216792295Y-109686619D01*
X216792295Y-109686619D02*
X216830390Y-109610428D01*
X216830390Y-109610428D02*
X216868485Y-109572333D01*
X216868485Y-109572333D02*
X216944676Y-109534238D01*
X216944676Y-109534238D02*
X217020866Y-109534238D01*
X217020866Y-109534238D02*
X217135152Y-109572333D01*
X217135152Y-109572333D02*
X217592295Y-110029476D01*
X217592295Y-110029476D02*
X217592295Y-109534238D01*
X216868485Y-109229476D02*
X216830390Y-109191380D01*
X216830390Y-109191380D02*
X216792295Y-109115190D01*
X216792295Y-109115190D02*
X216792295Y-108924714D01*
X216792295Y-108924714D02*
X216830390Y-108848523D01*
X216830390Y-108848523D02*
X216868485Y-108810428D01*
X216868485Y-108810428D02*
X216944676Y-108772333D01*
X216944676Y-108772333D02*
X217020866Y-108772333D01*
X217020866Y-108772333D02*
X217135152Y-108810428D01*
X217135152Y-108810428D02*
X217592295Y-109267571D01*
X217592295Y-109267571D02*
X217592295Y-108772333D01*
X216822295Y-121637190D02*
X216822295Y-121561000D01*
X216822295Y-121561000D02*
X216860390Y-121484809D01*
X216860390Y-121484809D02*
X216898485Y-121446714D01*
X216898485Y-121446714D02*
X216974676Y-121408619D01*
X216974676Y-121408619D02*
X217127057Y-121370524D01*
X217127057Y-121370524D02*
X217317533Y-121370524D01*
X217317533Y-121370524D02*
X217469914Y-121408619D01*
X217469914Y-121408619D02*
X217546104Y-121446714D01*
X217546104Y-121446714D02*
X217584200Y-121484809D01*
X217584200Y-121484809D02*
X217622295Y-121561000D01*
X217622295Y-121561000D02*
X217622295Y-121637190D01*
X217622295Y-121637190D02*
X217584200Y-121713381D01*
X217584200Y-121713381D02*
X217546104Y-121751476D01*
X217546104Y-121751476D02*
X217469914Y-121789571D01*
X217469914Y-121789571D02*
X217317533Y-121827667D01*
X217317533Y-121827667D02*
X217127057Y-121827667D01*
X217127057Y-121827667D02*
X216974676Y-121789571D01*
X216974676Y-121789571D02*
X216898485Y-121751476D01*
X216898485Y-121751476D02*
X216860390Y-121713381D01*
X216860390Y-121713381D02*
X216822295Y-121637190D01*
X216822295Y-120875285D02*
X216822295Y-120799095D01*
X216822295Y-120799095D02*
X216860390Y-120722904D01*
X216860390Y-120722904D02*
X216898485Y-120684809D01*
X216898485Y-120684809D02*
X216974676Y-120646714D01*
X216974676Y-120646714D02*
X217127057Y-120608619D01*
X217127057Y-120608619D02*
X217317533Y-120608619D01*
X217317533Y-120608619D02*
X217469914Y-120646714D01*
X217469914Y-120646714D02*
X217546104Y-120684809D01*
X217546104Y-120684809D02*
X217584200Y-120722904D01*
X217584200Y-120722904D02*
X217622295Y-120799095D01*
X217622295Y-120799095D02*
X217622295Y-120875285D01*
X217622295Y-120875285D02*
X217584200Y-120951476D01*
X217584200Y-120951476D02*
X217546104Y-120989571D01*
X217546104Y-120989571D02*
X217469914Y-121027666D01*
X217469914Y-121027666D02*
X217317533Y-121065762D01*
X217317533Y-121065762D02*
X217127057Y-121065762D01*
X217127057Y-121065762D02*
X216974676Y-121027666D01*
X216974676Y-121027666D02*
X216898485Y-120989571D01*
X216898485Y-120989571D02*
X216860390Y-120951476D01*
X216860390Y-120951476D02*
X216822295Y-120875285D01*
X216898485Y-120303857D02*
X216860390Y-120265761D01*
X216860390Y-120265761D02*
X216822295Y-120189571D01*
X216822295Y-120189571D02*
X216822295Y-119999095D01*
X216822295Y-119999095D02*
X216860390Y-119922904D01*
X216860390Y-119922904D02*
X216898485Y-119884809D01*
X216898485Y-119884809D02*
X216974676Y-119846714D01*
X216974676Y-119846714D02*
X217050866Y-119846714D01*
X217050866Y-119846714D02*
X217165152Y-119884809D01*
X217165152Y-119884809D02*
X217622295Y-120341952D01*
X217622295Y-120341952D02*
X217622295Y-119846714D01*
X219292295Y-110562809D02*
X219292295Y-110486619D01*
X219292295Y-110486619D02*
X219330390Y-110410428D01*
X219330390Y-110410428D02*
X219368485Y-110372333D01*
X219368485Y-110372333D02*
X219444676Y-110334238D01*
X219444676Y-110334238D02*
X219597057Y-110296143D01*
X219597057Y-110296143D02*
X219787533Y-110296143D01*
X219787533Y-110296143D02*
X219939914Y-110334238D01*
X219939914Y-110334238D02*
X220016104Y-110372333D01*
X220016104Y-110372333D02*
X220054200Y-110410428D01*
X220054200Y-110410428D02*
X220092295Y-110486619D01*
X220092295Y-110486619D02*
X220092295Y-110562809D01*
X220092295Y-110562809D02*
X220054200Y-110639000D01*
X220054200Y-110639000D02*
X220016104Y-110677095D01*
X220016104Y-110677095D02*
X219939914Y-110715190D01*
X219939914Y-110715190D02*
X219787533Y-110753286D01*
X219787533Y-110753286D02*
X219597057Y-110753286D01*
X219597057Y-110753286D02*
X219444676Y-110715190D01*
X219444676Y-110715190D02*
X219368485Y-110677095D01*
X219368485Y-110677095D02*
X219330390Y-110639000D01*
X219330390Y-110639000D02*
X219292295Y-110562809D01*
X219368485Y-109991381D02*
X219330390Y-109953285D01*
X219330390Y-109953285D02*
X219292295Y-109877095D01*
X219292295Y-109877095D02*
X219292295Y-109686619D01*
X219292295Y-109686619D02*
X219330390Y-109610428D01*
X219330390Y-109610428D02*
X219368485Y-109572333D01*
X219368485Y-109572333D02*
X219444676Y-109534238D01*
X219444676Y-109534238D02*
X219520866Y-109534238D01*
X219520866Y-109534238D02*
X219635152Y-109572333D01*
X219635152Y-109572333D02*
X220092295Y-110029476D01*
X220092295Y-110029476D02*
X220092295Y-109534238D01*
X219292295Y-109038999D02*
X219292295Y-108962809D01*
X219292295Y-108962809D02*
X219330390Y-108886618D01*
X219330390Y-108886618D02*
X219368485Y-108848523D01*
X219368485Y-108848523D02*
X219444676Y-108810428D01*
X219444676Y-108810428D02*
X219597057Y-108772333D01*
X219597057Y-108772333D02*
X219787533Y-108772333D01*
X219787533Y-108772333D02*
X219939914Y-108810428D01*
X219939914Y-108810428D02*
X220016104Y-108848523D01*
X220016104Y-108848523D02*
X220054200Y-108886618D01*
X220054200Y-108886618D02*
X220092295Y-108962809D01*
X220092295Y-108962809D02*
X220092295Y-109038999D01*
X220092295Y-109038999D02*
X220054200Y-109115190D01*
X220054200Y-109115190D02*
X220016104Y-109153285D01*
X220016104Y-109153285D02*
X219939914Y-109191380D01*
X219939914Y-109191380D02*
X219787533Y-109229476D01*
X219787533Y-109229476D02*
X219597057Y-109229476D01*
X219597057Y-109229476D02*
X219444676Y-109191380D01*
X219444676Y-109191380D02*
X219368485Y-109153285D01*
X219368485Y-109153285D02*
X219330390Y-109115190D01*
X219330390Y-109115190D02*
X219292295Y-109038999D01*
X219362295Y-121637190D02*
X219362295Y-121561000D01*
X219362295Y-121561000D02*
X219400390Y-121484809D01*
X219400390Y-121484809D02*
X219438485Y-121446714D01*
X219438485Y-121446714D02*
X219514676Y-121408619D01*
X219514676Y-121408619D02*
X219667057Y-121370524D01*
X219667057Y-121370524D02*
X219857533Y-121370524D01*
X219857533Y-121370524D02*
X220009914Y-121408619D01*
X220009914Y-121408619D02*
X220086104Y-121446714D01*
X220086104Y-121446714D02*
X220124200Y-121484809D01*
X220124200Y-121484809D02*
X220162295Y-121561000D01*
X220162295Y-121561000D02*
X220162295Y-121637190D01*
X220162295Y-121637190D02*
X220124200Y-121713381D01*
X220124200Y-121713381D02*
X220086104Y-121751476D01*
X220086104Y-121751476D02*
X220009914Y-121789571D01*
X220009914Y-121789571D02*
X219857533Y-121827667D01*
X219857533Y-121827667D02*
X219667057Y-121827667D01*
X219667057Y-121827667D02*
X219514676Y-121789571D01*
X219514676Y-121789571D02*
X219438485Y-121751476D01*
X219438485Y-121751476D02*
X219400390Y-121713381D01*
X219400390Y-121713381D02*
X219362295Y-121637190D01*
X219438485Y-121065762D02*
X219400390Y-121027666D01*
X219400390Y-121027666D02*
X219362295Y-120951476D01*
X219362295Y-120951476D02*
X219362295Y-120761000D01*
X219362295Y-120761000D02*
X219400390Y-120684809D01*
X219400390Y-120684809D02*
X219438485Y-120646714D01*
X219438485Y-120646714D02*
X219514676Y-120608619D01*
X219514676Y-120608619D02*
X219590866Y-120608619D01*
X219590866Y-120608619D02*
X219705152Y-120646714D01*
X219705152Y-120646714D02*
X220162295Y-121103857D01*
X220162295Y-121103857D02*
X220162295Y-120608619D01*
X220162295Y-120227666D02*
X220162295Y-120075285D01*
X220162295Y-120075285D02*
X220124200Y-119999095D01*
X220124200Y-119999095D02*
X220086104Y-119960999D01*
X220086104Y-119960999D02*
X219971819Y-119884809D01*
X219971819Y-119884809D02*
X219819438Y-119846714D01*
X219819438Y-119846714D02*
X219514676Y-119846714D01*
X219514676Y-119846714D02*
X219438485Y-119884809D01*
X219438485Y-119884809D02*
X219400390Y-119922904D01*
X219400390Y-119922904D02*
X219362295Y-119999095D01*
X219362295Y-119999095D02*
X219362295Y-120151476D01*
X219362295Y-120151476D02*
X219400390Y-120227666D01*
X219400390Y-120227666D02*
X219438485Y-120265761D01*
X219438485Y-120265761D02*
X219514676Y-120303857D01*
X219514676Y-120303857D02*
X219705152Y-120303857D01*
X219705152Y-120303857D02*
X219781342Y-120265761D01*
X219781342Y-120265761D02*
X219819438Y-120227666D01*
X219819438Y-120227666D02*
X219857533Y-120151476D01*
X219857533Y-120151476D02*
X219857533Y-119999095D01*
X219857533Y-119999095D02*
X219819438Y-119922904D01*
X219819438Y-119922904D02*
X219781342Y-119884809D01*
X219781342Y-119884809D02*
X219705152Y-119846714D01*
X221892295Y-110562809D02*
X221892295Y-110486619D01*
X221892295Y-110486619D02*
X221930390Y-110410428D01*
X221930390Y-110410428D02*
X221968485Y-110372333D01*
X221968485Y-110372333D02*
X222044676Y-110334238D01*
X222044676Y-110334238D02*
X222197057Y-110296143D01*
X222197057Y-110296143D02*
X222387533Y-110296143D01*
X222387533Y-110296143D02*
X222539914Y-110334238D01*
X222539914Y-110334238D02*
X222616104Y-110372333D01*
X222616104Y-110372333D02*
X222654200Y-110410428D01*
X222654200Y-110410428D02*
X222692295Y-110486619D01*
X222692295Y-110486619D02*
X222692295Y-110562809D01*
X222692295Y-110562809D02*
X222654200Y-110639000D01*
X222654200Y-110639000D02*
X222616104Y-110677095D01*
X222616104Y-110677095D02*
X222539914Y-110715190D01*
X222539914Y-110715190D02*
X222387533Y-110753286D01*
X222387533Y-110753286D02*
X222197057Y-110753286D01*
X222197057Y-110753286D02*
X222044676Y-110715190D01*
X222044676Y-110715190D02*
X221968485Y-110677095D01*
X221968485Y-110677095D02*
X221930390Y-110639000D01*
X221930390Y-110639000D02*
X221892295Y-110562809D01*
X222692295Y-109534238D02*
X222692295Y-109991381D01*
X222692295Y-109762809D02*
X221892295Y-109762809D01*
X221892295Y-109762809D02*
X222006580Y-109839000D01*
X222006580Y-109839000D02*
X222082771Y-109915190D01*
X222082771Y-109915190D02*
X222120866Y-109991381D01*
X221892295Y-109267571D02*
X221892295Y-108734237D01*
X221892295Y-108734237D02*
X222692295Y-109077095D01*
X221902295Y-121637190D02*
X221902295Y-121561000D01*
X221902295Y-121561000D02*
X221940390Y-121484809D01*
X221940390Y-121484809D02*
X221978485Y-121446714D01*
X221978485Y-121446714D02*
X222054676Y-121408619D01*
X222054676Y-121408619D02*
X222207057Y-121370524D01*
X222207057Y-121370524D02*
X222397533Y-121370524D01*
X222397533Y-121370524D02*
X222549914Y-121408619D01*
X222549914Y-121408619D02*
X222626104Y-121446714D01*
X222626104Y-121446714D02*
X222664200Y-121484809D01*
X222664200Y-121484809D02*
X222702295Y-121561000D01*
X222702295Y-121561000D02*
X222702295Y-121637190D01*
X222702295Y-121637190D02*
X222664200Y-121713381D01*
X222664200Y-121713381D02*
X222626104Y-121751476D01*
X222626104Y-121751476D02*
X222549914Y-121789571D01*
X222549914Y-121789571D02*
X222397533Y-121827667D01*
X222397533Y-121827667D02*
X222207057Y-121827667D01*
X222207057Y-121827667D02*
X222054676Y-121789571D01*
X222054676Y-121789571D02*
X221978485Y-121751476D01*
X221978485Y-121751476D02*
X221940390Y-121713381D01*
X221940390Y-121713381D02*
X221902295Y-121637190D01*
X221902295Y-121103857D02*
X221902295Y-120608619D01*
X221902295Y-120608619D02*
X222207057Y-120875285D01*
X222207057Y-120875285D02*
X222207057Y-120761000D01*
X222207057Y-120761000D02*
X222245152Y-120684809D01*
X222245152Y-120684809D02*
X222283247Y-120646714D01*
X222283247Y-120646714D02*
X222359438Y-120608619D01*
X222359438Y-120608619D02*
X222549914Y-120608619D01*
X222549914Y-120608619D02*
X222626104Y-120646714D01*
X222626104Y-120646714D02*
X222664200Y-120684809D01*
X222664200Y-120684809D02*
X222702295Y-120761000D01*
X222702295Y-120761000D02*
X222702295Y-120989571D01*
X222702295Y-120989571D02*
X222664200Y-121065762D01*
X222664200Y-121065762D02*
X222626104Y-121103857D01*
X222702295Y-119846714D02*
X222702295Y-120303857D01*
X222702295Y-120075285D02*
X221902295Y-120075285D01*
X221902295Y-120075285D02*
X222016580Y-120151476D01*
X222016580Y-120151476D02*
X222092771Y-120227666D01*
X222092771Y-120227666D02*
X222130866Y-120303857D01*
X224480390Y-110448523D02*
X224442295Y-110524713D01*
X224442295Y-110524713D02*
X224442295Y-110638999D01*
X224442295Y-110638999D02*
X224480390Y-110753285D01*
X224480390Y-110753285D02*
X224556580Y-110829475D01*
X224556580Y-110829475D02*
X224632771Y-110867570D01*
X224632771Y-110867570D02*
X224785152Y-110905666D01*
X224785152Y-110905666D02*
X224899438Y-110905666D01*
X224899438Y-110905666D02*
X225051819Y-110867570D01*
X225051819Y-110867570D02*
X225128009Y-110829475D01*
X225128009Y-110829475D02*
X225204200Y-110753285D01*
X225204200Y-110753285D02*
X225242295Y-110638999D01*
X225242295Y-110638999D02*
X225242295Y-110562808D01*
X225242295Y-110562808D02*
X225204200Y-110448523D01*
X225204200Y-110448523D02*
X225166104Y-110410427D01*
X225166104Y-110410427D02*
X224899438Y-110410427D01*
X224899438Y-110410427D02*
X224899438Y-110562808D01*
X225242295Y-110067570D02*
X224442295Y-110067570D01*
X224442295Y-110067570D02*
X225242295Y-109610427D01*
X225242295Y-109610427D02*
X224442295Y-109610427D01*
X225242295Y-109229475D02*
X224442295Y-109229475D01*
X224442295Y-109229475D02*
X224442295Y-109038999D01*
X224442295Y-109038999D02*
X224480390Y-108924713D01*
X224480390Y-108924713D02*
X224556580Y-108848523D01*
X224556580Y-108848523D02*
X224632771Y-108810428D01*
X224632771Y-108810428D02*
X224785152Y-108772332D01*
X224785152Y-108772332D02*
X224899438Y-108772332D01*
X224899438Y-108772332D02*
X225051819Y-108810428D01*
X225051819Y-108810428D02*
X225128009Y-108848523D01*
X225128009Y-108848523D02*
X225204200Y-108924713D01*
X225204200Y-108924713D02*
X225242295Y-109038999D01*
X225242295Y-109038999D02*
X225242295Y-109229475D01*
X224442295Y-121903857D02*
X225242295Y-121637190D01*
X225242295Y-121637190D02*
X224442295Y-121370524D01*
X225166104Y-120646714D02*
X225204200Y-120684810D01*
X225204200Y-120684810D02*
X225242295Y-120799095D01*
X225242295Y-120799095D02*
X225242295Y-120875286D01*
X225242295Y-120875286D02*
X225204200Y-120989572D01*
X225204200Y-120989572D02*
X225128009Y-121065762D01*
X225128009Y-121065762D02*
X225051819Y-121103857D01*
X225051819Y-121103857D02*
X224899438Y-121141953D01*
X224899438Y-121141953D02*
X224785152Y-121141953D01*
X224785152Y-121141953D02*
X224632771Y-121103857D01*
X224632771Y-121103857D02*
X224556580Y-121065762D01*
X224556580Y-121065762D02*
X224480390Y-120989572D01*
X224480390Y-120989572D02*
X224442295Y-120875286D01*
X224442295Y-120875286D02*
X224442295Y-120799095D01*
X224442295Y-120799095D02*
X224480390Y-120684810D01*
X224480390Y-120684810D02*
X224518485Y-120646714D01*
X225166104Y-119846714D02*
X225204200Y-119884810D01*
X225204200Y-119884810D02*
X225242295Y-119999095D01*
X225242295Y-119999095D02*
X225242295Y-120075286D01*
X225242295Y-120075286D02*
X225204200Y-120189572D01*
X225204200Y-120189572D02*
X225128009Y-120265762D01*
X225128009Y-120265762D02*
X225051819Y-120303857D01*
X225051819Y-120303857D02*
X224899438Y-120341953D01*
X224899438Y-120341953D02*
X224785152Y-120341953D01*
X224785152Y-120341953D02*
X224632771Y-120303857D01*
X224632771Y-120303857D02*
X224556580Y-120265762D01*
X224556580Y-120265762D02*
X224480390Y-120189572D01*
X224480390Y-120189572D02*
X224442295Y-120075286D01*
X224442295Y-120075286D02*
X224442295Y-119999095D01*
X224442295Y-119999095D02*
X224480390Y-119884810D01*
X224480390Y-119884810D02*
X224518485Y-119846714D01*
X227020390Y-110448523D02*
X226982295Y-110524713D01*
X226982295Y-110524713D02*
X226982295Y-110638999D01*
X226982295Y-110638999D02*
X227020390Y-110753285D01*
X227020390Y-110753285D02*
X227096580Y-110829475D01*
X227096580Y-110829475D02*
X227172771Y-110867570D01*
X227172771Y-110867570D02*
X227325152Y-110905666D01*
X227325152Y-110905666D02*
X227439438Y-110905666D01*
X227439438Y-110905666D02*
X227591819Y-110867570D01*
X227591819Y-110867570D02*
X227668009Y-110829475D01*
X227668009Y-110829475D02*
X227744200Y-110753285D01*
X227744200Y-110753285D02*
X227782295Y-110638999D01*
X227782295Y-110638999D02*
X227782295Y-110562808D01*
X227782295Y-110562808D02*
X227744200Y-110448523D01*
X227744200Y-110448523D02*
X227706104Y-110410427D01*
X227706104Y-110410427D02*
X227439438Y-110410427D01*
X227439438Y-110410427D02*
X227439438Y-110562808D01*
X227782295Y-110067570D02*
X226982295Y-110067570D01*
X226982295Y-110067570D02*
X227782295Y-109610427D01*
X227782295Y-109610427D02*
X226982295Y-109610427D01*
X227782295Y-109229475D02*
X226982295Y-109229475D01*
X226982295Y-109229475D02*
X226982295Y-109038999D01*
X226982295Y-109038999D02*
X227020390Y-108924713D01*
X227020390Y-108924713D02*
X227096580Y-108848523D01*
X227096580Y-108848523D02*
X227172771Y-108810428D01*
X227172771Y-108810428D02*
X227325152Y-108772332D01*
X227325152Y-108772332D02*
X227439438Y-108772332D01*
X227439438Y-108772332D02*
X227591819Y-108810428D01*
X227591819Y-108810428D02*
X227668009Y-108848523D01*
X227668009Y-108848523D02*
X227744200Y-108924713D01*
X227744200Y-108924713D02*
X227782295Y-109038999D01*
X227782295Y-109038999D02*
X227782295Y-109229475D01*
X227782295Y-121326094D02*
X227401342Y-121592761D01*
X227782295Y-121783237D02*
X226982295Y-121783237D01*
X226982295Y-121783237D02*
X226982295Y-121478475D01*
X226982295Y-121478475D02*
X227020390Y-121402285D01*
X227020390Y-121402285D02*
X227058485Y-121364190D01*
X227058485Y-121364190D02*
X227134676Y-121326094D01*
X227134676Y-121326094D02*
X227248961Y-121326094D01*
X227248961Y-121326094D02*
X227325152Y-121364190D01*
X227325152Y-121364190D02*
X227363247Y-121402285D01*
X227363247Y-121402285D02*
X227401342Y-121478475D01*
X227401342Y-121478475D02*
X227401342Y-121783237D01*
X227744200Y-121021333D02*
X227782295Y-120907047D01*
X227782295Y-120907047D02*
X227782295Y-120716571D01*
X227782295Y-120716571D02*
X227744200Y-120640380D01*
X227744200Y-120640380D02*
X227706104Y-120602285D01*
X227706104Y-120602285D02*
X227629914Y-120564190D01*
X227629914Y-120564190D02*
X227553723Y-120564190D01*
X227553723Y-120564190D02*
X227477533Y-120602285D01*
X227477533Y-120602285D02*
X227439438Y-120640380D01*
X227439438Y-120640380D02*
X227401342Y-120716571D01*
X227401342Y-120716571D02*
X227363247Y-120868952D01*
X227363247Y-120868952D02*
X227325152Y-120945142D01*
X227325152Y-120945142D02*
X227287057Y-120983237D01*
X227287057Y-120983237D02*
X227210866Y-121021333D01*
X227210866Y-121021333D02*
X227134676Y-121021333D01*
X227134676Y-121021333D02*
X227058485Y-120983237D01*
X227058485Y-120983237D02*
X227020390Y-120945142D01*
X227020390Y-120945142D02*
X226982295Y-120868952D01*
X226982295Y-120868952D02*
X226982295Y-120678475D01*
X226982295Y-120678475D02*
X227020390Y-120564190D01*
X226982295Y-120335618D02*
X226982295Y-119878475D01*
X227782295Y-120107047D02*
X226982295Y-120107047D01*
X229560390Y-121364190D02*
X229522295Y-121440380D01*
X229522295Y-121440380D02*
X229522295Y-121554666D01*
X229522295Y-121554666D02*
X229560390Y-121668952D01*
X229560390Y-121668952D02*
X229636580Y-121745142D01*
X229636580Y-121745142D02*
X229712771Y-121783237D01*
X229712771Y-121783237D02*
X229865152Y-121821333D01*
X229865152Y-121821333D02*
X229979438Y-121821333D01*
X229979438Y-121821333D02*
X230131819Y-121783237D01*
X230131819Y-121783237D02*
X230208009Y-121745142D01*
X230208009Y-121745142D02*
X230284200Y-121668952D01*
X230284200Y-121668952D02*
X230322295Y-121554666D01*
X230322295Y-121554666D02*
X230322295Y-121478475D01*
X230322295Y-121478475D02*
X230284200Y-121364190D01*
X230284200Y-121364190D02*
X230246104Y-121326094D01*
X230246104Y-121326094D02*
X229979438Y-121326094D01*
X229979438Y-121326094D02*
X229979438Y-121478475D01*
X230322295Y-120983237D02*
X229522295Y-120983237D01*
X229522295Y-120983237D02*
X230322295Y-120526094D01*
X230322295Y-120526094D02*
X229522295Y-120526094D01*
X230322295Y-120145142D02*
X229522295Y-120145142D01*
X229522295Y-120145142D02*
X229522295Y-119954666D01*
X229522295Y-119954666D02*
X229560390Y-119840380D01*
X229560390Y-119840380D02*
X229636580Y-119764190D01*
X229636580Y-119764190D02*
X229712771Y-119726095D01*
X229712771Y-119726095D02*
X229865152Y-119687999D01*
X229865152Y-119687999D02*
X229979438Y-119687999D01*
X229979438Y-119687999D02*
X230131819Y-119726095D01*
X230131819Y-119726095D02*
X230208009Y-119764190D01*
X230208009Y-119764190D02*
X230284200Y-119840380D01*
X230284200Y-119840380D02*
X230322295Y-119954666D01*
X230322295Y-119954666D02*
X230322295Y-120145142D01*
X229592295Y-110562809D02*
X229592295Y-110486619D01*
X229592295Y-110486619D02*
X229630390Y-110410428D01*
X229630390Y-110410428D02*
X229668485Y-110372333D01*
X229668485Y-110372333D02*
X229744676Y-110334238D01*
X229744676Y-110334238D02*
X229897057Y-110296143D01*
X229897057Y-110296143D02*
X230087533Y-110296143D01*
X230087533Y-110296143D02*
X230239914Y-110334238D01*
X230239914Y-110334238D02*
X230316104Y-110372333D01*
X230316104Y-110372333D02*
X230354200Y-110410428D01*
X230354200Y-110410428D02*
X230392295Y-110486619D01*
X230392295Y-110486619D02*
X230392295Y-110562809D01*
X230392295Y-110562809D02*
X230354200Y-110639000D01*
X230354200Y-110639000D02*
X230316104Y-110677095D01*
X230316104Y-110677095D02*
X230239914Y-110715190D01*
X230239914Y-110715190D02*
X230087533Y-110753286D01*
X230087533Y-110753286D02*
X229897057Y-110753286D01*
X229897057Y-110753286D02*
X229744676Y-110715190D01*
X229744676Y-110715190D02*
X229668485Y-110677095D01*
X229668485Y-110677095D02*
X229630390Y-110639000D01*
X229630390Y-110639000D02*
X229592295Y-110562809D01*
X229592295Y-109800904D02*
X229592295Y-109724714D01*
X229592295Y-109724714D02*
X229630390Y-109648523D01*
X229630390Y-109648523D02*
X229668485Y-109610428D01*
X229668485Y-109610428D02*
X229744676Y-109572333D01*
X229744676Y-109572333D02*
X229897057Y-109534238D01*
X229897057Y-109534238D02*
X230087533Y-109534238D01*
X230087533Y-109534238D02*
X230239914Y-109572333D01*
X230239914Y-109572333D02*
X230316104Y-109610428D01*
X230316104Y-109610428D02*
X230354200Y-109648523D01*
X230354200Y-109648523D02*
X230392295Y-109724714D01*
X230392295Y-109724714D02*
X230392295Y-109800904D01*
X230392295Y-109800904D02*
X230354200Y-109877095D01*
X230354200Y-109877095D02*
X230316104Y-109915190D01*
X230316104Y-109915190D02*
X230239914Y-109953285D01*
X230239914Y-109953285D02*
X230087533Y-109991381D01*
X230087533Y-109991381D02*
X229897057Y-109991381D01*
X229897057Y-109991381D02*
X229744676Y-109953285D01*
X229744676Y-109953285D02*
X229668485Y-109915190D01*
X229668485Y-109915190D02*
X229630390Y-109877095D01*
X229630390Y-109877095D02*
X229592295Y-109800904D01*
X229935152Y-109077095D02*
X229897057Y-109153285D01*
X229897057Y-109153285D02*
X229858961Y-109191380D01*
X229858961Y-109191380D02*
X229782771Y-109229476D01*
X229782771Y-109229476D02*
X229744676Y-109229476D01*
X229744676Y-109229476D02*
X229668485Y-109191380D01*
X229668485Y-109191380D02*
X229630390Y-109153285D01*
X229630390Y-109153285D02*
X229592295Y-109077095D01*
X229592295Y-109077095D02*
X229592295Y-108924714D01*
X229592295Y-108924714D02*
X229630390Y-108848523D01*
X229630390Y-108848523D02*
X229668485Y-108810428D01*
X229668485Y-108810428D02*
X229744676Y-108772333D01*
X229744676Y-108772333D02*
X229782771Y-108772333D01*
X229782771Y-108772333D02*
X229858961Y-108810428D01*
X229858961Y-108810428D02*
X229897057Y-108848523D01*
X229897057Y-108848523D02*
X229935152Y-108924714D01*
X229935152Y-108924714D02*
X229935152Y-109077095D01*
X229935152Y-109077095D02*
X229973247Y-109153285D01*
X229973247Y-109153285D02*
X230011342Y-109191380D01*
X230011342Y-109191380D02*
X230087533Y-109229476D01*
X230087533Y-109229476D02*
X230239914Y-109229476D01*
X230239914Y-109229476D02*
X230316104Y-109191380D01*
X230316104Y-109191380D02*
X230354200Y-109153285D01*
X230354200Y-109153285D02*
X230392295Y-109077095D01*
X230392295Y-109077095D02*
X230392295Y-108924714D01*
X230392295Y-108924714D02*
X230354200Y-108848523D01*
X230354200Y-108848523D02*
X230316104Y-108810428D01*
X230316104Y-108810428D02*
X230239914Y-108772333D01*
X230239914Y-108772333D02*
X230087533Y-108772333D01*
X230087533Y-108772333D02*
X230011342Y-108810428D01*
X230011342Y-108810428D02*
X229973247Y-108848523D01*
X229973247Y-108848523D02*
X229935152Y-108924714D01*
X232062295Y-110562809D02*
X232062295Y-110486619D01*
X232062295Y-110486619D02*
X232100390Y-110410428D01*
X232100390Y-110410428D02*
X232138485Y-110372333D01*
X232138485Y-110372333D02*
X232214676Y-110334238D01*
X232214676Y-110334238D02*
X232367057Y-110296143D01*
X232367057Y-110296143D02*
X232557533Y-110296143D01*
X232557533Y-110296143D02*
X232709914Y-110334238D01*
X232709914Y-110334238D02*
X232786104Y-110372333D01*
X232786104Y-110372333D02*
X232824200Y-110410428D01*
X232824200Y-110410428D02*
X232862295Y-110486619D01*
X232862295Y-110486619D02*
X232862295Y-110562809D01*
X232862295Y-110562809D02*
X232824200Y-110639000D01*
X232824200Y-110639000D02*
X232786104Y-110677095D01*
X232786104Y-110677095D02*
X232709914Y-110715190D01*
X232709914Y-110715190D02*
X232557533Y-110753286D01*
X232557533Y-110753286D02*
X232367057Y-110753286D01*
X232367057Y-110753286D02*
X232214676Y-110715190D01*
X232214676Y-110715190D02*
X232138485Y-110677095D01*
X232138485Y-110677095D02*
X232100390Y-110639000D01*
X232100390Y-110639000D02*
X232062295Y-110562809D01*
X232062295Y-109800904D02*
X232062295Y-109724714D01*
X232062295Y-109724714D02*
X232100390Y-109648523D01*
X232100390Y-109648523D02*
X232138485Y-109610428D01*
X232138485Y-109610428D02*
X232214676Y-109572333D01*
X232214676Y-109572333D02*
X232367057Y-109534238D01*
X232367057Y-109534238D02*
X232557533Y-109534238D01*
X232557533Y-109534238D02*
X232709914Y-109572333D01*
X232709914Y-109572333D02*
X232786104Y-109610428D01*
X232786104Y-109610428D02*
X232824200Y-109648523D01*
X232824200Y-109648523D02*
X232862295Y-109724714D01*
X232862295Y-109724714D02*
X232862295Y-109800904D01*
X232862295Y-109800904D02*
X232824200Y-109877095D01*
X232824200Y-109877095D02*
X232786104Y-109915190D01*
X232786104Y-109915190D02*
X232709914Y-109953285D01*
X232709914Y-109953285D02*
X232557533Y-109991381D01*
X232557533Y-109991381D02*
X232367057Y-109991381D01*
X232367057Y-109991381D02*
X232214676Y-109953285D01*
X232214676Y-109953285D02*
X232138485Y-109915190D01*
X232138485Y-109915190D02*
X232100390Y-109877095D01*
X232100390Y-109877095D02*
X232062295Y-109800904D01*
X232062295Y-108848523D02*
X232062295Y-109000904D01*
X232062295Y-109000904D02*
X232100390Y-109077095D01*
X232100390Y-109077095D02*
X232138485Y-109115190D01*
X232138485Y-109115190D02*
X232252771Y-109191380D01*
X232252771Y-109191380D02*
X232405152Y-109229476D01*
X232405152Y-109229476D02*
X232709914Y-109229476D01*
X232709914Y-109229476D02*
X232786104Y-109191380D01*
X232786104Y-109191380D02*
X232824200Y-109153285D01*
X232824200Y-109153285D02*
X232862295Y-109077095D01*
X232862295Y-109077095D02*
X232862295Y-108924714D01*
X232862295Y-108924714D02*
X232824200Y-108848523D01*
X232824200Y-108848523D02*
X232786104Y-108810428D01*
X232786104Y-108810428D02*
X232709914Y-108772333D01*
X232709914Y-108772333D02*
X232519438Y-108772333D01*
X232519438Y-108772333D02*
X232443247Y-108810428D01*
X232443247Y-108810428D02*
X232405152Y-108848523D01*
X232405152Y-108848523D02*
X232367057Y-108924714D01*
X232367057Y-108924714D02*
X232367057Y-109077095D01*
X232367057Y-109077095D02*
X232405152Y-109153285D01*
X232405152Y-109153285D02*
X232443247Y-109191380D01*
X232443247Y-109191380D02*
X232519438Y-109229476D01*
X232862295Y-121326095D02*
X232481342Y-121592762D01*
X232862295Y-121783238D02*
X232062295Y-121783238D01*
X232062295Y-121783238D02*
X232062295Y-121478476D01*
X232062295Y-121478476D02*
X232100390Y-121402286D01*
X232100390Y-121402286D02*
X232138485Y-121364191D01*
X232138485Y-121364191D02*
X232214676Y-121326095D01*
X232214676Y-121326095D02*
X232328961Y-121326095D01*
X232328961Y-121326095D02*
X232405152Y-121364191D01*
X232405152Y-121364191D02*
X232443247Y-121402286D01*
X232443247Y-121402286D02*
X232481342Y-121478476D01*
X232481342Y-121478476D02*
X232481342Y-121783238D01*
X232633723Y-121021334D02*
X232633723Y-120640381D01*
X232862295Y-121097524D02*
X232062295Y-120830857D01*
X232062295Y-120830857D02*
X232862295Y-120564191D01*
X232062295Y-120373715D02*
X232862295Y-120183239D01*
X232862295Y-120183239D02*
X232290866Y-120030858D01*
X232290866Y-120030858D02*
X232862295Y-119878477D01*
X232862295Y-119878477D02*
X232062295Y-119688001D01*
X108166666Y-138854819D02*
X107833333Y-138378628D01*
X107595238Y-138854819D02*
X107595238Y-137854819D01*
X107595238Y-137854819D02*
X107976190Y-137854819D01*
X107976190Y-137854819D02*
X108071428Y-137902438D01*
X108071428Y-137902438D02*
X108119047Y-137950057D01*
X108119047Y-137950057D02*
X108166666Y-138045295D01*
X108166666Y-138045295D02*
X108166666Y-138188152D01*
X108166666Y-138188152D02*
X108119047Y-138283390D01*
X108119047Y-138283390D02*
X108071428Y-138331009D01*
X108071428Y-138331009D02*
X107976190Y-138378628D01*
X107976190Y-138378628D02*
X107595238Y-138378628D01*
X108595238Y-138331009D02*
X108928571Y-138331009D01*
X109071428Y-138854819D02*
X108595238Y-138854819D01*
X108595238Y-138854819D02*
X108595238Y-137854819D01*
X108595238Y-137854819D02*
X109071428Y-137854819D01*
X109833333Y-138331009D02*
X109500000Y-138331009D01*
X109500000Y-138854819D02*
X109500000Y-137854819D01*
X109500000Y-137854819D02*
X109976190Y-137854819D01*
X110500000Y-137854819D02*
X110500000Y-138092914D01*
X110261905Y-137997676D02*
X110500000Y-138092914D01*
X110500000Y-138092914D02*
X110738095Y-137997676D01*
X110357143Y-138283390D02*
X110500000Y-138092914D01*
X110500000Y-138092914D02*
X110642857Y-138283390D01*
X111261905Y-137854819D02*
X111261905Y-138092914D01*
X111023810Y-137997676D02*
X111261905Y-138092914D01*
X111261905Y-138092914D02*
X111500000Y-137997676D01*
X111119048Y-138283390D02*
X111261905Y-138092914D01*
X111261905Y-138092914D02*
X111404762Y-138283390D01*
%TO.C,D3*%
D12*
X108750000Y-170400000D02*
X109150000Y-170400000D01*
X109150000Y-170400000D02*
X109150000Y-169850000D01*
X109150000Y-170400000D02*
X109150000Y-170950000D01*
X109150000Y-170400000D02*
X109750000Y-170000000D01*
X109750000Y-170000000D02*
X109750000Y-170800000D01*
X109750000Y-170400000D02*
X110250000Y-170400000D01*
X109750000Y-170800000D02*
X109150000Y-170400000D01*
%TO.C,D23*%
X198250000Y-188200000D02*
X198650000Y-188200000D01*
X198650000Y-188200000D02*
X198650000Y-187650000D01*
X198650000Y-188200000D02*
X198650000Y-188750000D01*
X198650000Y-188200000D02*
X199250000Y-187800000D01*
X199250000Y-187800000D02*
X199250000Y-188600000D01*
X199250000Y-188200000D02*
X199750000Y-188200000D01*
X199250000Y-188600000D02*
X198650000Y-188200000D01*
%TO.C,D32*%
X218050000Y-227800000D02*
X218450000Y-227800000D01*
X218450000Y-227800000D02*
X218450000Y-227250000D01*
X218450000Y-227800000D02*
X218450000Y-228350000D01*
X218450000Y-227800000D02*
X219050000Y-227400000D01*
X219050000Y-227400000D02*
X219050000Y-228200000D01*
X219050000Y-227800000D02*
X219550000Y-227800000D01*
X219050000Y-228200000D02*
X218450000Y-227800000D01*
%TO.C,D7*%
X119050000Y-130800000D02*
X119450000Y-130800000D01*
X119450000Y-130800000D02*
X119450000Y-130250000D01*
X119450000Y-130800000D02*
X119450000Y-131350000D01*
X119450000Y-130800000D02*
X120050000Y-130400000D01*
X120050000Y-130400000D02*
X120050000Y-131200000D01*
X120050000Y-130800000D02*
X120550000Y-130800000D01*
X120050000Y-131200000D02*
X119450000Y-130800000D01*
%TO.C,D11*%
X138850000Y-146600000D02*
X139250000Y-146600000D01*
X139250000Y-146600000D02*
X139250000Y-146050000D01*
X139250000Y-146600000D02*
X139250000Y-147150000D01*
X139250000Y-146600000D02*
X139850000Y-146200000D01*
X139850000Y-146200000D02*
X139850000Y-147000000D01*
X139850000Y-146600000D02*
X140350000Y-146600000D01*
X139850000Y-147000000D02*
X139250000Y-146600000D01*
%TO.C,D29*%
X218050000Y-148600000D02*
X218450000Y-148600000D01*
X218450000Y-148600000D02*
X218450000Y-148050000D01*
X218450000Y-148600000D02*
X218450000Y-149150000D01*
X218450000Y-148600000D02*
X219050000Y-148200000D01*
X219050000Y-148200000D02*
X219050000Y-149000000D01*
X219050000Y-148600000D02*
X219550000Y-148600000D01*
X219050000Y-149000000D02*
X218450000Y-148600000D01*
%TO.C,D26*%
X198250000Y-128800000D02*
X198650000Y-128800000D01*
X198650000Y-128800000D02*
X198650000Y-128250000D01*
X198650000Y-128800000D02*
X198650000Y-129350000D01*
X198650000Y-128800000D02*
X199250000Y-128400000D01*
X199250000Y-128400000D02*
X199250000Y-129200000D01*
X199250000Y-128800000D02*
X199750000Y-128800000D01*
X199250000Y-129200000D02*
X198650000Y-128800000D01*
%TO.C,D30*%
X218050000Y-128800000D02*
X218450000Y-128800000D01*
X218450000Y-128800000D02*
X218450000Y-128250000D01*
X218450000Y-128800000D02*
X218450000Y-129350000D01*
X218450000Y-128800000D02*
X219050000Y-128400000D01*
X219050000Y-128400000D02*
X219050000Y-129200000D01*
X219050000Y-128800000D02*
X219550000Y-128800000D01*
X219050000Y-129200000D02*
X218450000Y-128800000D01*
%TO.C,D25*%
X198250000Y-148600000D02*
X198650000Y-148600000D01*
X198650000Y-148600000D02*
X198650000Y-148050000D01*
X198650000Y-148600000D02*
X198650000Y-149150000D01*
X198650000Y-148600000D02*
X199250000Y-148200000D01*
X199250000Y-148200000D02*
X199250000Y-149000000D01*
X199250000Y-148600000D02*
X199750000Y-148600000D01*
X199250000Y-149000000D02*
X198650000Y-148600000D01*
%TO.C,D12*%
X138850000Y-126800000D02*
X139250000Y-126800000D01*
X139250000Y-126800000D02*
X139250000Y-126250000D01*
X139250000Y-126800000D02*
X139250000Y-127350000D01*
X139250000Y-126800000D02*
X139850000Y-126400000D01*
X139850000Y-126400000D02*
X139850000Y-127200000D01*
X139850000Y-126800000D02*
X140350000Y-126800000D01*
X139850000Y-127200000D02*
X139250000Y-126800000D01*
%TO.C,D31*%
X198250000Y-227800000D02*
X198650000Y-227800000D01*
X198650000Y-227800000D02*
X198650000Y-227250000D01*
X198650000Y-227800000D02*
X198650000Y-228350000D01*
X198650000Y-227800000D02*
X199250000Y-227400000D01*
X199250000Y-227400000D02*
X199250000Y-228200000D01*
X199250000Y-227800000D02*
X199750000Y-227800000D01*
X199250000Y-228200000D02*
X198650000Y-227800000D01*
%TO.C,D5*%
X99250000Y-130800000D02*
X99650000Y-130800000D01*
X99650000Y-130800000D02*
X99650000Y-130250000D01*
X99650000Y-130800000D02*
X99650000Y-131350000D01*
X99650000Y-130800000D02*
X100250000Y-130400000D01*
X100250000Y-130400000D02*
X100250000Y-131200000D01*
X100250000Y-130800000D02*
X100750000Y-130800000D01*
X100250000Y-131200000D02*
X99650000Y-130800000D01*
%TO.C,D22*%
X198250000Y-208000000D02*
X198650000Y-208000000D01*
X198650000Y-208000000D02*
X198650000Y-207450000D01*
X198650000Y-208000000D02*
X198650000Y-208550000D01*
X198650000Y-208000000D02*
X199250000Y-207600000D01*
X199250000Y-207600000D02*
X199250000Y-208400000D01*
X199250000Y-208000000D02*
X199750000Y-208000000D01*
X199250000Y-208400000D02*
X198650000Y-208000000D01*
%TO.C,D14*%
X158650000Y-184200000D02*
X159050000Y-184200000D01*
X159050000Y-184200000D02*
X159050000Y-183650000D01*
X159050000Y-184200000D02*
X159050000Y-184750000D01*
X159050000Y-184200000D02*
X159650000Y-183800000D01*
X159650000Y-183800000D02*
X159650000Y-184600000D01*
X159650000Y-184200000D02*
X160150000Y-184200000D01*
X159650000Y-184600000D02*
X159050000Y-184200000D01*
%TO.C,D13*%
X158650000Y-204000000D02*
X159050000Y-204000000D01*
X159050000Y-204000000D02*
X159050000Y-203450000D01*
X159050000Y-204000000D02*
X159050000Y-204550000D01*
X159050000Y-204000000D02*
X159650000Y-203600000D01*
X159650000Y-203600000D02*
X159650000Y-204400000D01*
X159650000Y-204000000D02*
X160150000Y-204000000D01*
X159650000Y-204400000D02*
X159050000Y-204000000D01*
%TO.C,D19*%
X178450000Y-166400000D02*
X178850000Y-166400000D01*
X178850000Y-166400000D02*
X178850000Y-165850000D01*
X178850000Y-166400000D02*
X178850000Y-166950000D01*
X178850000Y-166400000D02*
X179450000Y-166000000D01*
X179450000Y-166000000D02*
X179450000Y-166800000D01*
X179450000Y-166400000D02*
X179950000Y-166400000D01*
X179450000Y-166800000D02*
X178850000Y-166400000D01*
%TO.C,D10*%
X138850000Y-166400000D02*
X139250000Y-166400000D01*
X139250000Y-166400000D02*
X139250000Y-165850000D01*
X139250000Y-166400000D02*
X139250000Y-166950000D01*
X139250000Y-166400000D02*
X139850000Y-166000000D01*
X139850000Y-166000000D02*
X139850000Y-166800000D01*
X139850000Y-166400000D02*
X140350000Y-166400000D01*
X139850000Y-166800000D02*
X139250000Y-166400000D01*
%TO.C,D8*%
X138850000Y-206000000D02*
X139250000Y-206000000D01*
X139250000Y-206000000D02*
X139250000Y-205450000D01*
X139250000Y-206000000D02*
X139250000Y-206550000D01*
X139250000Y-206000000D02*
X139850000Y-205600000D01*
X139850000Y-205600000D02*
X139850000Y-206400000D01*
X139850000Y-206000000D02*
X140350000Y-206000000D01*
X139850000Y-206400000D02*
X139250000Y-206000000D01*
%TO.C,D16*%
X158650000Y-144600000D02*
X159050000Y-144600000D01*
X159050000Y-144600000D02*
X159050000Y-144050000D01*
X159050000Y-144600000D02*
X159050000Y-145150000D01*
X159050000Y-144600000D02*
X159650000Y-144200000D01*
X159650000Y-144200000D02*
X159650000Y-145000000D01*
X159650000Y-144600000D02*
X160150000Y-144600000D01*
X159650000Y-145000000D02*
X159050000Y-144600000D01*
%TO.C,D24*%
X198250000Y-168400000D02*
X198650000Y-168400000D01*
X198650000Y-168400000D02*
X198650000Y-167850000D01*
X198650000Y-168400000D02*
X198650000Y-168950000D01*
X198650000Y-168400000D02*
X199250000Y-168000000D01*
X199250000Y-168000000D02*
X199250000Y-168800000D01*
X199250000Y-168400000D02*
X199750000Y-168400000D01*
X199250000Y-168800000D02*
X198650000Y-168400000D01*
%TO.C,D9*%
X138850000Y-186200000D02*
X139250000Y-186200000D01*
X139250000Y-186200000D02*
X139250000Y-185650000D01*
X139250000Y-186200000D02*
X139250000Y-186750000D01*
X139250000Y-186200000D02*
X139850000Y-185800000D01*
X139850000Y-185800000D02*
X139850000Y-186600000D01*
X139850000Y-186200000D02*
X140350000Y-186200000D01*
X139850000Y-186600000D02*
X139250000Y-186200000D01*
%TO.C,D20*%
X178450000Y-146600000D02*
X178850000Y-146600000D01*
X178850000Y-146600000D02*
X178850000Y-146050000D01*
X178850000Y-146600000D02*
X178850000Y-147150000D01*
X178850000Y-146600000D02*
X179450000Y-146200000D01*
X179450000Y-146200000D02*
X179450000Y-147000000D01*
X179450000Y-146600000D02*
X179950000Y-146600000D01*
X179450000Y-147000000D02*
X178850000Y-146600000D01*
%TO.C,MCU1*%
D13*
X203290000Y-106410000D02*
X203290000Y-124190000D01*
X203290000Y-124190000D02*
X236310000Y-124190000D01*
X236310000Y-106410000D02*
X203290000Y-106410000D01*
X236310000Y-124190000D02*
X236310000Y-106410000D01*
%TO.C,D6*%
D12*
X119050000Y-190200000D02*
X119450000Y-190200000D01*
X119450000Y-190200000D02*
X119450000Y-189650000D01*
X119450000Y-190200000D02*
X119450000Y-190750000D01*
X119450000Y-190200000D02*
X120050000Y-189800000D01*
X120050000Y-189800000D02*
X120050000Y-190600000D01*
X120050000Y-190200000D02*
X120550000Y-190200000D01*
X120050000Y-190600000D02*
X119450000Y-190200000D01*
%TO.C,D28*%
X218050000Y-168400000D02*
X218450000Y-168400000D01*
X218450000Y-168400000D02*
X218450000Y-167850000D01*
X218450000Y-168400000D02*
X218450000Y-168950000D01*
X218450000Y-168400000D02*
X219050000Y-168000000D01*
X219050000Y-168000000D02*
X219050000Y-168800000D01*
X219050000Y-168400000D02*
X219550000Y-168400000D01*
X219050000Y-168800000D02*
X218450000Y-168400000D01*
%TO.C,D27*%
X218050000Y-188200000D02*
X218450000Y-188200000D01*
X218450000Y-188200000D02*
X218450000Y-187650000D01*
X218450000Y-188200000D02*
X218450000Y-188750000D01*
X218450000Y-188200000D02*
X219050000Y-187800000D01*
X219050000Y-187800000D02*
X219050000Y-188600000D01*
X219050000Y-188200000D02*
X219550000Y-188200000D01*
X219050000Y-188600000D02*
X218450000Y-188200000D01*
%TO.C,D4*%
X108750000Y-150600000D02*
X109150000Y-150600000D01*
X109150000Y-150600000D02*
X109150000Y-150050000D01*
X109150000Y-150600000D02*
X109150000Y-151150000D01*
X109150000Y-150600000D02*
X109750000Y-150200000D01*
X109750000Y-150200000D02*
X109750000Y-151000000D01*
X109750000Y-150600000D02*
X110250000Y-150600000D01*
X109750000Y-151000000D02*
X109150000Y-150600000D01*
%TO.C,D1*%
X108750000Y-210000000D02*
X109150000Y-210000000D01*
X109150000Y-210000000D02*
X109150000Y-209450000D01*
X109150000Y-210000000D02*
X109150000Y-210550000D01*
X109150000Y-210000000D02*
X109750000Y-209600000D01*
X109750000Y-209600000D02*
X109750000Y-210400000D01*
X109750000Y-210000000D02*
X110250000Y-210000000D01*
X109750000Y-210400000D02*
X109150000Y-210000000D01*
%TO.C,D15*%
X158650000Y-164400000D02*
X159050000Y-164400000D01*
X159050000Y-164400000D02*
X159050000Y-163850000D01*
X159050000Y-164400000D02*
X159050000Y-164950000D01*
X159050000Y-164400000D02*
X159650000Y-164000000D01*
X159650000Y-164000000D02*
X159650000Y-164800000D01*
X159650000Y-164400000D02*
X160150000Y-164400000D01*
X159650000Y-164800000D02*
X159050000Y-164400000D01*
%TO.C,D18*%
X178450000Y-186200000D02*
X178850000Y-186200000D01*
X178850000Y-186200000D02*
X178850000Y-185650000D01*
X178850000Y-186200000D02*
X178850000Y-186750000D01*
X178850000Y-186200000D02*
X179450000Y-185800000D01*
X179450000Y-185800000D02*
X179450000Y-186600000D01*
X179450000Y-186200000D02*
X179950000Y-186200000D01*
X179450000Y-186600000D02*
X178850000Y-186200000D01*
%TO.C,D21*%
X178450000Y-126800000D02*
X178850000Y-126800000D01*
X178850000Y-126800000D02*
X178850000Y-126250000D01*
X178850000Y-126800000D02*
X178850000Y-127350000D01*
X178850000Y-126800000D02*
X179450000Y-126400000D01*
X179450000Y-126400000D02*
X179450000Y-127200000D01*
X179450000Y-126800000D02*
X179950000Y-126800000D01*
X179450000Y-127200000D02*
X178850000Y-126800000D01*
%TO.C,D2*%
X99250000Y-190200000D02*
X99650000Y-190200000D01*
X99650000Y-190200000D02*
X99650000Y-189650000D01*
X99650000Y-190200000D02*
X99650000Y-190750000D01*
X99650000Y-190200000D02*
X100250000Y-189800000D01*
X100250000Y-189800000D02*
X100250000Y-190600000D01*
X100250000Y-190200000D02*
X100750000Y-190200000D01*
X100250000Y-190600000D02*
X99650000Y-190200000D01*
%TO.C,D17*%
X158650000Y-124800000D02*
X159050000Y-124800000D01*
X159050000Y-124800000D02*
X159050000Y-124250000D01*
X159050000Y-124800000D02*
X159050000Y-125350000D01*
X159050000Y-124800000D02*
X159650000Y-124400000D01*
X159650000Y-124400000D02*
X159650000Y-125200000D01*
X159650000Y-124800000D02*
X160150000Y-124800000D01*
X159650000Y-125200000D02*
X159050000Y-124800000D01*
%TD*%
D14*
%TO.C,SW1*%
X182500000Y-103070000D03*
X182500000Y-100530000D03*
%TD*%
D15*
%TO.C,*%
X182450000Y-212000000D03*
%TD*%
%TO.C,*%
X231800000Y-102800000D03*
%TD*%
%TO.C,*%
X87000000Y-212000000D03*
%TD*%
D14*
%TO.C,SW2*%
X189000000Y-105070000D03*
X189000000Y-102530000D03*
%TD*%
%TO.C,MCU1*%
X232500000Y-107680000D03*
X229960000Y-107680000D03*
X227420000Y-107680000D03*
X224880000Y-107680000D03*
X222340000Y-107680000D03*
X219800000Y-107680000D03*
X217260000Y-107680000D03*
X214720000Y-107680000D03*
X212180000Y-107680000D03*
X209640000Y-107680000D03*
X207100000Y-107680000D03*
X204560000Y-107680000D03*
X204560000Y-122920000D03*
X207100000Y-122920000D03*
X209640000Y-122920000D03*
X212180000Y-122920000D03*
X214720000Y-122920000D03*
X217260000Y-122920000D03*
X219800000Y-122920000D03*
X222340000Y-122920000D03*
X224880000Y-122920000D03*
X227420000Y-122920000D03*
X229960000Y-122920000D03*
X232500000Y-122920000D03*
X209640000Y-110220000D03*
X209640000Y-112760000D03*
X209640000Y-115300000D03*
%TD*%
D15*
%TO.C,*%
X169200000Y-145875000D03*
%TD*%
%TO.C,*%
X87000000Y-102800000D03*
%TD*%
%TO.C,*%
X232050000Y-212000000D03*
%TD*%
M02*
