M48
; DRILL file KiCad 10.0.0 date 2026-03-28T23:53:14
; FORMAT={-:-/ absolute / metric / decimal}
; #@! TF.CreationDate,2026-03-28T23:53:14+01:00
; #@! TF.GenerationSoftware,Kicad,Pcbnew,10.0.0
; #@! TF.FileFunction,Plated,1,2,PTH
FMAT,2
METRIC
; #@! TA.AperFunction,Plated,PTH,ComponentDrill
T1C0.750
; #@! TA.AperFunction,Plated,PTH,ComponentDrill
T2C0.991
; #@! TA.AperFunction,Plated,PTH,ComponentDrill
T3C1.092
%
G90
G05
T1
X176.2Y-102.8
X176.2Y-104.8
T2
X96.19Y-130.8
X96.19Y-190.2
X103.81Y-130.8
X103.81Y-190.2
X105.69Y-150.6
X105.69Y-170.4
X105.69Y-210.0
X113.31Y-150.6
X113.31Y-170.4
X113.31Y-210.0
X115.99Y-130.8
X115.99Y-190.2
X123.61Y-130.8
X123.61Y-190.2
X135.79Y-126.8
X135.79Y-146.6
X135.79Y-166.4
X135.79Y-186.2
X135.79Y-206.0
X143.41Y-126.8
X143.41Y-146.6
X143.41Y-166.4
X143.41Y-186.2
X143.41Y-206.0
X155.59Y-124.8
X155.59Y-144.6
X155.59Y-164.4
X155.59Y-184.2
X155.59Y-204.0
X163.21Y-124.8
X163.21Y-144.6
X163.21Y-164.4
X163.21Y-184.2
X163.21Y-204.0
X175.39Y-126.8
X175.39Y-146.6
X175.39Y-166.4
X175.39Y-186.2
X183.01Y-126.8
X183.01Y-146.6
X183.01Y-166.4
X183.01Y-186.2
X195.19Y-128.8
X195.19Y-148.6
X195.19Y-168.4
X195.19Y-188.2
X195.19Y-208.0
X195.19Y-227.8
X202.81Y-128.8
X202.81Y-148.6
X202.81Y-168.4
X202.81Y-188.2
X202.81Y-208.0
X202.81Y-227.8
X214.99Y-128.8
X214.99Y-148.6
X214.99Y-168.4
X214.99Y-188.2
X214.99Y-227.8
X222.61Y-128.8
X222.61Y-148.6
X222.61Y-168.4
X222.61Y-188.2
X222.61Y-227.8
T3
X182.5Y-100.53
X182.5Y-103.07
X189.0Y-102.53
X189.0Y-105.07
X204.56Y-107.68
X204.56Y-122.92
X207.1Y-107.68
X207.1Y-122.92
X209.64Y-107.68
X209.64Y-110.22
X209.64Y-112.76
X209.64Y-115.3
X209.64Y-122.92
X212.18Y-107.68
X212.18Y-122.92
X214.72Y-107.68
X214.72Y-122.92
X217.26Y-107.68
X217.26Y-122.92
X219.8Y-107.68
X219.8Y-122.92
X222.34Y-107.68
X222.34Y-122.92
X224.88Y-107.68
X224.88Y-122.92
X227.42Y-107.68
X227.42Y-122.92
X229.96Y-107.68
X229.96Y-122.92
X232.5Y-107.68
X232.5Y-122.92
M30
