M48
; DRILL file KiCad 10.0.0 date 2026-03-28T23:53:35
; FORMAT={-:-/ absolute / metric / decimal}
; #@! TF.CreationDate,2026-03-28T23:53:35+01:00
; #@! TF.GenerationSoftware,Kicad,Pcbnew,10.0.0
; #@! TF.FileFunction,Plated,1,2,PTH
FMAT,2
METRIC
; #@! TA.AperFunction,Plated,PTH,ComponentDrill
T1C0.750
; #@! TA.AperFunction,Plated,PTH,ComponentDrill
T2C0.991
; #@! TA.AperFunction,Plated,PTH,ComponentDrill
T3C1.092
%
G90
G05
T1
X142.6Y-104.8
X142.6Y-106.8
T2
X96.19Y-130.8
X96.19Y-150.6
X96.19Y-170.4
X96.19Y-190.2
X103.81Y-130.8
X103.81Y-150.6
X103.81Y-170.4
X103.81Y-190.2
X115.99Y-130.8
X115.99Y-150.6
X115.99Y-170.4
X115.99Y-190.2
X115.99Y-210.0
X123.61Y-130.8
X123.61Y-150.6
X123.61Y-170.4
X123.61Y-190.2
X123.61Y-210.0
X135.79Y-128.8
X135.79Y-148.6
X135.79Y-168.4
X135.79Y-188.2
X143.41Y-128.8
X143.41Y-148.6
X143.41Y-168.4
X143.41Y-188.2
X155.59Y-126.8
X155.59Y-146.6
X155.59Y-166.4
X155.59Y-186.2
X155.59Y-206.0
X163.21Y-126.8
X163.21Y-146.6
X163.21Y-166.4
X163.21Y-186.2
X163.21Y-206.0
X175.39Y-128.8
X175.39Y-148.6
X175.39Y-168.4
X175.39Y-188.2
X175.39Y-208.0
X183.01Y-128.8
X183.01Y-148.6
X183.01Y-168.4
X183.01Y-188.2
X183.01Y-208.0
X195.19Y-132.8
X195.19Y-152.6
X195.19Y-172.4
X195.19Y-192.2
X195.19Y-212.0
X202.81Y-132.8
X202.81Y-152.6
X202.81Y-172.4
X202.81Y-192.2
X202.81Y-212.0
X214.99Y-152.6
X214.99Y-172.4
X214.99Y-192.2
X214.99Y-212.0
X222.61Y-152.6
X222.61Y-172.4
X222.61Y-192.2
X222.61Y-212.0
X225.265Y-132.8
X232.885Y-132.8
X234.79Y-192.2
X234.79Y-212.0
X242.41Y-192.2
X242.41Y-212.0
X248.5Y-147.54
X248.5Y-155.16
T3
X86.03Y-109.68
X86.03Y-124.92
X88.57Y-109.68
X88.57Y-124.92
X91.11Y-109.68
X91.11Y-124.92
X93.65Y-109.68
X93.65Y-124.92
X96.19Y-109.68
X96.19Y-124.92
X98.73Y-109.68
X98.73Y-124.92
X101.27Y-109.68
X101.27Y-124.92
X103.81Y-109.68
X103.81Y-124.92
X106.35Y-109.68
X106.35Y-124.92
X108.89Y-109.68
X108.89Y-117.3
X108.89Y-119.84
X108.89Y-122.38
X108.89Y-124.92
X111.43Y-109.68
X111.43Y-124.92
X113.97Y-109.68
X113.97Y-124.92
X129.8Y-102.53
X129.8Y-105.07
X133.8Y-102.53
X133.8Y-105.07
M30
