M48
; DRILL file KiCad 10.0.0 date 2026-03-28T23:53:35
; FORMAT={-:-/ absolute / metric / decimal}
; #@! TF.CreationDate,2026-03-28T23:53:35+01:00
; #@! TF.GenerationSoftware,Kicad,Pcbnew,10.0.0
; #@! TF.FileFunction,NonPlated,1,2,NPTH
FMAT,2
METRIC
; #@! TA.AperFunction,NonPlated,NPTH,ComponentDrill
T1C1.702
; #@! TA.AperFunction,NonPlated,NPTH,ComponentDrill
T2C3.000
; #@! TA.AperFunction,NonPlated,NPTH,ComponentDrill
T3C3.048
; #@! TA.AperFunction,NonPlated,NPTH,ComponentDrill
T4C3.988
; #@! TA.AperFunction,NonPlated,NPTH,ComponentDrill
T5C4.000
%
G90
G05
T1
X94.92Y-120.8
X94.92Y-140.6
X94.92Y-160.4
X94.92Y-180.2
X105.08Y-120.8
X105.08Y-140.6
X105.08Y-160.4
X105.08Y-180.2
X114.72Y-120.8
X114.72Y-140.6
X114.72Y-160.4
X114.72Y-180.2
X114.72Y-200.0
X124.88Y-120.8
X124.88Y-140.6
X124.88Y-160.4
X124.88Y-180.2
X124.88Y-200.0
X134.52Y-118.8
X134.52Y-138.6
X134.52Y-158.4
X134.52Y-178.2
X144.68Y-118.8
X144.68Y-138.6
X144.68Y-158.4
X144.68Y-178.2
X154.32Y-116.8
X154.32Y-136.6
X154.32Y-156.4
X154.32Y-176.2
X154.32Y-196.0
X164.48Y-116.8
X164.48Y-136.6
X164.48Y-156.4
X164.48Y-176.2
X164.48Y-196.0
X174.12Y-118.8
X174.12Y-138.6
X174.12Y-158.4
X174.12Y-178.2
X174.12Y-198.0
X184.28Y-118.8
X184.28Y-138.6
X184.28Y-158.4
X184.28Y-178.2
X184.28Y-198.0
X193.92Y-122.8
X193.92Y-142.6
X193.92Y-162.4
X193.92Y-182.2
X193.92Y-202.0
X204.08Y-122.8
X204.08Y-142.6
X204.08Y-162.4
X204.08Y-182.2
X204.08Y-202.0
X213.72Y-142.6
X213.72Y-162.4
X213.72Y-182.2
X213.72Y-202.0
X223.88Y-142.6
X223.88Y-162.4
X223.88Y-182.2
X223.88Y-202.0
X223.995Y-122.8
X233.52Y-152.125
X233.52Y-182.2
X233.52Y-202.0
X234.155Y-122.8
X243.68Y-152.125
X243.68Y-182.2
X243.68Y-202.0
T2
X96.19Y-118.26
X96.19Y-138.06
X96.19Y-157.86
X96.19Y-177.66
X102.54Y-115.72
X102.54Y-135.52
X102.54Y-155.32
X102.54Y-175.12
X115.99Y-118.26
X115.99Y-138.06
X115.99Y-157.86
X115.99Y-177.66
X115.99Y-197.46
X122.34Y-115.72
X122.34Y-135.52
X122.34Y-155.32
X122.34Y-175.12
X122.34Y-194.92
X135.79Y-116.26
X135.79Y-136.06
X135.79Y-155.86
X135.79Y-175.66
X142.14Y-113.72
X142.14Y-133.52
X142.14Y-153.32
X142.14Y-173.12
X155.59Y-114.26
X155.59Y-134.06
X155.59Y-153.86
X155.59Y-173.66
X155.59Y-193.46
X161.94Y-111.72
X161.94Y-131.52
X161.94Y-151.32
X161.94Y-171.12
X161.94Y-190.92
X175.39Y-116.26
X175.39Y-136.06
X175.39Y-155.86
X175.39Y-175.66
X175.39Y-195.46
X181.74Y-113.72
X181.74Y-133.52
X181.74Y-153.32
X181.74Y-173.12
X181.74Y-192.92
X195.19Y-120.26
X195.19Y-140.06
X195.19Y-159.86
X195.19Y-179.66
X195.19Y-199.46
X201.54Y-117.72
X201.54Y-137.52
X201.54Y-157.32
X201.54Y-177.12
X201.54Y-196.92
X214.99Y-140.06
X214.99Y-159.86
X214.99Y-179.66
X214.99Y-199.46
X221.34Y-137.52
X221.34Y-157.32
X221.34Y-177.12
X221.34Y-196.92
X225.265Y-120.26
X231.615Y-117.72
X234.79Y-149.585
X234.79Y-179.66
X234.79Y-199.46
X241.14Y-147.045
X241.14Y-177.12
X241.14Y-196.92
T3
X88.062Y-133.615
X100.75Y-193.015
X111.938Y-133.615
X138.85Y-193.015
X217.137Y-115.815
X231.615Y-140.187
X231.615Y-164.063
X241.013Y-115.815
T4
X88.062Y-148.825
X100.0Y-120.8
X100.0Y-140.6
X100.0Y-160.4
X100.0Y-180.2
X100.75Y-208.225
X111.938Y-148.825
X119.8Y-120.8
X119.8Y-140.6
X119.8Y-160.4
X119.8Y-180.2
X119.8Y-200.0
X138.85Y-208.225
X139.6Y-118.8
X139.6Y-138.6
X139.6Y-158.4
X139.6Y-178.2
X159.4Y-116.8
X159.4Y-136.6
X159.4Y-156.4
X159.4Y-176.2
X159.4Y-196.0
X179.2Y-118.8
X179.2Y-138.6
X179.2Y-158.4
X179.2Y-178.2
X179.2Y-198.0
X199.0Y-122.8
X199.0Y-142.6
X199.0Y-162.4
X199.0Y-182.2
X199.0Y-202.0
X217.137Y-131.025
X218.8Y-142.6
X218.8Y-162.4
X218.8Y-182.2
X218.8Y-202.0
X229.075Y-122.8
X238.6Y-152.125
X238.6Y-182.2
X238.6Y-202.0
X241.013Y-131.025
X246.825Y-140.187
X246.825Y-164.063
T5
X87.0Y-104.8
X87.0Y-212.75
X168.9Y-146.875
X251.6Y-104.8
X251.6Y-213.0
M30
