%TF.GenerationSoftware,KiCad,Pcbnew,10.0.0*%
%TF.CreationDate,2026-03-28T23:53:37+01:00*%
%TF.ProjectId,Bifrost_right,42696672-6f73-4745-9f72-696768742e6b,v1.0.0*%
%TF.SameCoordinates,Original*%
%TF.FileFunction,Legend,Bot*%
%TF.FilePolarity,Positive*%
%FSLAX46Y46*%
G04 Gerber Fmt 4.6, Leading zero omitted, Abs format (unit mm)*
G04 Created by KiCad (PCBNEW 10.0.0) date 2026-03-28 23:53:37*
%MOMM*%
%LPD*%
G01*
G04 APERTURE LIST*
%ADD10C,0.150000*%
%ADD11C,0.100000*%
%ADD12C,0.381000*%
%ADD13C,1.752600*%
G04 APERTURE END LIST*
D10*
X86392295Y-111273904D02*
X86011342Y-111007237D01*
X86392295Y-110816761D02*
X85592295Y-110816761D01*
X85592295Y-110816761D02*
X85592295Y-111121523D01*
X85592295Y-111121523D02*
X85630390Y-111197713D01*
X85630390Y-111197713D02*
X85668485Y-111235808D01*
X85668485Y-111235808D02*
X85744676Y-111273904D01*
X85744676Y-111273904D02*
X85858961Y-111273904D01*
X85858961Y-111273904D02*
X85935152Y-111235808D01*
X85935152Y-111235808D02*
X85973247Y-111197713D01*
X85973247Y-111197713D02*
X86011342Y-111121523D01*
X86011342Y-111121523D02*
X86011342Y-110816761D01*
X86163723Y-111578665D02*
X86163723Y-111959618D01*
X86392295Y-111502475D02*
X85592295Y-111769142D01*
X85592295Y-111769142D02*
X86392295Y-112035808D01*
X85592295Y-112226284D02*
X86392295Y-112416760D01*
X86392295Y-112416760D02*
X85820866Y-112569141D01*
X85820866Y-112569141D02*
X86392295Y-112721522D01*
X86392295Y-112721522D02*
X85592295Y-112911999D01*
X88170390Y-111235809D02*
X88132295Y-111159619D01*
X88132295Y-111159619D02*
X88132295Y-111045333D01*
X88132295Y-111045333D02*
X88170390Y-110931047D01*
X88170390Y-110931047D02*
X88246580Y-110854857D01*
X88246580Y-110854857D02*
X88322771Y-110816762D01*
X88322771Y-110816762D02*
X88475152Y-110778666D01*
X88475152Y-110778666D02*
X88589438Y-110778666D01*
X88589438Y-110778666D02*
X88741819Y-110816762D01*
X88741819Y-110816762D02*
X88818009Y-110854857D01*
X88818009Y-110854857D02*
X88894200Y-110931047D01*
X88894200Y-110931047D02*
X88932295Y-111045333D01*
X88932295Y-111045333D02*
X88932295Y-111121524D01*
X88932295Y-111121524D02*
X88894200Y-111235809D01*
X88894200Y-111235809D02*
X88856104Y-111273905D01*
X88856104Y-111273905D02*
X88589438Y-111273905D01*
X88589438Y-111273905D02*
X88589438Y-111121524D01*
X88932295Y-111616762D02*
X88132295Y-111616762D01*
X88132295Y-111616762D02*
X88932295Y-112073905D01*
X88932295Y-112073905D02*
X88132295Y-112073905D01*
X88932295Y-112454857D02*
X88132295Y-112454857D01*
X88132295Y-112454857D02*
X88132295Y-112645333D01*
X88132295Y-112645333D02*
X88170390Y-112759619D01*
X88170390Y-112759619D02*
X88246580Y-112835809D01*
X88246580Y-112835809D02*
X88322771Y-112873904D01*
X88322771Y-112873904D02*
X88475152Y-112912000D01*
X88475152Y-112912000D02*
X88589438Y-112912000D01*
X88589438Y-112912000D02*
X88741819Y-112873904D01*
X88741819Y-112873904D02*
X88818009Y-112835809D01*
X88818009Y-112835809D02*
X88894200Y-112759619D01*
X88894200Y-112759619D02*
X88932295Y-112645333D01*
X88932295Y-112645333D02*
X88932295Y-112454857D01*
X91472295Y-111273905D02*
X91091342Y-111007238D01*
X91472295Y-110816762D02*
X90672295Y-110816762D01*
X90672295Y-110816762D02*
X90672295Y-111121524D01*
X90672295Y-111121524D02*
X90710390Y-111197714D01*
X90710390Y-111197714D02*
X90748485Y-111235809D01*
X90748485Y-111235809D02*
X90824676Y-111273905D01*
X90824676Y-111273905D02*
X90938961Y-111273905D01*
X90938961Y-111273905D02*
X91015152Y-111235809D01*
X91015152Y-111235809D02*
X91053247Y-111197714D01*
X91053247Y-111197714D02*
X91091342Y-111121524D01*
X91091342Y-111121524D02*
X91091342Y-110816762D01*
X91434200Y-111578666D02*
X91472295Y-111692952D01*
X91472295Y-111692952D02*
X91472295Y-111883428D01*
X91472295Y-111883428D02*
X91434200Y-111959619D01*
X91434200Y-111959619D02*
X91396104Y-111997714D01*
X91396104Y-111997714D02*
X91319914Y-112035809D01*
X91319914Y-112035809D02*
X91243723Y-112035809D01*
X91243723Y-112035809D02*
X91167533Y-111997714D01*
X91167533Y-111997714D02*
X91129438Y-111959619D01*
X91129438Y-111959619D02*
X91091342Y-111883428D01*
X91091342Y-111883428D02*
X91053247Y-111731047D01*
X91053247Y-111731047D02*
X91015152Y-111654857D01*
X91015152Y-111654857D02*
X90977057Y-111616762D01*
X90977057Y-111616762D02*
X90900866Y-111578666D01*
X90900866Y-111578666D02*
X90824676Y-111578666D01*
X90824676Y-111578666D02*
X90748485Y-111616762D01*
X90748485Y-111616762D02*
X90710390Y-111654857D01*
X90710390Y-111654857D02*
X90672295Y-111731047D01*
X90672295Y-111731047D02*
X90672295Y-111921524D01*
X90672295Y-111921524D02*
X90710390Y-112035809D01*
X90672295Y-112264381D02*
X90672295Y-112721524D01*
X91472295Y-112492952D02*
X90672295Y-112492952D01*
X93212295Y-110696142D02*
X94012295Y-110962809D01*
X94012295Y-110962809D02*
X93212295Y-111229475D01*
X93936104Y-111953285D02*
X93974200Y-111915189D01*
X93974200Y-111915189D02*
X94012295Y-111800904D01*
X94012295Y-111800904D02*
X94012295Y-111724713D01*
X94012295Y-111724713D02*
X93974200Y-111610427D01*
X93974200Y-111610427D02*
X93898009Y-111534237D01*
X93898009Y-111534237D02*
X93821819Y-111496142D01*
X93821819Y-111496142D02*
X93669438Y-111458046D01*
X93669438Y-111458046D02*
X93555152Y-111458046D01*
X93555152Y-111458046D02*
X93402771Y-111496142D01*
X93402771Y-111496142D02*
X93326580Y-111534237D01*
X93326580Y-111534237D02*
X93250390Y-111610427D01*
X93250390Y-111610427D02*
X93212295Y-111724713D01*
X93212295Y-111724713D02*
X93212295Y-111800904D01*
X93212295Y-111800904D02*
X93250390Y-111915189D01*
X93250390Y-111915189D02*
X93288485Y-111953285D01*
X93936104Y-112753285D02*
X93974200Y-112715189D01*
X93974200Y-112715189D02*
X94012295Y-112600904D01*
X94012295Y-112600904D02*
X94012295Y-112524713D01*
X94012295Y-112524713D02*
X93974200Y-112410427D01*
X93974200Y-112410427D02*
X93898009Y-112334237D01*
X93898009Y-112334237D02*
X93821819Y-112296142D01*
X93821819Y-112296142D02*
X93669438Y-112258046D01*
X93669438Y-112258046D02*
X93555152Y-112258046D01*
X93555152Y-112258046D02*
X93402771Y-112296142D01*
X93402771Y-112296142D02*
X93326580Y-112334237D01*
X93326580Y-112334237D02*
X93250390Y-112410427D01*
X93250390Y-112410427D02*
X93212295Y-112524713D01*
X93212295Y-112524713D02*
X93212295Y-112600904D01*
X93212295Y-112600904D02*
X93250390Y-112715189D01*
X93250390Y-112715189D02*
X93288485Y-112753285D01*
X95752295Y-110962809D02*
X95752295Y-111038999D01*
X95752295Y-111038999D02*
X95790390Y-111115190D01*
X95790390Y-111115190D02*
X95828485Y-111153285D01*
X95828485Y-111153285D02*
X95904676Y-111191380D01*
X95904676Y-111191380D02*
X96057057Y-111229475D01*
X96057057Y-111229475D02*
X96247533Y-111229475D01*
X96247533Y-111229475D02*
X96399914Y-111191380D01*
X96399914Y-111191380D02*
X96476104Y-111153285D01*
X96476104Y-111153285D02*
X96514200Y-111115190D01*
X96514200Y-111115190D02*
X96552295Y-111038999D01*
X96552295Y-111038999D02*
X96552295Y-110962809D01*
X96552295Y-110962809D02*
X96514200Y-110886618D01*
X96514200Y-110886618D02*
X96476104Y-110848523D01*
X96476104Y-110848523D02*
X96399914Y-110810428D01*
X96399914Y-110810428D02*
X96247533Y-110772332D01*
X96247533Y-110772332D02*
X96057057Y-110772332D01*
X96057057Y-110772332D02*
X95904676Y-110810428D01*
X95904676Y-110810428D02*
X95828485Y-110848523D01*
X95828485Y-110848523D02*
X95790390Y-110886618D01*
X95790390Y-110886618D02*
X95752295Y-110962809D01*
X95752295Y-111496142D02*
X95752295Y-111991380D01*
X95752295Y-111991380D02*
X96057057Y-111724714D01*
X96057057Y-111724714D02*
X96057057Y-111838999D01*
X96057057Y-111838999D02*
X96095152Y-111915190D01*
X96095152Y-111915190D02*
X96133247Y-111953285D01*
X96133247Y-111953285D02*
X96209438Y-111991380D01*
X96209438Y-111991380D02*
X96399914Y-111991380D01*
X96399914Y-111991380D02*
X96476104Y-111953285D01*
X96476104Y-111953285D02*
X96514200Y-111915190D01*
X96514200Y-111915190D02*
X96552295Y-111838999D01*
X96552295Y-111838999D02*
X96552295Y-111610428D01*
X96552295Y-111610428D02*
X96514200Y-111534237D01*
X96514200Y-111534237D02*
X96476104Y-111496142D01*
X96552295Y-112753285D02*
X96552295Y-112296142D01*
X96552295Y-112524714D02*
X95752295Y-112524714D01*
X95752295Y-112524714D02*
X95866580Y-112448523D01*
X95866580Y-112448523D02*
X95942771Y-112372333D01*
X95942771Y-112372333D02*
X95980866Y-112296142D01*
X98292295Y-110962809D02*
X98292295Y-111038999D01*
X98292295Y-111038999D02*
X98330390Y-111115190D01*
X98330390Y-111115190D02*
X98368485Y-111153285D01*
X98368485Y-111153285D02*
X98444676Y-111191380D01*
X98444676Y-111191380D02*
X98597057Y-111229475D01*
X98597057Y-111229475D02*
X98787533Y-111229475D01*
X98787533Y-111229475D02*
X98939914Y-111191380D01*
X98939914Y-111191380D02*
X99016104Y-111153285D01*
X99016104Y-111153285D02*
X99054200Y-111115190D01*
X99054200Y-111115190D02*
X99092295Y-111038999D01*
X99092295Y-111038999D02*
X99092295Y-110962809D01*
X99092295Y-110962809D02*
X99054200Y-110886618D01*
X99054200Y-110886618D02*
X99016104Y-110848523D01*
X99016104Y-110848523D02*
X98939914Y-110810428D01*
X98939914Y-110810428D02*
X98787533Y-110772332D01*
X98787533Y-110772332D02*
X98597057Y-110772332D01*
X98597057Y-110772332D02*
X98444676Y-110810428D01*
X98444676Y-110810428D02*
X98368485Y-110848523D01*
X98368485Y-110848523D02*
X98330390Y-110886618D01*
X98330390Y-110886618D02*
X98292295Y-110962809D01*
X98368485Y-111534237D02*
X98330390Y-111572333D01*
X98330390Y-111572333D02*
X98292295Y-111648523D01*
X98292295Y-111648523D02*
X98292295Y-111838999D01*
X98292295Y-111838999D02*
X98330390Y-111915190D01*
X98330390Y-111915190D02*
X98368485Y-111953285D01*
X98368485Y-111953285D02*
X98444676Y-111991380D01*
X98444676Y-111991380D02*
X98520866Y-111991380D01*
X98520866Y-111991380D02*
X98635152Y-111953285D01*
X98635152Y-111953285D02*
X99092295Y-111496142D01*
X99092295Y-111496142D02*
X99092295Y-111991380D01*
X99092295Y-112372333D02*
X99092295Y-112524714D01*
X99092295Y-112524714D02*
X99054200Y-112600904D01*
X99054200Y-112600904D02*
X99016104Y-112639000D01*
X99016104Y-112639000D02*
X98901819Y-112715190D01*
X98901819Y-112715190D02*
X98749438Y-112753285D01*
X98749438Y-112753285D02*
X98444676Y-112753285D01*
X98444676Y-112753285D02*
X98368485Y-112715190D01*
X98368485Y-112715190D02*
X98330390Y-112677095D01*
X98330390Y-112677095D02*
X98292295Y-112600904D01*
X98292295Y-112600904D02*
X98292295Y-112448523D01*
X98292295Y-112448523D02*
X98330390Y-112372333D01*
X98330390Y-112372333D02*
X98368485Y-112334238D01*
X98368485Y-112334238D02*
X98444676Y-112296142D01*
X98444676Y-112296142D02*
X98635152Y-112296142D01*
X98635152Y-112296142D02*
X98711342Y-112334238D01*
X98711342Y-112334238D02*
X98749438Y-112372333D01*
X98749438Y-112372333D02*
X98787533Y-112448523D01*
X98787533Y-112448523D02*
X98787533Y-112600904D01*
X98787533Y-112600904D02*
X98749438Y-112677095D01*
X98749438Y-112677095D02*
X98711342Y-112715190D01*
X98711342Y-112715190D02*
X98635152Y-112753285D01*
X100832295Y-110962809D02*
X100832295Y-111038999D01*
X100832295Y-111038999D02*
X100870390Y-111115190D01*
X100870390Y-111115190D02*
X100908485Y-111153285D01*
X100908485Y-111153285D02*
X100984676Y-111191380D01*
X100984676Y-111191380D02*
X101137057Y-111229475D01*
X101137057Y-111229475D02*
X101327533Y-111229475D01*
X101327533Y-111229475D02*
X101479914Y-111191380D01*
X101479914Y-111191380D02*
X101556104Y-111153285D01*
X101556104Y-111153285D02*
X101594200Y-111115190D01*
X101594200Y-111115190D02*
X101632295Y-111038999D01*
X101632295Y-111038999D02*
X101632295Y-110962809D01*
X101632295Y-110962809D02*
X101594200Y-110886618D01*
X101594200Y-110886618D02*
X101556104Y-110848523D01*
X101556104Y-110848523D02*
X101479914Y-110810428D01*
X101479914Y-110810428D02*
X101327533Y-110772332D01*
X101327533Y-110772332D02*
X101137057Y-110772332D01*
X101137057Y-110772332D02*
X100984676Y-110810428D01*
X100984676Y-110810428D02*
X100908485Y-110848523D01*
X100908485Y-110848523D02*
X100870390Y-110886618D01*
X100870390Y-110886618D02*
X100832295Y-110962809D01*
X100832295Y-111724714D02*
X100832295Y-111800904D01*
X100832295Y-111800904D02*
X100870390Y-111877095D01*
X100870390Y-111877095D02*
X100908485Y-111915190D01*
X100908485Y-111915190D02*
X100984676Y-111953285D01*
X100984676Y-111953285D02*
X101137057Y-111991380D01*
X101137057Y-111991380D02*
X101327533Y-111991380D01*
X101327533Y-111991380D02*
X101479914Y-111953285D01*
X101479914Y-111953285D02*
X101556104Y-111915190D01*
X101556104Y-111915190D02*
X101594200Y-111877095D01*
X101594200Y-111877095D02*
X101632295Y-111800904D01*
X101632295Y-111800904D02*
X101632295Y-111724714D01*
X101632295Y-111724714D02*
X101594200Y-111648523D01*
X101594200Y-111648523D02*
X101556104Y-111610428D01*
X101556104Y-111610428D02*
X101479914Y-111572333D01*
X101479914Y-111572333D02*
X101327533Y-111534237D01*
X101327533Y-111534237D02*
X101137057Y-111534237D01*
X101137057Y-111534237D02*
X100984676Y-111572333D01*
X100984676Y-111572333D02*
X100908485Y-111610428D01*
X100908485Y-111610428D02*
X100870390Y-111648523D01*
X100870390Y-111648523D02*
X100832295Y-111724714D01*
X100908485Y-112296142D02*
X100870390Y-112334238D01*
X100870390Y-112334238D02*
X100832295Y-112410428D01*
X100832295Y-112410428D02*
X100832295Y-112600904D01*
X100832295Y-112600904D02*
X100870390Y-112677095D01*
X100870390Y-112677095D02*
X100908485Y-112715190D01*
X100908485Y-112715190D02*
X100984676Y-112753285D01*
X100984676Y-112753285D02*
X101060866Y-112753285D01*
X101060866Y-112753285D02*
X101175152Y-112715190D01*
X101175152Y-112715190D02*
X101632295Y-112258047D01*
X101632295Y-112258047D02*
X101632295Y-112753285D01*
X104172295Y-111229475D02*
X104172295Y-110772332D01*
X104172295Y-111000904D02*
X103372295Y-111000904D01*
X103372295Y-111000904D02*
X103486580Y-110924713D01*
X103486580Y-110924713D02*
X103562771Y-110848523D01*
X103562771Y-110848523D02*
X103600866Y-110772332D01*
X104172295Y-111991380D02*
X104172295Y-111534237D01*
X104172295Y-111762809D02*
X103372295Y-111762809D01*
X103372295Y-111762809D02*
X103486580Y-111686618D01*
X103486580Y-111686618D02*
X103562771Y-111610428D01*
X103562771Y-111610428D02*
X103600866Y-111534237D01*
X103372295Y-112715190D02*
X103372295Y-112334238D01*
X103372295Y-112334238D02*
X103753247Y-112296142D01*
X103753247Y-112296142D02*
X103715152Y-112334238D01*
X103715152Y-112334238D02*
X103677057Y-112410428D01*
X103677057Y-112410428D02*
X103677057Y-112600904D01*
X103677057Y-112600904D02*
X103715152Y-112677095D01*
X103715152Y-112677095D02*
X103753247Y-112715190D01*
X103753247Y-112715190D02*
X103829438Y-112753285D01*
X103829438Y-112753285D02*
X104019914Y-112753285D01*
X104019914Y-112753285D02*
X104096104Y-112715190D01*
X104096104Y-112715190D02*
X104134200Y-112677095D01*
X104134200Y-112677095D02*
X104172295Y-112600904D01*
X104172295Y-112600904D02*
X104172295Y-112410428D01*
X104172295Y-112410428D02*
X104134200Y-112334238D01*
X104134200Y-112334238D02*
X104096104Y-112296142D01*
X106712295Y-111229475D02*
X106712295Y-110772332D01*
X106712295Y-111000904D02*
X105912295Y-111000904D01*
X105912295Y-111000904D02*
X106026580Y-110924713D01*
X106026580Y-110924713D02*
X106102771Y-110848523D01*
X106102771Y-110848523D02*
X106140866Y-110772332D01*
X106712295Y-111991380D02*
X106712295Y-111534237D01*
X106712295Y-111762809D02*
X105912295Y-111762809D01*
X105912295Y-111762809D02*
X106026580Y-111686618D01*
X106026580Y-111686618D02*
X106102771Y-111610428D01*
X106102771Y-111610428D02*
X106140866Y-111534237D01*
X105912295Y-112258047D02*
X105912295Y-112753285D01*
X105912295Y-112753285D02*
X106217057Y-112486619D01*
X106217057Y-112486619D02*
X106217057Y-112600904D01*
X106217057Y-112600904D02*
X106255152Y-112677095D01*
X106255152Y-112677095D02*
X106293247Y-112715190D01*
X106293247Y-112715190D02*
X106369438Y-112753285D01*
X106369438Y-112753285D02*
X106559914Y-112753285D01*
X106559914Y-112753285D02*
X106636104Y-112715190D01*
X106636104Y-112715190D02*
X106674200Y-112677095D01*
X106674200Y-112677095D02*
X106712295Y-112600904D01*
X106712295Y-112600904D02*
X106712295Y-112372333D01*
X106712295Y-112372333D02*
X106674200Y-112296142D01*
X106674200Y-112296142D02*
X106636104Y-112258047D01*
X109252295Y-111229475D02*
X109252295Y-110772332D01*
X109252295Y-111000904D02*
X108452295Y-111000904D01*
X108452295Y-111000904D02*
X108566580Y-110924713D01*
X108566580Y-110924713D02*
X108642771Y-110848523D01*
X108642771Y-110848523D02*
X108680866Y-110772332D01*
X109252295Y-111991380D02*
X109252295Y-111534237D01*
X109252295Y-111762809D02*
X108452295Y-111762809D01*
X108452295Y-111762809D02*
X108566580Y-111686618D01*
X108566580Y-111686618D02*
X108642771Y-111610428D01*
X108642771Y-111610428D02*
X108680866Y-111534237D01*
X109252295Y-112753285D02*
X109252295Y-112296142D01*
X109252295Y-112524714D02*
X108452295Y-112524714D01*
X108452295Y-112524714D02*
X108566580Y-112448523D01*
X108566580Y-112448523D02*
X108642771Y-112372333D01*
X108642771Y-112372333D02*
X108680866Y-112296142D01*
X110992295Y-110962809D02*
X110992295Y-111038999D01*
X110992295Y-111038999D02*
X111030390Y-111115190D01*
X111030390Y-111115190D02*
X111068485Y-111153285D01*
X111068485Y-111153285D02*
X111144676Y-111191380D01*
X111144676Y-111191380D02*
X111297057Y-111229475D01*
X111297057Y-111229475D02*
X111487533Y-111229475D01*
X111487533Y-111229475D02*
X111639914Y-111191380D01*
X111639914Y-111191380D02*
X111716104Y-111153285D01*
X111716104Y-111153285D02*
X111754200Y-111115190D01*
X111754200Y-111115190D02*
X111792295Y-111038999D01*
X111792295Y-111038999D02*
X111792295Y-110962809D01*
X111792295Y-110962809D02*
X111754200Y-110886618D01*
X111754200Y-110886618D02*
X111716104Y-110848523D01*
X111716104Y-110848523D02*
X111639914Y-110810428D01*
X111639914Y-110810428D02*
X111487533Y-110772332D01*
X111487533Y-110772332D02*
X111297057Y-110772332D01*
X111297057Y-110772332D02*
X111144676Y-110810428D01*
X111144676Y-110810428D02*
X111068485Y-110848523D01*
X111068485Y-110848523D02*
X111030390Y-110886618D01*
X111030390Y-110886618D02*
X110992295Y-110962809D01*
X111792295Y-111991380D02*
X111792295Y-111534237D01*
X111792295Y-111762809D02*
X110992295Y-111762809D01*
X110992295Y-111762809D02*
X111106580Y-111686618D01*
X111106580Y-111686618D02*
X111182771Y-111610428D01*
X111182771Y-111610428D02*
X111220866Y-111534237D01*
X110992295Y-112486619D02*
X110992295Y-112562809D01*
X110992295Y-112562809D02*
X111030390Y-112639000D01*
X111030390Y-112639000D02*
X111068485Y-112677095D01*
X111068485Y-112677095D02*
X111144676Y-112715190D01*
X111144676Y-112715190D02*
X111297057Y-112753285D01*
X111297057Y-112753285D02*
X111487533Y-112753285D01*
X111487533Y-112753285D02*
X111639914Y-112715190D01*
X111639914Y-112715190D02*
X111716104Y-112677095D01*
X111716104Y-112677095D02*
X111754200Y-112639000D01*
X111754200Y-112639000D02*
X111792295Y-112562809D01*
X111792295Y-112562809D02*
X111792295Y-112486619D01*
X111792295Y-112486619D02*
X111754200Y-112410428D01*
X111754200Y-112410428D02*
X111716104Y-112372333D01*
X111716104Y-112372333D02*
X111639914Y-112334238D01*
X111639914Y-112334238D02*
X111487533Y-112296142D01*
X111487533Y-112296142D02*
X111297057Y-112296142D01*
X111297057Y-112296142D02*
X111144676Y-112334238D01*
X111144676Y-112334238D02*
X111068485Y-112372333D01*
X111068485Y-112372333D02*
X111030390Y-112410428D01*
X111030390Y-112410428D02*
X110992295Y-112486619D01*
X85592295Y-122037190D02*
X85592295Y-122113380D01*
X85592295Y-122113380D02*
X85630390Y-122189571D01*
X85630390Y-122189571D02*
X85668485Y-122227666D01*
X85668485Y-122227666D02*
X85744676Y-122265761D01*
X85744676Y-122265761D02*
X85897057Y-122303856D01*
X85897057Y-122303856D02*
X86087533Y-122303856D01*
X86087533Y-122303856D02*
X86239914Y-122265761D01*
X86239914Y-122265761D02*
X86316104Y-122227666D01*
X86316104Y-122227666D02*
X86354200Y-122189571D01*
X86354200Y-122189571D02*
X86392295Y-122113380D01*
X86392295Y-122113380D02*
X86392295Y-122037190D01*
X86392295Y-122037190D02*
X86354200Y-121960999D01*
X86354200Y-121960999D02*
X86316104Y-121922904D01*
X86316104Y-121922904D02*
X86239914Y-121884809D01*
X86239914Y-121884809D02*
X86087533Y-121846713D01*
X86087533Y-121846713D02*
X85897057Y-121846713D01*
X85897057Y-121846713D02*
X85744676Y-121884809D01*
X85744676Y-121884809D02*
X85668485Y-121922904D01*
X85668485Y-121922904D02*
X85630390Y-121960999D01*
X85630390Y-121960999D02*
X85592295Y-122037190D01*
X85592295Y-122799095D02*
X85592295Y-122875285D01*
X85592295Y-122875285D02*
X85630390Y-122951476D01*
X85630390Y-122951476D02*
X85668485Y-122989571D01*
X85668485Y-122989571D02*
X85744676Y-123027666D01*
X85744676Y-123027666D02*
X85897057Y-123065761D01*
X85897057Y-123065761D02*
X86087533Y-123065761D01*
X86087533Y-123065761D02*
X86239914Y-123027666D01*
X86239914Y-123027666D02*
X86316104Y-122989571D01*
X86316104Y-122989571D02*
X86354200Y-122951476D01*
X86354200Y-122951476D02*
X86392295Y-122875285D01*
X86392295Y-122875285D02*
X86392295Y-122799095D01*
X86392295Y-122799095D02*
X86354200Y-122722904D01*
X86354200Y-122722904D02*
X86316104Y-122684809D01*
X86316104Y-122684809D02*
X86239914Y-122646714D01*
X86239914Y-122646714D02*
X86087533Y-122608618D01*
X86087533Y-122608618D02*
X85897057Y-122608618D01*
X85897057Y-122608618D02*
X85744676Y-122646714D01*
X85744676Y-122646714D02*
X85668485Y-122684809D01*
X85668485Y-122684809D02*
X85630390Y-122722904D01*
X85630390Y-122722904D02*
X85592295Y-122799095D01*
X85592295Y-123751476D02*
X85592295Y-123599095D01*
X85592295Y-123599095D02*
X85630390Y-123522904D01*
X85630390Y-123522904D02*
X85668485Y-123484809D01*
X85668485Y-123484809D02*
X85782771Y-123408619D01*
X85782771Y-123408619D02*
X85935152Y-123370523D01*
X85935152Y-123370523D02*
X86239914Y-123370523D01*
X86239914Y-123370523D02*
X86316104Y-123408619D01*
X86316104Y-123408619D02*
X86354200Y-123446714D01*
X86354200Y-123446714D02*
X86392295Y-123522904D01*
X86392295Y-123522904D02*
X86392295Y-123675285D01*
X86392295Y-123675285D02*
X86354200Y-123751476D01*
X86354200Y-123751476D02*
X86316104Y-123789571D01*
X86316104Y-123789571D02*
X86239914Y-123827666D01*
X86239914Y-123827666D02*
X86049438Y-123827666D01*
X86049438Y-123827666D02*
X85973247Y-123789571D01*
X85973247Y-123789571D02*
X85935152Y-123751476D01*
X85935152Y-123751476D02*
X85897057Y-123675285D01*
X85897057Y-123675285D02*
X85897057Y-123522904D01*
X85897057Y-123522904D02*
X85935152Y-123446714D01*
X85935152Y-123446714D02*
X85973247Y-123408619D01*
X85973247Y-123408619D02*
X86049438Y-123370523D01*
X88062295Y-122037190D02*
X88062295Y-122113380D01*
X88062295Y-122113380D02*
X88100390Y-122189571D01*
X88100390Y-122189571D02*
X88138485Y-122227666D01*
X88138485Y-122227666D02*
X88214676Y-122265761D01*
X88214676Y-122265761D02*
X88367057Y-122303856D01*
X88367057Y-122303856D02*
X88557533Y-122303856D01*
X88557533Y-122303856D02*
X88709914Y-122265761D01*
X88709914Y-122265761D02*
X88786104Y-122227666D01*
X88786104Y-122227666D02*
X88824200Y-122189571D01*
X88824200Y-122189571D02*
X88862295Y-122113380D01*
X88862295Y-122113380D02*
X88862295Y-122037190D01*
X88862295Y-122037190D02*
X88824200Y-121960999D01*
X88824200Y-121960999D02*
X88786104Y-121922904D01*
X88786104Y-121922904D02*
X88709914Y-121884809D01*
X88709914Y-121884809D02*
X88557533Y-121846713D01*
X88557533Y-121846713D02*
X88367057Y-121846713D01*
X88367057Y-121846713D02*
X88214676Y-121884809D01*
X88214676Y-121884809D02*
X88138485Y-121922904D01*
X88138485Y-121922904D02*
X88100390Y-121960999D01*
X88100390Y-121960999D02*
X88062295Y-122037190D01*
X88062295Y-122799095D02*
X88062295Y-122875285D01*
X88062295Y-122875285D02*
X88100390Y-122951476D01*
X88100390Y-122951476D02*
X88138485Y-122989571D01*
X88138485Y-122989571D02*
X88214676Y-123027666D01*
X88214676Y-123027666D02*
X88367057Y-123065761D01*
X88367057Y-123065761D02*
X88557533Y-123065761D01*
X88557533Y-123065761D02*
X88709914Y-123027666D01*
X88709914Y-123027666D02*
X88786104Y-122989571D01*
X88786104Y-122989571D02*
X88824200Y-122951476D01*
X88824200Y-122951476D02*
X88862295Y-122875285D01*
X88862295Y-122875285D02*
X88862295Y-122799095D01*
X88862295Y-122799095D02*
X88824200Y-122722904D01*
X88824200Y-122722904D02*
X88786104Y-122684809D01*
X88786104Y-122684809D02*
X88709914Y-122646714D01*
X88709914Y-122646714D02*
X88557533Y-122608618D01*
X88557533Y-122608618D02*
X88367057Y-122608618D01*
X88367057Y-122608618D02*
X88214676Y-122646714D01*
X88214676Y-122646714D02*
X88138485Y-122684809D01*
X88138485Y-122684809D02*
X88100390Y-122722904D01*
X88100390Y-122722904D02*
X88062295Y-122799095D01*
X88405152Y-123522904D02*
X88367057Y-123446714D01*
X88367057Y-123446714D02*
X88328961Y-123408619D01*
X88328961Y-123408619D02*
X88252771Y-123370523D01*
X88252771Y-123370523D02*
X88214676Y-123370523D01*
X88214676Y-123370523D02*
X88138485Y-123408619D01*
X88138485Y-123408619D02*
X88100390Y-123446714D01*
X88100390Y-123446714D02*
X88062295Y-123522904D01*
X88062295Y-123522904D02*
X88062295Y-123675285D01*
X88062295Y-123675285D02*
X88100390Y-123751476D01*
X88100390Y-123751476D02*
X88138485Y-123789571D01*
X88138485Y-123789571D02*
X88214676Y-123827666D01*
X88214676Y-123827666D02*
X88252771Y-123827666D01*
X88252771Y-123827666D02*
X88328961Y-123789571D01*
X88328961Y-123789571D02*
X88367057Y-123751476D01*
X88367057Y-123751476D02*
X88405152Y-123675285D01*
X88405152Y-123675285D02*
X88405152Y-123522904D01*
X88405152Y-123522904D02*
X88443247Y-123446714D01*
X88443247Y-123446714D02*
X88481342Y-123408619D01*
X88481342Y-123408619D02*
X88557533Y-123370523D01*
X88557533Y-123370523D02*
X88709914Y-123370523D01*
X88709914Y-123370523D02*
X88786104Y-123408619D01*
X88786104Y-123408619D02*
X88824200Y-123446714D01*
X88824200Y-123446714D02*
X88862295Y-123522904D01*
X88862295Y-123522904D02*
X88862295Y-123675285D01*
X88862295Y-123675285D02*
X88824200Y-123751476D01*
X88824200Y-123751476D02*
X88786104Y-123789571D01*
X88786104Y-123789571D02*
X88709914Y-123827666D01*
X88709914Y-123827666D02*
X88557533Y-123827666D01*
X88557533Y-123827666D02*
X88481342Y-123789571D01*
X88481342Y-123789571D02*
X88443247Y-123751476D01*
X88443247Y-123751476D02*
X88405152Y-123675285D01*
X90710390Y-122151476D02*
X90672295Y-122075286D01*
X90672295Y-122075286D02*
X90672295Y-121961000D01*
X90672295Y-121961000D02*
X90710390Y-121846714D01*
X90710390Y-121846714D02*
X90786580Y-121770524D01*
X90786580Y-121770524D02*
X90862771Y-121732429D01*
X90862771Y-121732429D02*
X91015152Y-121694333D01*
X91015152Y-121694333D02*
X91129438Y-121694333D01*
X91129438Y-121694333D02*
X91281819Y-121732429D01*
X91281819Y-121732429D02*
X91358009Y-121770524D01*
X91358009Y-121770524D02*
X91434200Y-121846714D01*
X91434200Y-121846714D02*
X91472295Y-121961000D01*
X91472295Y-121961000D02*
X91472295Y-122037191D01*
X91472295Y-122037191D02*
X91434200Y-122151476D01*
X91434200Y-122151476D02*
X91396104Y-122189572D01*
X91396104Y-122189572D02*
X91129438Y-122189572D01*
X91129438Y-122189572D02*
X91129438Y-122037191D01*
X91472295Y-122532429D02*
X90672295Y-122532429D01*
X90672295Y-122532429D02*
X91472295Y-122989572D01*
X91472295Y-122989572D02*
X90672295Y-122989572D01*
X91472295Y-123370524D02*
X90672295Y-123370524D01*
X90672295Y-123370524D02*
X90672295Y-123561000D01*
X90672295Y-123561000D02*
X90710390Y-123675286D01*
X90710390Y-123675286D02*
X90786580Y-123751476D01*
X90786580Y-123751476D02*
X90862771Y-123789571D01*
X90862771Y-123789571D02*
X91015152Y-123827667D01*
X91015152Y-123827667D02*
X91129438Y-123827667D01*
X91129438Y-123827667D02*
X91281819Y-123789571D01*
X91281819Y-123789571D02*
X91358009Y-123751476D01*
X91358009Y-123751476D02*
X91434200Y-123675286D01*
X91434200Y-123675286D02*
X91472295Y-123561000D01*
X91472295Y-123561000D02*
X91472295Y-123370524D01*
X93250390Y-122151476D02*
X93212295Y-122075286D01*
X93212295Y-122075286D02*
X93212295Y-121961000D01*
X93212295Y-121961000D02*
X93250390Y-121846714D01*
X93250390Y-121846714D02*
X93326580Y-121770524D01*
X93326580Y-121770524D02*
X93402771Y-121732429D01*
X93402771Y-121732429D02*
X93555152Y-121694333D01*
X93555152Y-121694333D02*
X93669438Y-121694333D01*
X93669438Y-121694333D02*
X93821819Y-121732429D01*
X93821819Y-121732429D02*
X93898009Y-121770524D01*
X93898009Y-121770524D02*
X93974200Y-121846714D01*
X93974200Y-121846714D02*
X94012295Y-121961000D01*
X94012295Y-121961000D02*
X94012295Y-122037191D01*
X94012295Y-122037191D02*
X93974200Y-122151476D01*
X93974200Y-122151476D02*
X93936104Y-122189572D01*
X93936104Y-122189572D02*
X93669438Y-122189572D01*
X93669438Y-122189572D02*
X93669438Y-122037191D01*
X94012295Y-122532429D02*
X93212295Y-122532429D01*
X93212295Y-122532429D02*
X94012295Y-122989572D01*
X94012295Y-122989572D02*
X93212295Y-122989572D01*
X94012295Y-123370524D02*
X93212295Y-123370524D01*
X93212295Y-123370524D02*
X93212295Y-123561000D01*
X93212295Y-123561000D02*
X93250390Y-123675286D01*
X93250390Y-123675286D02*
X93326580Y-123751476D01*
X93326580Y-123751476D02*
X93402771Y-123789571D01*
X93402771Y-123789571D02*
X93555152Y-123827667D01*
X93555152Y-123827667D02*
X93669438Y-123827667D01*
X93669438Y-123827667D02*
X93821819Y-123789571D01*
X93821819Y-123789571D02*
X93898009Y-123751476D01*
X93898009Y-123751476D02*
X93974200Y-123675286D01*
X93974200Y-123675286D02*
X94012295Y-123561000D01*
X94012295Y-123561000D02*
X94012295Y-123370524D01*
X95762295Y-122037190D02*
X95762295Y-122113380D01*
X95762295Y-122113380D02*
X95800390Y-122189571D01*
X95800390Y-122189571D02*
X95838485Y-122227666D01*
X95838485Y-122227666D02*
X95914676Y-122265761D01*
X95914676Y-122265761D02*
X96067057Y-122303856D01*
X96067057Y-122303856D02*
X96257533Y-122303856D01*
X96257533Y-122303856D02*
X96409914Y-122265761D01*
X96409914Y-122265761D02*
X96486104Y-122227666D01*
X96486104Y-122227666D02*
X96524200Y-122189571D01*
X96524200Y-122189571D02*
X96562295Y-122113380D01*
X96562295Y-122113380D02*
X96562295Y-122037190D01*
X96562295Y-122037190D02*
X96524200Y-121960999D01*
X96524200Y-121960999D02*
X96486104Y-121922904D01*
X96486104Y-121922904D02*
X96409914Y-121884809D01*
X96409914Y-121884809D02*
X96257533Y-121846713D01*
X96257533Y-121846713D02*
X96067057Y-121846713D01*
X96067057Y-121846713D02*
X95914676Y-121884809D01*
X95914676Y-121884809D02*
X95838485Y-121922904D01*
X95838485Y-121922904D02*
X95800390Y-121960999D01*
X95800390Y-121960999D02*
X95762295Y-122037190D01*
X96562295Y-123065761D02*
X96562295Y-122608618D01*
X96562295Y-122837190D02*
X95762295Y-122837190D01*
X95762295Y-122837190D02*
X95876580Y-122760999D01*
X95876580Y-122760999D02*
X95952771Y-122684809D01*
X95952771Y-122684809D02*
X95990866Y-122608618D01*
X95762295Y-123332428D02*
X95762295Y-123865762D01*
X95762295Y-123865762D02*
X96562295Y-123522904D01*
X98362295Y-122037190D02*
X98362295Y-122113380D01*
X98362295Y-122113380D02*
X98400390Y-122189571D01*
X98400390Y-122189571D02*
X98438485Y-122227666D01*
X98438485Y-122227666D02*
X98514676Y-122265761D01*
X98514676Y-122265761D02*
X98667057Y-122303856D01*
X98667057Y-122303856D02*
X98857533Y-122303856D01*
X98857533Y-122303856D02*
X99009914Y-122265761D01*
X99009914Y-122265761D02*
X99086104Y-122227666D01*
X99086104Y-122227666D02*
X99124200Y-122189571D01*
X99124200Y-122189571D02*
X99162295Y-122113380D01*
X99162295Y-122113380D02*
X99162295Y-122037190D01*
X99162295Y-122037190D02*
X99124200Y-121960999D01*
X99124200Y-121960999D02*
X99086104Y-121922904D01*
X99086104Y-121922904D02*
X99009914Y-121884809D01*
X99009914Y-121884809D02*
X98857533Y-121846713D01*
X98857533Y-121846713D02*
X98667057Y-121846713D01*
X98667057Y-121846713D02*
X98514676Y-121884809D01*
X98514676Y-121884809D02*
X98438485Y-121922904D01*
X98438485Y-121922904D02*
X98400390Y-121960999D01*
X98400390Y-121960999D02*
X98362295Y-122037190D01*
X98438485Y-122608618D02*
X98400390Y-122646714D01*
X98400390Y-122646714D02*
X98362295Y-122722904D01*
X98362295Y-122722904D02*
X98362295Y-122913380D01*
X98362295Y-122913380D02*
X98400390Y-122989571D01*
X98400390Y-122989571D02*
X98438485Y-123027666D01*
X98438485Y-123027666D02*
X98514676Y-123065761D01*
X98514676Y-123065761D02*
X98590866Y-123065761D01*
X98590866Y-123065761D02*
X98705152Y-123027666D01*
X98705152Y-123027666D02*
X99162295Y-122570523D01*
X99162295Y-122570523D02*
X99162295Y-123065761D01*
X98362295Y-123561000D02*
X98362295Y-123637190D01*
X98362295Y-123637190D02*
X98400390Y-123713381D01*
X98400390Y-123713381D02*
X98438485Y-123751476D01*
X98438485Y-123751476D02*
X98514676Y-123789571D01*
X98514676Y-123789571D02*
X98667057Y-123827666D01*
X98667057Y-123827666D02*
X98857533Y-123827666D01*
X98857533Y-123827666D02*
X99009914Y-123789571D01*
X99009914Y-123789571D02*
X99086104Y-123751476D01*
X99086104Y-123751476D02*
X99124200Y-123713381D01*
X99124200Y-123713381D02*
X99162295Y-123637190D01*
X99162295Y-123637190D02*
X99162295Y-123561000D01*
X99162295Y-123561000D02*
X99124200Y-123484809D01*
X99124200Y-123484809D02*
X99086104Y-123446714D01*
X99086104Y-123446714D02*
X99009914Y-123408619D01*
X99009914Y-123408619D02*
X98857533Y-123370523D01*
X98857533Y-123370523D02*
X98667057Y-123370523D01*
X98667057Y-123370523D02*
X98514676Y-123408619D01*
X98514676Y-123408619D02*
X98438485Y-123446714D01*
X98438485Y-123446714D02*
X98400390Y-123484809D01*
X98400390Y-123484809D02*
X98362295Y-123561000D01*
X100862295Y-122037190D02*
X100862295Y-122113380D01*
X100862295Y-122113380D02*
X100900390Y-122189571D01*
X100900390Y-122189571D02*
X100938485Y-122227666D01*
X100938485Y-122227666D02*
X101014676Y-122265761D01*
X101014676Y-122265761D02*
X101167057Y-122303856D01*
X101167057Y-122303856D02*
X101357533Y-122303856D01*
X101357533Y-122303856D02*
X101509914Y-122265761D01*
X101509914Y-122265761D02*
X101586104Y-122227666D01*
X101586104Y-122227666D02*
X101624200Y-122189571D01*
X101624200Y-122189571D02*
X101662295Y-122113380D01*
X101662295Y-122113380D02*
X101662295Y-122037190D01*
X101662295Y-122037190D02*
X101624200Y-121960999D01*
X101624200Y-121960999D02*
X101586104Y-121922904D01*
X101586104Y-121922904D02*
X101509914Y-121884809D01*
X101509914Y-121884809D02*
X101357533Y-121846713D01*
X101357533Y-121846713D02*
X101167057Y-121846713D01*
X101167057Y-121846713D02*
X101014676Y-121884809D01*
X101014676Y-121884809D02*
X100938485Y-121922904D01*
X100938485Y-121922904D02*
X100900390Y-121960999D01*
X100900390Y-121960999D02*
X100862295Y-122037190D01*
X100938485Y-122608618D02*
X100900390Y-122646714D01*
X100900390Y-122646714D02*
X100862295Y-122722904D01*
X100862295Y-122722904D02*
X100862295Y-122913380D01*
X100862295Y-122913380D02*
X100900390Y-122989571D01*
X100900390Y-122989571D02*
X100938485Y-123027666D01*
X100938485Y-123027666D02*
X101014676Y-123065761D01*
X101014676Y-123065761D02*
X101090866Y-123065761D01*
X101090866Y-123065761D02*
X101205152Y-123027666D01*
X101205152Y-123027666D02*
X101662295Y-122570523D01*
X101662295Y-122570523D02*
X101662295Y-123065761D01*
X100938485Y-123370523D02*
X100900390Y-123408619D01*
X100900390Y-123408619D02*
X100862295Y-123484809D01*
X100862295Y-123484809D02*
X100862295Y-123675285D01*
X100862295Y-123675285D02*
X100900390Y-123751476D01*
X100900390Y-123751476D02*
X100938485Y-123789571D01*
X100938485Y-123789571D02*
X101014676Y-123827666D01*
X101014676Y-123827666D02*
X101090866Y-123827666D01*
X101090866Y-123827666D02*
X101205152Y-123789571D01*
X101205152Y-123789571D02*
X101662295Y-123332428D01*
X101662295Y-123332428D02*
X101662295Y-123827666D01*
X103372295Y-122037190D02*
X103372295Y-122113380D01*
X103372295Y-122113380D02*
X103410390Y-122189571D01*
X103410390Y-122189571D02*
X103448485Y-122227666D01*
X103448485Y-122227666D02*
X103524676Y-122265761D01*
X103524676Y-122265761D02*
X103677057Y-122303856D01*
X103677057Y-122303856D02*
X103867533Y-122303856D01*
X103867533Y-122303856D02*
X104019914Y-122265761D01*
X104019914Y-122265761D02*
X104096104Y-122227666D01*
X104096104Y-122227666D02*
X104134200Y-122189571D01*
X104134200Y-122189571D02*
X104172295Y-122113380D01*
X104172295Y-122113380D02*
X104172295Y-122037190D01*
X104172295Y-122037190D02*
X104134200Y-121960999D01*
X104134200Y-121960999D02*
X104096104Y-121922904D01*
X104096104Y-121922904D02*
X104019914Y-121884809D01*
X104019914Y-121884809D02*
X103867533Y-121846713D01*
X103867533Y-121846713D02*
X103677057Y-121846713D01*
X103677057Y-121846713D02*
X103524676Y-121884809D01*
X103524676Y-121884809D02*
X103448485Y-121922904D01*
X103448485Y-121922904D02*
X103410390Y-121960999D01*
X103410390Y-121960999D02*
X103372295Y-122037190D01*
X103448485Y-122608618D02*
X103410390Y-122646714D01*
X103410390Y-122646714D02*
X103372295Y-122722904D01*
X103372295Y-122722904D02*
X103372295Y-122913380D01*
X103372295Y-122913380D02*
X103410390Y-122989571D01*
X103410390Y-122989571D02*
X103448485Y-123027666D01*
X103448485Y-123027666D02*
X103524676Y-123065761D01*
X103524676Y-123065761D02*
X103600866Y-123065761D01*
X103600866Y-123065761D02*
X103715152Y-123027666D01*
X103715152Y-123027666D02*
X104172295Y-122570523D01*
X104172295Y-122570523D02*
X104172295Y-123065761D01*
X103638961Y-123751476D02*
X104172295Y-123751476D01*
X103334200Y-123561000D02*
X103905628Y-123370523D01*
X103905628Y-123370523D02*
X103905628Y-123865762D01*
X106712295Y-122303856D02*
X106712295Y-121846713D01*
X106712295Y-122075285D02*
X105912295Y-122075285D01*
X105912295Y-122075285D02*
X106026580Y-121999094D01*
X106026580Y-121999094D02*
X106102771Y-121922904D01*
X106102771Y-121922904D02*
X106140866Y-121846713D01*
X105912295Y-122799095D02*
X105912295Y-122875285D01*
X105912295Y-122875285D02*
X105950390Y-122951476D01*
X105950390Y-122951476D02*
X105988485Y-122989571D01*
X105988485Y-122989571D02*
X106064676Y-123027666D01*
X106064676Y-123027666D02*
X106217057Y-123065761D01*
X106217057Y-123065761D02*
X106407533Y-123065761D01*
X106407533Y-123065761D02*
X106559914Y-123027666D01*
X106559914Y-123027666D02*
X106636104Y-122989571D01*
X106636104Y-122989571D02*
X106674200Y-122951476D01*
X106674200Y-122951476D02*
X106712295Y-122875285D01*
X106712295Y-122875285D02*
X106712295Y-122799095D01*
X106712295Y-122799095D02*
X106674200Y-122722904D01*
X106674200Y-122722904D02*
X106636104Y-122684809D01*
X106636104Y-122684809D02*
X106559914Y-122646714D01*
X106559914Y-122646714D02*
X106407533Y-122608618D01*
X106407533Y-122608618D02*
X106217057Y-122608618D01*
X106217057Y-122608618D02*
X106064676Y-122646714D01*
X106064676Y-122646714D02*
X105988485Y-122684809D01*
X105988485Y-122684809D02*
X105950390Y-122722904D01*
X105950390Y-122722904D02*
X105912295Y-122799095D01*
X105912295Y-123561000D02*
X105912295Y-123637190D01*
X105912295Y-123637190D02*
X105950390Y-123713381D01*
X105950390Y-123713381D02*
X105988485Y-123751476D01*
X105988485Y-123751476D02*
X106064676Y-123789571D01*
X106064676Y-123789571D02*
X106217057Y-123827666D01*
X106217057Y-123827666D02*
X106407533Y-123827666D01*
X106407533Y-123827666D02*
X106559914Y-123789571D01*
X106559914Y-123789571D02*
X106636104Y-123751476D01*
X106636104Y-123751476D02*
X106674200Y-123713381D01*
X106674200Y-123713381D02*
X106712295Y-123637190D01*
X106712295Y-123637190D02*
X106712295Y-123561000D01*
X106712295Y-123561000D02*
X106674200Y-123484809D01*
X106674200Y-123484809D02*
X106636104Y-123446714D01*
X106636104Y-123446714D02*
X106559914Y-123408619D01*
X106559914Y-123408619D02*
X106407533Y-123370523D01*
X106407533Y-123370523D02*
X106217057Y-123370523D01*
X106217057Y-123370523D02*
X106064676Y-123408619D01*
X106064676Y-123408619D02*
X105988485Y-123446714D01*
X105988485Y-123446714D02*
X105950390Y-123484809D01*
X105950390Y-123484809D02*
X105912295Y-123561000D01*
X111792295Y-122303856D02*
X111792295Y-121846713D01*
X111792295Y-122075285D02*
X110992295Y-122075285D01*
X110992295Y-122075285D02*
X111106580Y-121999094D01*
X111106580Y-121999094D02*
X111182771Y-121922904D01*
X111182771Y-121922904D02*
X111220866Y-121846713D01*
X110992295Y-122799095D02*
X110992295Y-122875285D01*
X110992295Y-122875285D02*
X111030390Y-122951476D01*
X111030390Y-122951476D02*
X111068485Y-122989571D01*
X111068485Y-122989571D02*
X111144676Y-123027666D01*
X111144676Y-123027666D02*
X111297057Y-123065761D01*
X111297057Y-123065761D02*
X111487533Y-123065761D01*
X111487533Y-123065761D02*
X111639914Y-123027666D01*
X111639914Y-123027666D02*
X111716104Y-122989571D01*
X111716104Y-122989571D02*
X111754200Y-122951476D01*
X111754200Y-122951476D02*
X111792295Y-122875285D01*
X111792295Y-122875285D02*
X111792295Y-122799095D01*
X111792295Y-122799095D02*
X111754200Y-122722904D01*
X111754200Y-122722904D02*
X111716104Y-122684809D01*
X111716104Y-122684809D02*
X111639914Y-122646714D01*
X111639914Y-122646714D02*
X111487533Y-122608618D01*
X111487533Y-122608618D02*
X111297057Y-122608618D01*
X111297057Y-122608618D02*
X111144676Y-122646714D01*
X111144676Y-122646714D02*
X111068485Y-122684809D01*
X111068485Y-122684809D02*
X111030390Y-122722904D01*
X111030390Y-122722904D02*
X110992295Y-122799095D01*
X111258961Y-123751476D02*
X111792295Y-123751476D01*
X110954200Y-123561000D02*
X111525628Y-123370523D01*
X111525628Y-123370523D02*
X111525628Y-123865762D01*
%TO.C,D35*%
D11*
X248500000Y-152100000D02*
X248500000Y-151700000D01*
X248500000Y-151700000D02*
X247950000Y-151700000D01*
X248500000Y-151700000D02*
X249050000Y-151700000D01*
X248500000Y-151700000D02*
X248100000Y-151100000D01*
X248100000Y-151100000D02*
X248900000Y-151100000D01*
X248900000Y-151100000D02*
X248500000Y-151700000D01*
X248500000Y-151100000D02*
X248500000Y-150600000D01*
%TO.C,D1*%
X100250000Y-190200000D02*
X100750000Y-190200000D01*
X100250000Y-190600000D02*
X99650000Y-190200000D01*
X100250000Y-189800000D02*
X100250000Y-190600000D01*
X99650000Y-190200000D02*
X100250000Y-189800000D01*
X99650000Y-190200000D02*
X99650000Y-190750000D01*
X99650000Y-190200000D02*
X99650000Y-189650000D01*
X99250000Y-190200000D02*
X99650000Y-190200000D01*
%TO.C,D2*%
X100250000Y-170400000D02*
X100750000Y-170400000D01*
X100250000Y-170800000D02*
X99650000Y-170400000D01*
X100250000Y-170000000D02*
X100250000Y-170800000D01*
X99650000Y-170400000D02*
X100250000Y-170000000D01*
X99650000Y-170400000D02*
X99650000Y-170950000D01*
X99650000Y-170400000D02*
X99650000Y-169850000D01*
X99250000Y-170400000D02*
X99650000Y-170400000D01*
%TO.C,D3*%
X100250000Y-150600000D02*
X100750000Y-150600000D01*
X100250000Y-151000000D02*
X99650000Y-150600000D01*
X100250000Y-150200000D02*
X100250000Y-151000000D01*
X99650000Y-150600000D02*
X100250000Y-150200000D01*
X99650000Y-150600000D02*
X99650000Y-151150000D01*
X99650000Y-150600000D02*
X99650000Y-150050000D01*
X99250000Y-150600000D02*
X99650000Y-150600000D01*
%TO.C,D4*%
X100250000Y-130800000D02*
X100750000Y-130800000D01*
X100250000Y-131200000D02*
X99650000Y-130800000D01*
X100250000Y-130400000D02*
X100250000Y-131200000D01*
X99650000Y-130800000D02*
X100250000Y-130400000D01*
X99650000Y-130800000D02*
X99650000Y-131350000D01*
X99650000Y-130800000D02*
X99650000Y-130250000D01*
X99250000Y-130800000D02*
X99650000Y-130800000D01*
%TO.C,D5*%
X120050000Y-210000000D02*
X120550000Y-210000000D01*
X120050000Y-210400000D02*
X119450000Y-210000000D01*
X120050000Y-209600000D02*
X120050000Y-210400000D01*
X119450000Y-210000000D02*
X120050000Y-209600000D01*
X119450000Y-210000000D02*
X119450000Y-210550000D01*
X119450000Y-210000000D02*
X119450000Y-209450000D01*
X119050000Y-210000000D02*
X119450000Y-210000000D01*
%TO.C,D6*%
X120050000Y-190200000D02*
X120550000Y-190200000D01*
X120050000Y-190600000D02*
X119450000Y-190200000D01*
X120050000Y-189800000D02*
X120050000Y-190600000D01*
X119450000Y-190200000D02*
X120050000Y-189800000D01*
X119450000Y-190200000D02*
X119450000Y-190750000D01*
X119450000Y-190200000D02*
X119450000Y-189650000D01*
X119050000Y-190200000D02*
X119450000Y-190200000D01*
%TO.C,D7*%
X120050000Y-170400000D02*
X120550000Y-170400000D01*
X120050000Y-170800000D02*
X119450000Y-170400000D01*
X120050000Y-170000000D02*
X120050000Y-170800000D01*
X119450000Y-170400000D02*
X120050000Y-170000000D01*
X119450000Y-170400000D02*
X119450000Y-170950000D01*
X119450000Y-170400000D02*
X119450000Y-169850000D01*
X119050000Y-170400000D02*
X119450000Y-170400000D01*
%TO.C,D8*%
X120050000Y-150600000D02*
X120550000Y-150600000D01*
X120050000Y-151000000D02*
X119450000Y-150600000D01*
X120050000Y-150200000D02*
X120050000Y-151000000D01*
X119450000Y-150600000D02*
X120050000Y-150200000D01*
X119450000Y-150600000D02*
X119450000Y-151150000D01*
X119450000Y-150600000D02*
X119450000Y-150050000D01*
X119050000Y-150600000D02*
X119450000Y-150600000D01*
%TO.C,D9*%
X120050000Y-130800000D02*
X120550000Y-130800000D01*
X120050000Y-131200000D02*
X119450000Y-130800000D01*
X120050000Y-130400000D02*
X120050000Y-131200000D01*
X119450000Y-130800000D02*
X120050000Y-130400000D01*
X119450000Y-130800000D02*
X119450000Y-131350000D01*
X119450000Y-130800000D02*
X119450000Y-130250000D01*
X119050000Y-130800000D02*
X119450000Y-130800000D01*
%TO.C,D10*%
X139850000Y-188200000D02*
X140350000Y-188200000D01*
X139850000Y-188600000D02*
X139250000Y-188200000D01*
X139850000Y-187800000D02*
X139850000Y-188600000D01*
X139250000Y-188200000D02*
X139850000Y-187800000D01*
X139250000Y-188200000D02*
X139250000Y-188750000D01*
X139250000Y-188200000D02*
X139250000Y-187650000D01*
X138850000Y-188200000D02*
X139250000Y-188200000D01*
%TO.C,D11*%
X139850000Y-168400000D02*
X140350000Y-168400000D01*
X139850000Y-168800000D02*
X139250000Y-168400000D01*
X139850000Y-168000000D02*
X139850000Y-168800000D01*
X139250000Y-168400000D02*
X139850000Y-168000000D01*
X139250000Y-168400000D02*
X139250000Y-168950000D01*
X139250000Y-168400000D02*
X139250000Y-167850000D01*
X138850000Y-168400000D02*
X139250000Y-168400000D01*
%TO.C,D12*%
X139850000Y-148600000D02*
X140350000Y-148600000D01*
X139850000Y-149000000D02*
X139250000Y-148600000D01*
X139850000Y-148200000D02*
X139850000Y-149000000D01*
X139250000Y-148600000D02*
X139850000Y-148200000D01*
X139250000Y-148600000D02*
X139250000Y-149150000D01*
X139250000Y-148600000D02*
X139250000Y-148050000D01*
X138850000Y-148600000D02*
X139250000Y-148600000D01*
%TO.C,D13*%
X139850000Y-128800000D02*
X140350000Y-128800000D01*
X139850000Y-129200000D02*
X139250000Y-128800000D01*
X139850000Y-128400000D02*
X139850000Y-129200000D01*
X139250000Y-128800000D02*
X139850000Y-128400000D01*
X139250000Y-128800000D02*
X139250000Y-129350000D01*
X139250000Y-128800000D02*
X139250000Y-128250000D01*
X138850000Y-128800000D02*
X139250000Y-128800000D01*
%TO.C,D14*%
X159650000Y-206000000D02*
X160150000Y-206000000D01*
X159650000Y-206400000D02*
X159050000Y-206000000D01*
X159650000Y-205600000D02*
X159650000Y-206400000D01*
X159050000Y-206000000D02*
X159650000Y-205600000D01*
X159050000Y-206000000D02*
X159050000Y-206550000D01*
X159050000Y-206000000D02*
X159050000Y-205450000D01*
X158650000Y-206000000D02*
X159050000Y-206000000D01*
%TO.C,D15*%
X159650000Y-186200000D02*
X160150000Y-186200000D01*
X159650000Y-186600000D02*
X159050000Y-186200000D01*
X159650000Y-185800000D02*
X159650000Y-186600000D01*
X159050000Y-186200000D02*
X159650000Y-185800000D01*
X159050000Y-186200000D02*
X159050000Y-186750000D01*
X159050000Y-186200000D02*
X159050000Y-185650000D01*
X158650000Y-186200000D02*
X159050000Y-186200000D01*
%TO.C,D16*%
X159650000Y-166400000D02*
X160150000Y-166400000D01*
X159650000Y-166800000D02*
X159050000Y-166400000D01*
X159650000Y-166000000D02*
X159650000Y-166800000D01*
X159050000Y-166400000D02*
X159650000Y-166000000D01*
X159050000Y-166400000D02*
X159050000Y-166950000D01*
X159050000Y-166400000D02*
X159050000Y-165850000D01*
X158650000Y-166400000D02*
X159050000Y-166400000D01*
%TO.C,D17*%
X159650000Y-146600000D02*
X160150000Y-146600000D01*
X159650000Y-147000000D02*
X159050000Y-146600000D01*
X159650000Y-146200000D02*
X159650000Y-147000000D01*
X159050000Y-146600000D02*
X159650000Y-146200000D01*
X159050000Y-146600000D02*
X159050000Y-147150000D01*
X159050000Y-146600000D02*
X159050000Y-146050000D01*
X158650000Y-146600000D02*
X159050000Y-146600000D01*
%TO.C,D18*%
X159650000Y-126800000D02*
X160150000Y-126800000D01*
X159650000Y-127200000D02*
X159050000Y-126800000D01*
X159650000Y-126400000D02*
X159650000Y-127200000D01*
X159050000Y-126800000D02*
X159650000Y-126400000D01*
X159050000Y-126800000D02*
X159050000Y-127350000D01*
X159050000Y-126800000D02*
X159050000Y-126250000D01*
X158650000Y-126800000D02*
X159050000Y-126800000D01*
%TO.C,D19*%
X179450000Y-208000000D02*
X179950000Y-208000000D01*
X179450000Y-208400000D02*
X178850000Y-208000000D01*
X179450000Y-207600000D02*
X179450000Y-208400000D01*
X178850000Y-208000000D02*
X179450000Y-207600000D01*
X178850000Y-208000000D02*
X178850000Y-208550000D01*
X178850000Y-208000000D02*
X178850000Y-207450000D01*
X178450000Y-208000000D02*
X178850000Y-208000000D01*
%TO.C,D20*%
X179450000Y-188200000D02*
X179950000Y-188200000D01*
X179450000Y-188600000D02*
X178850000Y-188200000D01*
X179450000Y-187800000D02*
X179450000Y-188600000D01*
X178850000Y-188200000D02*
X179450000Y-187800000D01*
X178850000Y-188200000D02*
X178850000Y-188750000D01*
X178850000Y-188200000D02*
X178850000Y-187650000D01*
X178450000Y-188200000D02*
X178850000Y-188200000D01*
%TO.C,D21*%
X179450000Y-168400000D02*
X179950000Y-168400000D01*
X179450000Y-168800000D02*
X178850000Y-168400000D01*
X179450000Y-168000000D02*
X179450000Y-168800000D01*
X178850000Y-168400000D02*
X179450000Y-168000000D01*
X178850000Y-168400000D02*
X178850000Y-168950000D01*
X178850000Y-168400000D02*
X178850000Y-167850000D01*
X178450000Y-168400000D02*
X178850000Y-168400000D01*
%TO.C,D22*%
X179450000Y-148600000D02*
X179950000Y-148600000D01*
X179450000Y-149000000D02*
X178850000Y-148600000D01*
X179450000Y-148200000D02*
X179450000Y-149000000D01*
X178850000Y-148600000D02*
X179450000Y-148200000D01*
X178850000Y-148600000D02*
X178850000Y-149150000D01*
X178850000Y-148600000D02*
X178850000Y-148050000D01*
X178450000Y-148600000D02*
X178850000Y-148600000D01*
%TO.C,D23*%
X179450000Y-128800000D02*
X179950000Y-128800000D01*
X179450000Y-129200000D02*
X178850000Y-128800000D01*
X179450000Y-128400000D02*
X179450000Y-129200000D01*
X178850000Y-128800000D02*
X179450000Y-128400000D01*
X178850000Y-128800000D02*
X178850000Y-129350000D01*
X178850000Y-128800000D02*
X178850000Y-128250000D01*
X178450000Y-128800000D02*
X178850000Y-128800000D01*
%TO.C,D24*%
X199250000Y-212000000D02*
X199750000Y-212000000D01*
X199250000Y-212400000D02*
X198650000Y-212000000D01*
X199250000Y-211600000D02*
X199250000Y-212400000D01*
X198650000Y-212000000D02*
X199250000Y-211600000D01*
X198650000Y-212000000D02*
X198650000Y-212550000D01*
X198650000Y-212000000D02*
X198650000Y-211450000D01*
X198250000Y-212000000D02*
X198650000Y-212000000D01*
%TO.C,D25*%
X199250000Y-192200000D02*
X199750000Y-192200000D01*
X199250000Y-192600000D02*
X198650000Y-192200000D01*
X199250000Y-191800000D02*
X199250000Y-192600000D01*
X198650000Y-192200000D02*
X199250000Y-191800000D01*
X198650000Y-192200000D02*
X198650000Y-192750000D01*
X198650000Y-192200000D02*
X198650000Y-191650000D01*
X198250000Y-192200000D02*
X198650000Y-192200000D01*
%TO.C,D26*%
X199250000Y-172400000D02*
X199750000Y-172400000D01*
X199250000Y-172800000D02*
X198650000Y-172400000D01*
X199250000Y-172000000D02*
X199250000Y-172800000D01*
X198650000Y-172400000D02*
X199250000Y-172000000D01*
X198650000Y-172400000D02*
X198650000Y-172950000D01*
X198650000Y-172400000D02*
X198650000Y-171850000D01*
X198250000Y-172400000D02*
X198650000Y-172400000D01*
%TO.C,D27*%
X199250000Y-152600000D02*
X199750000Y-152600000D01*
X199250000Y-153000000D02*
X198650000Y-152600000D01*
X199250000Y-152200000D02*
X199250000Y-153000000D01*
X198650000Y-152600000D02*
X199250000Y-152200000D01*
X198650000Y-152600000D02*
X198650000Y-153150000D01*
X198650000Y-152600000D02*
X198650000Y-152050000D01*
X198250000Y-152600000D02*
X198650000Y-152600000D01*
%TO.C,D28*%
X199250000Y-132800000D02*
X199750000Y-132800000D01*
X199250000Y-133200000D02*
X198650000Y-132800000D01*
X199250000Y-132400000D02*
X199250000Y-133200000D01*
X198650000Y-132800000D02*
X199250000Y-132400000D01*
X198650000Y-132800000D02*
X198650000Y-133350000D01*
X198650000Y-132800000D02*
X198650000Y-132250000D01*
X198250000Y-132800000D02*
X198650000Y-132800000D01*
%TO.C,D29*%
X219050000Y-212000000D02*
X219550000Y-212000000D01*
X219050000Y-212400000D02*
X218450000Y-212000000D01*
X219050000Y-211600000D02*
X219050000Y-212400000D01*
X218450000Y-212000000D02*
X219050000Y-211600000D01*
X218450000Y-212000000D02*
X218450000Y-212550000D01*
X218450000Y-212000000D02*
X218450000Y-211450000D01*
X218050000Y-212000000D02*
X218450000Y-212000000D01*
%TO.C,D30*%
X219050000Y-192200000D02*
X219550000Y-192200000D01*
X219050000Y-192600000D02*
X218450000Y-192200000D01*
X219050000Y-191800000D02*
X219050000Y-192600000D01*
X218450000Y-192200000D02*
X219050000Y-191800000D01*
X218450000Y-192200000D02*
X218450000Y-192750000D01*
X218450000Y-192200000D02*
X218450000Y-191650000D01*
X218050000Y-192200000D02*
X218450000Y-192200000D01*
%TO.C,D31*%
X219050000Y-172400000D02*
X219550000Y-172400000D01*
X219050000Y-172800000D02*
X218450000Y-172400000D01*
X219050000Y-172000000D02*
X219050000Y-172800000D01*
X218450000Y-172400000D02*
X219050000Y-172000000D01*
X218450000Y-172400000D02*
X218450000Y-172950000D01*
X218450000Y-172400000D02*
X218450000Y-171850000D01*
X218050000Y-172400000D02*
X218450000Y-172400000D01*
%TO.C,D32*%
X219050000Y-152600000D02*
X219550000Y-152600000D01*
X219050000Y-153000000D02*
X218450000Y-152600000D01*
X219050000Y-152200000D02*
X219050000Y-153000000D01*
X218450000Y-152600000D02*
X219050000Y-152200000D01*
X218450000Y-152600000D02*
X218450000Y-153150000D01*
X218450000Y-152600000D02*
X218450000Y-152050000D01*
X218050000Y-152600000D02*
X218450000Y-152600000D01*
%TO.C,D33*%
X238850000Y-212000000D02*
X239350000Y-212000000D01*
X238850000Y-212400000D02*
X238250000Y-212000000D01*
X238850000Y-211600000D02*
X238850000Y-212400000D01*
X238250000Y-212000000D02*
X238850000Y-211600000D01*
X238250000Y-212000000D02*
X238250000Y-212550000D01*
X238250000Y-212000000D02*
X238250000Y-211450000D01*
X237850000Y-212000000D02*
X238250000Y-212000000D01*
%TO.C,D34*%
X238850000Y-192200000D02*
X239350000Y-192200000D01*
X238850000Y-192600000D02*
X238250000Y-192200000D01*
X238850000Y-191800000D02*
X238850000Y-192600000D01*
X238250000Y-192200000D02*
X238850000Y-191800000D01*
X238250000Y-192200000D02*
X238250000Y-192750000D01*
X238250000Y-192200000D02*
X238250000Y-191650000D01*
X237850000Y-192200000D02*
X238250000Y-192200000D01*
%TO.C,D36*%
X229325000Y-132800000D02*
X229825000Y-132800000D01*
X229325000Y-133200000D02*
X228725000Y-132800000D01*
X229325000Y-132400000D02*
X229325000Y-133200000D01*
X228725000Y-132800000D02*
X229325000Y-132400000D01*
X228725000Y-132800000D02*
X228725000Y-133350000D01*
X228725000Y-132800000D02*
X228725000Y-132250000D01*
X228325000Y-132800000D02*
X228725000Y-132800000D01*
%TO.C,MCU1*%
D12*
X115240000Y-108410000D02*
X82220000Y-108410000D01*
X115240000Y-126190000D02*
X115240000Y-108410000D01*
X82220000Y-126190000D02*
X115240000Y-126190000D01*
X82220000Y-108410000D02*
X82220000Y-126190000D01*
%TO.C,JST1*%
D10*
X142850000Y-108050000D02*
X141250000Y-108050000D01*
X141250000Y-108050000D02*
X141250000Y-108750000D01*
X141250000Y-108750000D02*
X148850000Y-108750000D01*
X148850000Y-108750000D02*
X148850000Y-102850000D01*
X148850000Y-102850000D02*
X141250000Y-102850000D01*
X141250000Y-102850000D02*
X141250000Y-103550000D01*
X141250000Y-103550000D02*
X142850000Y-103550000D01*
X142850000Y-103550000D02*
X142850000Y-108050000D01*
X144100000Y-106800000D02*
X144600000Y-106800000D01*
X144350000Y-107050000D02*
X144350000Y-106550000D01*
%TD*%
D13*
%TO.C,MCU1*%
X86030000Y-124920000D03*
X88570000Y-124920000D03*
X91110000Y-124920000D03*
X93650000Y-124920000D03*
X96190000Y-124920000D03*
X98730000Y-124920000D03*
X101270000Y-124920000D03*
X103810000Y-124920000D03*
X106350000Y-124920000D03*
X108890000Y-124920000D03*
X111430000Y-124920000D03*
X113970000Y-124920000D03*
X113970000Y-109680000D03*
X111430000Y-109680000D03*
X108890000Y-109680000D03*
X106350000Y-109680000D03*
X103810000Y-109680000D03*
X101270000Y-109680000D03*
X98730000Y-109680000D03*
X96190000Y-109680000D03*
X93650000Y-109680000D03*
X91110000Y-109680000D03*
X88570000Y-109680000D03*
X86030000Y-109680000D03*
X108890000Y-122380000D03*
X108890000Y-119840000D03*
X108890000Y-117300000D03*
%TD*%
%TO.C,SW1*%
X133800000Y-105070000D03*
X133800000Y-102530000D03*
%TD*%
%TO.C,SW2*%
X129800000Y-102530000D03*
X129800000Y-105070000D03*
%TD*%
M02*
