%TF.GenerationSoftware,KiCad,Pcbnew,10.0.0*%
%TF.CreationDate,2026-03-28T23:53:37+01:00*%
%TF.ProjectId,Bifrost_right,42696672-6f73-4745-9f72-696768742e6b,v1.0.0*%
%TF.SameCoordinates,Original*%
%TF.FileFunction,Copper,L2,Bot*%
%TF.FilePolarity,Positive*%
%FSLAX46Y46*%
G04 Gerber Fmt 4.6, Leading zero omitted, Abs format (unit mm)*
G04 Created by KiCad (PCBNEW 10.0.0) date 2026-03-28 23:53:37*
%MOMM*%
%LPD*%
G01*
G04 APERTURE LIST*
%TA.AperFunction,SMDPad,CuDef*%
%ADD10R,2.550000X2.500000*%
%TD*%
%TA.AperFunction,ComponentPad*%
%ADD11C,1.905000*%
%TD*%
%TA.AperFunction,ComponentPad*%
%ADD12R,1.778000X1.778000*%
%TD*%
%TA.AperFunction,SMDPad,CuDef*%
%ADD13R,1.200000X0.900000*%
%TD*%
%TA.AperFunction,SMDPad,CuDef*%
%ADD14R,0.900000X1.200000*%
%TD*%
%TA.AperFunction,ComponentPad*%
%ADD15C,1.752600*%
%TD*%
%TA.AperFunction,ComponentPad*%
%ADD16R,1.700000X1.200000*%
%TD*%
%TA.AperFunction,ComponentPad*%
%ADD17O,1.700000X1.200000*%
%TD*%
%TA.AperFunction,Conductor*%
%ADD18C,0.250000*%
%TD*%
G04 APERTURE END LIST*
D10*
%TO.P,S5,2*%
%TO.N,c2_r5*%
X125642000Y-194920000D03*
%TO.P,S5,1*%
%TO.N,P029*%
X112715000Y-197460000D03*
%TD*%
%TO.P,S35,1*%
%TO.N,P111*%
X231515000Y-149585000D03*
%TO.P,S35,2*%
%TO.N,c8_r2*%
X244442000Y-147045000D03*
%TD*%
D11*
%TO.P,D35,2*%
%TO.N,c8_r2*%
X248500000Y-147540000D03*
D12*
%TO.P,D35,1*%
%TO.N,P024*%
X248500000Y-155160000D03*
D13*
X248500000Y-153000000D03*
%TO.P,D35,2*%
%TO.N,c8_r2*%
X248500000Y-149700000D03*
%TD*%
D10*
%TO.P,S1,1*%
%TO.N,P031*%
X92915000Y-177660000D03*
%TO.P,S1,2*%
%TO.N,c1_r4*%
X105842000Y-175120000D03*
%TD*%
%TO.P,S2,1*%
%TO.N,P031*%
X92915000Y-157860000D03*
%TO.P,S2,2*%
%TO.N,c1_r3*%
X105842000Y-155320000D03*
%TD*%
%TO.P,S3,1*%
%TO.N,P031*%
X92915000Y-138060000D03*
%TO.P,S3,2*%
%TO.N,c1_r2*%
X105842000Y-135520000D03*
%TD*%
%TO.P,S4,1*%
%TO.N,P031*%
X92915000Y-118260000D03*
%TO.P,S4,2*%
%TO.N,c1_r1*%
X105842000Y-115720000D03*
%TD*%
%TO.P,S6,1*%
%TO.N,P029*%
X112715000Y-177660000D03*
%TO.P,S6,2*%
%TO.N,c2_r4*%
X125642000Y-175120000D03*
%TD*%
%TO.P,S7,1*%
%TO.N,P029*%
X112715000Y-157860000D03*
%TO.P,S7,2*%
%TO.N,c2_r3*%
X125642000Y-155320000D03*
%TD*%
%TO.P,S8,1*%
%TO.N,P029*%
X112715000Y-138060000D03*
%TO.P,S8,2*%
%TO.N,c2_r2*%
X125642000Y-135520000D03*
%TD*%
%TO.P,S9,1*%
%TO.N,P029*%
X112715000Y-118260000D03*
%TO.P,S9,2*%
%TO.N,c2_r1*%
X125642000Y-115720000D03*
%TD*%
%TO.P,S10,1*%
%TO.N,P002*%
X132515000Y-175660000D03*
%TO.P,S10,2*%
%TO.N,c3_r4*%
X145442000Y-173120000D03*
%TD*%
%TO.P,S11,1*%
%TO.N,P002*%
X132515000Y-155860000D03*
%TO.P,S11,2*%
%TO.N,c3_r3*%
X145442000Y-153320000D03*
%TD*%
%TO.P,S12,1*%
%TO.N,P002*%
X132515000Y-136060000D03*
%TO.P,S12,2*%
%TO.N,c3_r2*%
X145442000Y-133520000D03*
%TD*%
%TO.P,S13,1*%
%TO.N,P002*%
X132515000Y-116260000D03*
%TO.P,S13,2*%
%TO.N,c3_r1*%
X145442000Y-113720000D03*
%TD*%
%TO.P,S14,1*%
%TO.N,P115*%
X152315000Y-193460000D03*
%TO.P,S14,2*%
%TO.N,c4_r5*%
X165242000Y-190920000D03*
%TD*%
%TO.P,S15,1*%
%TO.N,P115*%
X152315000Y-173660000D03*
%TO.P,S15,2*%
%TO.N,c4_r4*%
X165242000Y-171120000D03*
%TD*%
%TO.P,S16,1*%
%TO.N,P115*%
X152315000Y-153860000D03*
%TO.P,S16,2*%
%TO.N,c4_r3*%
X165242000Y-151320000D03*
%TD*%
%TO.P,S17,1*%
%TO.N,P115*%
X152315000Y-134060000D03*
%TO.P,S17,2*%
%TO.N,c4_r2*%
X165242000Y-131520000D03*
%TD*%
%TO.P,S18,1*%
%TO.N,P115*%
X152315000Y-114260000D03*
%TO.P,S18,2*%
%TO.N,c4_r1*%
X165242000Y-111720000D03*
%TD*%
%TO.P,S19,1*%
%TO.N,P113*%
X172115000Y-195460000D03*
%TO.P,S19,2*%
%TO.N,c5_r5*%
X185042000Y-192920000D03*
%TD*%
%TO.P,S20,1*%
%TO.N,P113*%
X172115000Y-175660000D03*
%TO.P,S20,2*%
%TO.N,c5_r4*%
X185042000Y-173120000D03*
%TD*%
%TO.P,S21,1*%
%TO.N,P113*%
X172115000Y-155860000D03*
%TO.P,S21,2*%
%TO.N,c5_r3*%
X185042000Y-153320000D03*
%TD*%
%TO.P,S22,1*%
%TO.N,P113*%
X172115000Y-136060000D03*
%TO.P,S22,2*%
%TO.N,c5_r2*%
X185042000Y-133520000D03*
%TD*%
%TO.P,S23,1*%
%TO.N,P113*%
X172115000Y-116260000D03*
%TO.P,S23,2*%
%TO.N,c5_r1*%
X185042000Y-113720000D03*
%TD*%
%TO.P,S24,1*%
%TO.N,P009*%
X191915000Y-199460000D03*
%TO.P,S24,2*%
%TO.N,c6_r5*%
X204842000Y-196920000D03*
%TD*%
%TO.P,S25,1*%
%TO.N,P009*%
X191915000Y-179660000D03*
%TO.P,S25,2*%
%TO.N,c6_r4*%
X204842000Y-177120000D03*
%TD*%
%TO.P,S26,1*%
%TO.N,P009*%
X191915000Y-159860000D03*
%TO.P,S26,2*%
%TO.N,c6_r3*%
X204842000Y-157320000D03*
%TD*%
%TO.P,S27,1*%
%TO.N,P009*%
X191915000Y-140060000D03*
%TO.P,S27,2*%
%TO.N,c6_r2*%
X204842000Y-137520000D03*
%TD*%
%TO.P,S28,1*%
%TO.N,P009*%
X191915000Y-120260000D03*
%TO.P,S28,2*%
%TO.N,c6_r1*%
X204842000Y-117720000D03*
%TD*%
%TO.P,S29,1*%
%TO.N,P010*%
X211715000Y-199460000D03*
%TO.P,S29,2*%
%TO.N,c7_r5*%
X224642000Y-196920000D03*
%TD*%
%TO.P,S30,1*%
%TO.N,P010*%
X211715000Y-179660000D03*
%TO.P,S30,2*%
%TO.N,c7_r4*%
X224642000Y-177120000D03*
%TD*%
%TO.P,S31,1*%
%TO.N,P010*%
X211715000Y-159860000D03*
%TO.P,S31,2*%
%TO.N,c7_r3*%
X224642000Y-157320000D03*
%TD*%
%TO.P,S32,1*%
%TO.N,P010*%
X211715000Y-140060000D03*
%TO.P,S32,2*%
%TO.N,c7_r2*%
X224642000Y-137520000D03*
%TD*%
%TO.P,S33,1*%
%TO.N,P111*%
X231515000Y-199460000D03*
%TO.P,S33,2*%
%TO.N,c8_r5*%
X244442000Y-196920000D03*
%TD*%
%TO.P,S34,1*%
%TO.N,P111*%
X231515000Y-179660000D03*
%TO.P,S34,2*%
%TO.N,c8_r4*%
X244442000Y-177120000D03*
%TD*%
%TO.P,S36,1*%
%TO.N,P111*%
X221990000Y-120260000D03*
%TO.P,S36,2*%
%TO.N,c8_r1*%
X234917000Y-117720000D03*
%TD*%
D14*
%TO.P,D1,2*%
%TO.N,c1_r4*%
X101650000Y-190200000D03*
%TO.P,D1,1*%
%TO.N,P020*%
X98350000Y-190200000D03*
D12*
X96190000Y-190200000D03*
D11*
%TO.P,D1,2*%
%TO.N,c1_r4*%
X103810000Y-190200000D03*
%TD*%
D14*
%TO.P,D2,2*%
%TO.N,c1_r3*%
X101650000Y-170400000D03*
%TO.P,D2,1*%
%TO.N,P022*%
X98350000Y-170400000D03*
D12*
X96190000Y-170400000D03*
D11*
%TO.P,D2,2*%
%TO.N,c1_r3*%
X103810000Y-170400000D03*
%TD*%
D14*
%TO.P,D3,2*%
%TO.N,c1_r2*%
X101650000Y-150600000D03*
%TO.P,D3,1*%
%TO.N,P024*%
X98350000Y-150600000D03*
D12*
X96190000Y-150600000D03*
D11*
%TO.P,D3,2*%
%TO.N,c1_r2*%
X103810000Y-150600000D03*
%TD*%
D14*
%TO.P,D4,2*%
%TO.N,c1_r1*%
X101650000Y-130800000D03*
%TO.P,D4,1*%
%TO.N,P100*%
X98350000Y-130800000D03*
D12*
X96190000Y-130800000D03*
D11*
%TO.P,D4,2*%
%TO.N,c1_r1*%
X103810000Y-130800000D03*
%TD*%
D14*
%TO.P,D5,2*%
%TO.N,c2_r5*%
X121450000Y-210000000D03*
%TO.P,D5,1*%
%TO.N,P017*%
X118150000Y-210000000D03*
D12*
X115990000Y-210000000D03*
D11*
%TO.P,D5,2*%
%TO.N,c2_r5*%
X123610000Y-210000000D03*
%TD*%
D14*
%TO.P,D6,2*%
%TO.N,c2_r4*%
X121450000Y-190200000D03*
%TO.P,D6,1*%
%TO.N,P020*%
X118150000Y-190200000D03*
D12*
X115990000Y-190200000D03*
D11*
%TO.P,D6,2*%
%TO.N,c2_r4*%
X123610000Y-190200000D03*
%TD*%
D14*
%TO.P,D7,2*%
%TO.N,c2_r3*%
X121450000Y-170400000D03*
%TO.P,D7,1*%
%TO.N,P022*%
X118150000Y-170400000D03*
D12*
X115990000Y-170400000D03*
D11*
%TO.P,D7,2*%
%TO.N,c2_r3*%
X123610000Y-170400000D03*
%TD*%
D14*
%TO.P,D8,2*%
%TO.N,c2_r2*%
X121450000Y-150600000D03*
%TO.P,D8,1*%
%TO.N,P024*%
X118150000Y-150600000D03*
D12*
X115990000Y-150600000D03*
D11*
%TO.P,D8,2*%
%TO.N,c2_r2*%
X123610000Y-150600000D03*
%TD*%
D14*
%TO.P,D9,2*%
%TO.N,c2_r1*%
X121450000Y-130800000D03*
%TO.P,D9,1*%
%TO.N,P100*%
X118150000Y-130800000D03*
D12*
X115990000Y-130800000D03*
D11*
%TO.P,D9,2*%
%TO.N,c2_r1*%
X123610000Y-130800000D03*
%TD*%
D14*
%TO.P,D10,2*%
%TO.N,c3_r4*%
X141250000Y-188200000D03*
%TO.P,D10,1*%
%TO.N,P020*%
X137950000Y-188200000D03*
D12*
X135790000Y-188200000D03*
D11*
%TO.P,D10,2*%
%TO.N,c3_r4*%
X143410000Y-188200000D03*
%TD*%
D14*
%TO.P,D11,2*%
%TO.N,c3_r3*%
X141250000Y-168400000D03*
%TO.P,D11,1*%
%TO.N,P022*%
X137950000Y-168400000D03*
D12*
X135790000Y-168400000D03*
D11*
%TO.P,D11,2*%
%TO.N,c3_r3*%
X143410000Y-168400000D03*
%TD*%
D14*
%TO.P,D12,2*%
%TO.N,c3_r2*%
X141250000Y-148600000D03*
%TO.P,D12,1*%
%TO.N,P024*%
X137950000Y-148600000D03*
D12*
X135790000Y-148600000D03*
D11*
%TO.P,D12,2*%
%TO.N,c3_r2*%
X143410000Y-148600000D03*
%TD*%
D14*
%TO.P,D13,2*%
%TO.N,c3_r1*%
X141250000Y-128800000D03*
%TO.P,D13,1*%
%TO.N,P100*%
X137950000Y-128800000D03*
D12*
X135790000Y-128800000D03*
D11*
%TO.P,D13,2*%
%TO.N,c3_r1*%
X143410000Y-128800000D03*
%TD*%
D14*
%TO.P,D14,2*%
%TO.N,c4_r5*%
X161050000Y-206000000D03*
%TO.P,D14,1*%
%TO.N,P017*%
X157750000Y-206000000D03*
D12*
X155590000Y-206000000D03*
D11*
%TO.P,D14,2*%
%TO.N,c4_r5*%
X163210000Y-206000000D03*
%TD*%
D14*
%TO.P,D15,2*%
%TO.N,c4_r4*%
X161050000Y-186200000D03*
%TO.P,D15,1*%
%TO.N,P020*%
X157750000Y-186200000D03*
D12*
X155590000Y-186200000D03*
D11*
%TO.P,D15,2*%
%TO.N,c4_r4*%
X163210000Y-186200000D03*
%TD*%
D14*
%TO.P,D16,2*%
%TO.N,c4_r3*%
X161050000Y-166400000D03*
%TO.P,D16,1*%
%TO.N,P022*%
X157750000Y-166400000D03*
D12*
X155590000Y-166400000D03*
D11*
%TO.P,D16,2*%
%TO.N,c4_r3*%
X163210000Y-166400000D03*
%TD*%
D14*
%TO.P,D17,2*%
%TO.N,c4_r2*%
X161050000Y-146600000D03*
%TO.P,D17,1*%
%TO.N,P024*%
X157750000Y-146600000D03*
D12*
X155590000Y-146600000D03*
D11*
%TO.P,D17,2*%
%TO.N,c4_r2*%
X163210000Y-146600000D03*
%TD*%
D14*
%TO.P,D18,2*%
%TO.N,c4_r1*%
X161050000Y-126800000D03*
%TO.P,D18,1*%
%TO.N,P100*%
X157750000Y-126800000D03*
D12*
X155590000Y-126800000D03*
D11*
%TO.P,D18,2*%
%TO.N,c4_r1*%
X163210000Y-126800000D03*
%TD*%
D14*
%TO.P,D19,2*%
%TO.N,c5_r5*%
X180850000Y-208000000D03*
%TO.P,D19,1*%
%TO.N,P017*%
X177550000Y-208000000D03*
D12*
X175390000Y-208000000D03*
D11*
%TO.P,D19,2*%
%TO.N,c5_r5*%
X183010000Y-208000000D03*
%TD*%
D14*
%TO.P,D20,2*%
%TO.N,c5_r4*%
X180850000Y-188200000D03*
%TO.P,D20,1*%
%TO.N,P020*%
X177550000Y-188200000D03*
D12*
X175390000Y-188200000D03*
D11*
%TO.P,D20,2*%
%TO.N,c5_r4*%
X183010000Y-188200000D03*
%TD*%
D14*
%TO.P,D21,2*%
%TO.N,c5_r3*%
X180850000Y-168400000D03*
%TO.P,D21,1*%
%TO.N,P022*%
X177550000Y-168400000D03*
D12*
X175390000Y-168400000D03*
D11*
%TO.P,D21,2*%
%TO.N,c5_r3*%
X183010000Y-168400000D03*
%TD*%
D14*
%TO.P,D22,2*%
%TO.N,c5_r2*%
X180850000Y-148600000D03*
%TO.P,D22,1*%
%TO.N,P024*%
X177550000Y-148600000D03*
D12*
X175390000Y-148600000D03*
D11*
%TO.P,D22,2*%
%TO.N,c5_r2*%
X183010000Y-148600000D03*
%TD*%
D14*
%TO.P,D23,2*%
%TO.N,c5_r1*%
X180850000Y-128800000D03*
%TO.P,D23,1*%
%TO.N,P100*%
X177550000Y-128800000D03*
D12*
X175390000Y-128800000D03*
D11*
%TO.P,D23,2*%
%TO.N,c5_r1*%
X183010000Y-128800000D03*
%TD*%
D14*
%TO.P,D24,2*%
%TO.N,c6_r5*%
X200650000Y-212000000D03*
%TO.P,D24,1*%
%TO.N,P017*%
X197350000Y-212000000D03*
D12*
X195190000Y-212000000D03*
D11*
%TO.P,D24,2*%
%TO.N,c6_r5*%
X202810000Y-212000000D03*
%TD*%
D14*
%TO.P,D25,2*%
%TO.N,c6_r4*%
X200650000Y-192200000D03*
%TO.P,D25,1*%
%TO.N,P020*%
X197350000Y-192200000D03*
D12*
X195190000Y-192200000D03*
D11*
%TO.P,D25,2*%
%TO.N,c6_r4*%
X202810000Y-192200000D03*
%TD*%
D14*
%TO.P,D26,2*%
%TO.N,c6_r3*%
X200650000Y-172400000D03*
%TO.P,D26,1*%
%TO.N,P022*%
X197350000Y-172400000D03*
D12*
X195190000Y-172400000D03*
D11*
%TO.P,D26,2*%
%TO.N,c6_r3*%
X202810000Y-172400000D03*
%TD*%
D14*
%TO.P,D27,2*%
%TO.N,c6_r2*%
X200650000Y-152600000D03*
%TO.P,D27,1*%
%TO.N,P024*%
X197350000Y-152600000D03*
D12*
X195190000Y-152600000D03*
D11*
%TO.P,D27,2*%
%TO.N,c6_r2*%
X202810000Y-152600000D03*
%TD*%
D14*
%TO.P,D28,2*%
%TO.N,c6_r1*%
X200650000Y-132800000D03*
%TO.P,D28,1*%
%TO.N,P100*%
X197350000Y-132800000D03*
D12*
X195190000Y-132800000D03*
D11*
%TO.P,D28,2*%
%TO.N,c6_r1*%
X202810000Y-132800000D03*
%TD*%
D14*
%TO.P,D29,2*%
%TO.N,c7_r5*%
X220450000Y-212000000D03*
%TO.P,D29,1*%
%TO.N,P017*%
X217150000Y-212000000D03*
D12*
X214990000Y-212000000D03*
D11*
%TO.P,D29,2*%
%TO.N,c7_r5*%
X222610000Y-212000000D03*
%TD*%
D14*
%TO.P,D30,2*%
%TO.N,c7_r4*%
X220450000Y-192200000D03*
%TO.P,D30,1*%
%TO.N,P020*%
X217150000Y-192200000D03*
D12*
X214990000Y-192200000D03*
D11*
%TO.P,D30,2*%
%TO.N,c7_r4*%
X222610000Y-192200000D03*
%TD*%
D14*
%TO.P,D31,2*%
%TO.N,c7_r3*%
X220450000Y-172400000D03*
%TO.P,D31,1*%
%TO.N,P022*%
X217150000Y-172400000D03*
D12*
X214990000Y-172400000D03*
D11*
%TO.P,D31,2*%
%TO.N,c7_r3*%
X222610000Y-172400000D03*
%TD*%
D14*
%TO.P,D32,2*%
%TO.N,c7_r2*%
X220450000Y-152600000D03*
%TO.P,D32,1*%
%TO.N,P024*%
X217150000Y-152600000D03*
D12*
X214990000Y-152600000D03*
D11*
%TO.P,D32,2*%
%TO.N,c7_r2*%
X222610000Y-152600000D03*
%TD*%
D14*
%TO.P,D33,2*%
%TO.N,c8_r5*%
X240250000Y-212000000D03*
%TO.P,D33,1*%
%TO.N,P017*%
X236950000Y-212000000D03*
D12*
X234790000Y-212000000D03*
D11*
%TO.P,D33,2*%
%TO.N,c8_r5*%
X242410000Y-212000000D03*
%TD*%
D14*
%TO.P,D34,2*%
%TO.N,c8_r4*%
X240250000Y-192200000D03*
%TO.P,D34,1*%
%TO.N,P020*%
X236950000Y-192200000D03*
D12*
X234790000Y-192200000D03*
D11*
%TO.P,D34,2*%
%TO.N,c8_r4*%
X242410000Y-192200000D03*
%TD*%
D14*
%TO.P,D36,2*%
%TO.N,c8_r1*%
X230725000Y-132800000D03*
%TO.P,D36,1*%
%TO.N,P100*%
X227425000Y-132800000D03*
D12*
X225265000Y-132800000D03*
D11*
%TO.P,D36,2*%
%TO.N,c8_r1*%
X232885000Y-132800000D03*
%TD*%
D15*
%TO.P,MCU1,1*%
%TO.N,P006*%
X86030000Y-124920000D03*
%TO.P,MCU1,2*%
%TO.N,P008*%
X88570000Y-124920000D03*
%TO.P,MCU1,3*%
%TO.N,GND*%
X91110000Y-124920000D03*
%TO.P,MCU1,4*%
X93650000Y-124920000D03*
%TO.P,MCU1,5*%
%TO.N,P017*%
X96190000Y-124920000D03*
%TO.P,MCU1,6*%
%TO.N,P020*%
X98730000Y-124920000D03*
%TO.P,MCU1,7*%
%TO.N,P022*%
X101270000Y-124920000D03*
%TO.P,MCU1,8*%
%TO.N,P024*%
X103810000Y-124920000D03*
%TO.P,MCU1,9*%
%TO.N,P100*%
X106350000Y-124920000D03*
%TO.P,MCU1,10*%
%TO.N,P011*%
X108890000Y-124920000D03*
%TO.P,MCU1,11*%
%TO.N,P104*%
X111430000Y-124920000D03*
%TO.P,MCU1,12*%
%TO.N,P106*%
X113970000Y-124920000D03*
%TO.P,MCU1,13*%
%TO.N,P009*%
X113970000Y-109680000D03*
%TO.P,MCU1,14*%
%TO.N,P010*%
X111430000Y-109680000D03*
%TO.P,MCU1,15*%
%TO.N,P111*%
X108890000Y-109680000D03*
%TO.P,MCU1,16*%
%TO.N,P113*%
X106350000Y-109680000D03*
%TO.P,MCU1,17*%
%TO.N,P115*%
X103810000Y-109680000D03*
%TO.P,MCU1,18*%
%TO.N,P002*%
X101270000Y-109680000D03*
%TO.P,MCU1,19*%
%TO.N,P029*%
X98730000Y-109680000D03*
%TO.P,MCU1,20*%
%TO.N,P031*%
X96190000Y-109680000D03*
%TO.P,MCU1,21*%
%TO.N,VCC*%
X93650000Y-109680000D03*
%TO.P,MCU1,22*%
%TO.N,RST*%
X91110000Y-109680000D03*
%TO.P,MCU1,23*%
%TO.N,GND*%
X88570000Y-109680000D03*
%TO.P,MCU1,24*%
%TO.N,RAW*%
X86030000Y-109680000D03*
%TO.P,MCU1,31*%
%TO.N,P101*%
X108890000Y-122380000D03*
%TO.P,MCU1,32*%
%TO.N,P102*%
X108890000Y-119840000D03*
%TO.P,MCU1,33*%
%TO.N,P107*%
X108890000Y-117300000D03*
%TD*%
D16*
%TO.P,JST1,1*%
%TO.N,pos*%
X142600000Y-106800000D03*
D17*
%TO.P,JST1,2*%
%TO.N,GND*%
X142600000Y-104800000D03*
%TD*%
D15*
%TO.P,SW1,1*%
%TO.N,pos*%
X133800000Y-105070000D03*
%TO.P,SW1,2*%
%TO.N,RAW*%
X133800000Y-102530000D03*
%TD*%
%TO.P,SW2,1*%
%TO.N,GND*%
X129800000Y-102530000D03*
%TO.P,SW2,2*%
%TO.N,RST*%
X129800000Y-105070000D03*
%TD*%
%TO.N,P031*%
D18*
X92915000Y-122486105D02*
X94851300Y-124422405D01*
X94851300Y-124422405D02*
X94851300Y-136123700D01*
X92915000Y-118260000D02*
X92915000Y-122486105D01*
X94851300Y-136123700D02*
X92915000Y-138060000D01*
X92915000Y-138060000D02*
X92915000Y-157860000D01*
X92915000Y-177660000D02*
X92915000Y-157860000D01*
%TO.N,c6_r1*%
X202810000Y-132800000D02*
X200650000Y-132800000D01*
%TO.N,c2_r3*%
X121450000Y-170400000D02*
X123610000Y-170400000D01*
%TO.N,P022*%
X118150000Y-170400000D02*
X115990000Y-170400000D01*
%TO.N,c5_r4*%
X180850000Y-188200000D02*
X183010000Y-188200000D01*
%TO.N,P020*%
X177550000Y-188200000D02*
X175390000Y-188200000D01*
%TO.N,c6_r4*%
X200650000Y-192200000D02*
X202810000Y-192200000D01*
%TO.N,P020*%
X197350000Y-192200000D02*
X195190000Y-192200000D01*
%TO.N,P017*%
X177550000Y-208000000D02*
X175390000Y-208000000D01*
%TO.N,c5_r5*%
X180850000Y-208000000D02*
X183010000Y-208000000D01*
%TO.N,c7_r4*%
X220450000Y-192200000D02*
X222610000Y-192200000D01*
%TO.N,P020*%
X217150000Y-192200000D02*
X214990000Y-192200000D01*
%TO.N,c8_r4*%
X240250000Y-192200000D02*
X242410000Y-192200000D01*
%TO.N,P020*%
X236950000Y-192200000D02*
X234790000Y-192200000D01*
%TO.N,c7_r3*%
X220450000Y-172400000D02*
X222610000Y-172400000D01*
%TO.N,P022*%
X217150000Y-172400000D02*
X214990000Y-172400000D01*
%TO.N,c6_r3*%
X200650000Y-172400000D02*
X202810000Y-172400000D01*
%TO.N,P022*%
X197350000Y-172400000D02*
X195190000Y-172400000D01*
%TO.N,c5_r3*%
X180850000Y-168400000D02*
X183010000Y-168400000D01*
%TO.N,P022*%
X177550000Y-168400000D02*
X175390000Y-168400000D01*
%TO.N,c4_r3*%
X161050000Y-166400000D02*
X163210000Y-166400000D01*
%TO.N,P022*%
X157750000Y-166400000D02*
X155590000Y-166400000D01*
%TO.N,c3_r3*%
X141250000Y-168400000D02*
X143410000Y-168400000D01*
%TO.N,P022*%
X137950000Y-168400000D02*
X135790000Y-168400000D01*
%TO.N,c2_r5*%
X121450000Y-210000000D02*
X123610000Y-210000000D01*
%TO.N,P017*%
X118150000Y-210000000D02*
X115990000Y-210000000D01*
%TO.N,c8_r5*%
X240250000Y-212000000D02*
X242410000Y-212000000D01*
%TO.N,P017*%
X236950000Y-212000000D02*
X234790000Y-212000000D01*
%TO.N,c7_r5*%
X220450000Y-212000000D02*
X222610000Y-212000000D01*
%TO.N,P017*%
X217150000Y-212000000D02*
X214990000Y-212000000D01*
%TO.N,c6_r5*%
X200650000Y-212000000D02*
X202810000Y-212000000D01*
%TO.N,P017*%
X197350000Y-212000000D02*
X195190000Y-212000000D01*
%TO.N,c4_r5*%
X161050000Y-206000000D02*
X163210000Y-206000000D01*
%TO.N,P017*%
X157750000Y-206000000D02*
X155590000Y-206000000D01*
%TO.N,c4_r4*%
X161050000Y-186200000D02*
X163210000Y-186200000D01*
%TO.N,P020*%
X157750000Y-186200000D02*
X155590000Y-186200000D01*
%TO.N,c3_r4*%
X141250000Y-188200000D02*
X143410000Y-188200000D01*
%TO.N,P020*%
X137950000Y-188200000D02*
X135790000Y-188200000D01*
%TO.N,c2_r4*%
X121450000Y-190200000D02*
X123610000Y-190200000D01*
%TO.N,P020*%
X118150000Y-190200000D02*
X115990000Y-190200000D01*
%TO.N,c1_r4*%
X101650000Y-190200000D02*
X103810000Y-190200000D01*
%TO.N,P020*%
X98350000Y-190200000D02*
X96190000Y-190200000D01*
%TO.N,c1_r3*%
X101650000Y-170400000D02*
X103810000Y-170400000D01*
%TO.N,P022*%
X98350000Y-170400000D02*
X96190000Y-170400000D01*
%TO.N,P024*%
X98350000Y-150600000D02*
X96190000Y-150600000D01*
%TO.N,c1_r2*%
X101650000Y-150600000D02*
X103810000Y-150600000D01*
%TO.N,P024*%
X118150000Y-150600000D02*
X115990000Y-150600000D01*
%TO.N,c2_r2*%
X121450000Y-150600000D02*
X123610000Y-150600000D01*
%TO.N,P024*%
X137950000Y-148600000D02*
X135790000Y-148600000D01*
%TO.N,c3_r2*%
X141250000Y-148600000D02*
X143410000Y-148600000D01*
%TO.N,P024*%
X157750000Y-146600000D02*
X155590000Y-146600000D01*
%TO.N,c4_r2*%
X161050000Y-146600000D02*
X163210000Y-146600000D01*
%TO.N,P024*%
X177550000Y-148600000D02*
X175390000Y-148600000D01*
%TO.N,c5_r2*%
X180850000Y-148600000D02*
X183010000Y-148600000D01*
%TO.N,P024*%
X197350000Y-152600000D02*
X195190000Y-152600000D01*
%TO.N,c6_r2*%
X200650000Y-152600000D02*
X202810000Y-152600000D01*
%TO.N,P024*%
X217150000Y-152600000D02*
X214990000Y-152600000D01*
%TO.N,c7_r2*%
X220450000Y-152600000D02*
X222610000Y-152600000D01*
%TO.N,P024*%
X248500000Y-153000000D02*
X248500000Y-155160000D01*
%TO.N,c8_r2*%
X248500000Y-149700000D02*
X248500000Y-147540000D01*
%TO.N,c8_r1*%
X230725000Y-132800000D02*
X232885000Y-132800000D01*
%TO.N,P100*%
X227425000Y-132800000D02*
X225265000Y-132800000D01*
X197350000Y-132800000D02*
X195190000Y-132800000D01*
%TO.N,c5_r1*%
X180850000Y-128800000D02*
X183010000Y-128800000D01*
%TO.N,c4_r1*%
X161050000Y-126800000D02*
X163210000Y-126800000D01*
%TO.N,c3_r1*%
X141250000Y-128800000D02*
X143410000Y-128800000D01*
%TO.N,c2_r1*%
X121450000Y-130800000D02*
X123610000Y-130800000D01*
%TO.N,P100*%
X177550000Y-128800000D02*
X175390000Y-128800000D01*
X157750000Y-126800000D02*
X155590000Y-126800000D01*
X137950000Y-128800000D02*
X135790000Y-128800000D01*
X118150000Y-130800000D02*
X115990000Y-130800000D01*
%TO.N,c1_r1*%
X101650000Y-130800000D02*
X103810000Y-130800000D01*
%TO.N,P100*%
X98350000Y-130800000D02*
X96190000Y-130800000D01*
%TO.N,P029*%
X113837000Y-136938000D02*
X112715000Y-138060000D01*
X112715000Y-131706408D02*
X113837000Y-132828408D01*
X112715000Y-118260000D02*
X112715000Y-131706408D01*
X113837000Y-132828408D02*
X113837000Y-136938000D01*
X114306900Y-156268100D02*
X112715000Y-157860000D01*
X114306900Y-147843769D02*
X114306900Y-156268100D01*
X112715000Y-146251869D02*
X114306900Y-147843769D01*
X112715000Y-138060000D02*
X112715000Y-146251869D01*
X112715000Y-197460000D02*
X112715000Y-157860000D01*
%TO.N,P002*%
X132515000Y-175660000D02*
X132515000Y-116260000D01*
%TO.N,P115*%
X152315000Y-193460000D02*
X152315000Y-114260000D01*
%TO.N,P113*%
X172115000Y-195460000D02*
X172115000Y-116260000D01*
%TO.N,P009*%
X191915000Y-199460000D02*
X191915000Y-120260000D01*
%TO.N,P010*%
X211715000Y-179660000D02*
X211715000Y-199460000D01*
X211715000Y-140060000D02*
X211715000Y-159860000D01*
%TO.N,c6_r1*%
X205305900Y-118183900D02*
X205305900Y-130304100D01*
X204842000Y-117720000D02*
X205305900Y-118183900D01*
X205305900Y-130304100D02*
X202810000Y-132800000D01*
%TO.N,c5_r1*%
X185505900Y-126304100D02*
X183010000Y-128800000D01*
X185505900Y-114183900D02*
X185505900Y-126304100D01*
X185042000Y-113720000D02*
X185505900Y-114183900D01*
%TO.N,c4_r1*%
X165705900Y-124304100D02*
X163210000Y-126800000D01*
X165705900Y-112183900D02*
X165705900Y-124304100D01*
X165242000Y-111720000D02*
X165705900Y-112183900D01*
%TO.N,P113*%
X114348895Y-111000000D02*
X107670000Y-111000000D01*
X115848895Y-109500000D02*
X114348895Y-111000000D01*
X107670000Y-111000000D02*
X106350000Y-109680000D01*
X172115000Y-115418000D02*
X166197000Y-109500000D01*
X166197000Y-109500000D02*
X115848895Y-109500000D01*
X172115000Y-116260000D02*
X172115000Y-115418000D01*
%TO.N,P009*%
X114650000Y-109000000D02*
X113970000Y-109680000D01*
X183497000Y-109000000D02*
X114650000Y-109000000D01*
X191915000Y-117418000D02*
X183497000Y-109000000D01*
X191915000Y-120260000D02*
X191915000Y-117418000D01*
%TO.N,c3_r1*%
X145905900Y-126304100D02*
X143410000Y-128800000D01*
X145905900Y-114183900D02*
X145905900Y-126304100D01*
X145442000Y-113720000D02*
X145905900Y-114183900D01*
%TO.N,c2_r1*%
X125642000Y-115720000D02*
X126105900Y-116183900D01*
X126105900Y-116183900D02*
X126105900Y-128304100D01*
X126105900Y-128304100D02*
X123610000Y-130800000D01*
%TO.N,c6_r4*%
X205305900Y-189704100D02*
X202810000Y-192200000D01*
X204842000Y-177120000D02*
X205305900Y-177583900D01*
X205305900Y-177583900D02*
X205305900Y-189704100D01*
%TO.N,c6_r3*%
X205305900Y-169904100D02*
X202810000Y-172400000D01*
X205305900Y-157783900D02*
X205305900Y-169904100D01*
X204842000Y-157320000D02*
X205305900Y-157783900D01*
%TO.N,c5_r3*%
X185505900Y-165904100D02*
X183010000Y-168400000D01*
X185505900Y-153783900D02*
X185505900Y-165904100D01*
X185042000Y-153320000D02*
X185505900Y-153783900D01*
%TO.N,c4_r3*%
X165705900Y-163904100D02*
X163210000Y-166400000D01*
X165705900Y-151783900D02*
X165705900Y-163904100D01*
X165242000Y-151320000D02*
X165705900Y-151783900D01*
%TO.N,c3_r3*%
X145905900Y-153783900D02*
X145905900Y-165904100D01*
X145442000Y-153320000D02*
X145905900Y-153783900D01*
X145905900Y-165904100D02*
X143410000Y-168400000D01*
%TO.N,c2_r3*%
X126105900Y-167904100D02*
X123610000Y-170400000D01*
X126105900Y-155783900D02*
X126105900Y-167904100D01*
X125642000Y-155320000D02*
X126105900Y-155783900D01*
%TO.N,c3_r2*%
X145905900Y-133983900D02*
X145905900Y-146104100D01*
X145442000Y-133520000D02*
X145905900Y-133983900D01*
X145905900Y-146104100D02*
X143410000Y-148600000D01*
%TO.N,c4_r2*%
X165705900Y-144104100D02*
X163210000Y-146600000D01*
X165242000Y-131520000D02*
X165705900Y-131983900D01*
X165705900Y-131983900D02*
X165705900Y-144104100D01*
%TO.N,c5_r2*%
X185505900Y-146104100D02*
X183010000Y-148600000D01*
X185505900Y-133983900D02*
X185505900Y-146104100D01*
X185042000Y-133520000D02*
X185505900Y-133983900D01*
%TO.N,c6_r2*%
X205305900Y-150104100D02*
X202810000Y-152600000D01*
X205305900Y-137983900D02*
X205305900Y-150104100D01*
X204842000Y-137520000D02*
X205305900Y-137983900D01*
%TO.N,c8_r5*%
X244905900Y-197383900D02*
X244905900Y-209504100D01*
X244442000Y-196920000D02*
X244905900Y-197383900D01*
X244905900Y-209504100D02*
X242410000Y-212000000D01*
%TO.N,c7_r5*%
X225105900Y-197383900D02*
X225105900Y-209504100D01*
X224642000Y-196920000D02*
X225105900Y-197383900D01*
X225105900Y-209504100D02*
X222610000Y-212000000D01*
%TO.N,c6_r5*%
X205305900Y-209504100D02*
X202810000Y-212000000D01*
X204842000Y-196920000D02*
X205305900Y-197383900D01*
X205305900Y-197383900D02*
X205305900Y-209504100D01*
%TO.N,c5_r5*%
X185505900Y-205504100D02*
X183010000Y-208000000D01*
X185505900Y-193383900D02*
X185505900Y-205504100D01*
X185042000Y-192920000D02*
X185505900Y-193383900D01*
%TO.N,c4_r5*%
X165705900Y-203504100D02*
X163210000Y-206000000D01*
X165705900Y-191383900D02*
X165705900Y-203504100D01*
X165242000Y-190920000D02*
X165705900Y-191383900D01*
%TO.N,c2_r4*%
X126105900Y-175583900D02*
X126105900Y-187704100D01*
X125642000Y-175120000D02*
X126105900Y-175583900D01*
X126105900Y-187704100D02*
X123610000Y-190200000D01*
%TO.N,c3_r4*%
X145442000Y-173120000D02*
X145905900Y-173583900D01*
X145905900Y-173583900D02*
X145905900Y-185704100D01*
X145905900Y-185704100D02*
X143410000Y-188200000D01*
%TO.N,c4_r4*%
X165705900Y-183704100D02*
X163210000Y-186200000D01*
X165705900Y-171583900D02*
X165705900Y-183704100D01*
X165242000Y-171120000D02*
X165705900Y-171583900D01*
%TO.N,c5_r4*%
X185505900Y-185704100D02*
X183010000Y-188200000D01*
X185505900Y-173583900D02*
X185505900Y-185704100D01*
X185042000Y-173120000D02*
X185505900Y-173583900D01*
%TO.N,c7_r4*%
X225105900Y-189704100D02*
X222610000Y-192200000D01*
X225105900Y-177583900D02*
X225105900Y-189704100D01*
X224642000Y-177120000D02*
X225105900Y-177583900D01*
%TO.N,c8_r4*%
X244905900Y-189704100D02*
X242410000Y-192200000D01*
X244905900Y-177583900D02*
X244905900Y-189704100D01*
X244442000Y-177120000D02*
X244905900Y-177583900D01*
%TO.N,c2_r5*%
X126105900Y-207504100D02*
X123610000Y-210000000D01*
X126105900Y-195383900D02*
X126105900Y-207504100D01*
X125642000Y-194920000D02*
X126105900Y-195383900D01*
%TO.N,c8_r1*%
X235380900Y-130304100D02*
X232885000Y-132800000D01*
X235380900Y-118183900D02*
X235380900Y-130304100D01*
X234917000Y-117720000D02*
X235380900Y-118183900D01*
%TO.N,P111*%
X231515000Y-179660000D02*
X231515000Y-199460000D01*
X233514000Y-177661000D02*
X231515000Y-179660000D01*
X231515000Y-161277408D02*
X233514000Y-163276408D01*
X233514000Y-163276408D02*
X233514000Y-177661000D01*
X231515000Y-149585000D02*
X231515000Y-161277408D01*
X229716000Y-147786000D02*
X231515000Y-149585000D01*
X229716000Y-133391000D02*
X229716000Y-147786000D01*
X221990000Y-125665000D02*
X229716000Y-133391000D01*
X221990000Y-120260000D02*
X221990000Y-125665000D01*
X110541300Y-108028700D02*
X108890000Y-109680000D01*
X201665096Y-108028700D02*
X110541300Y-108028700D01*
X213896396Y-120260000D02*
X201665096Y-108028700D01*
X221990000Y-120260000D02*
X213896396Y-120260000D01*
%TO.N,P010*%
X112631300Y-108478700D02*
X111430000Y-109680000D01*
X201478700Y-108478700D02*
X112631300Y-108478700D01*
X211715000Y-140060000D02*
X211715000Y-118715000D01*
X211715000Y-118715000D02*
X201478700Y-108478700D01*
%TO.N,P115*%
X105975000Y-111845000D02*
X103810000Y-109680000D01*
X149900000Y-111845000D02*
X105975000Y-111845000D01*
X152315000Y-114260000D02*
X149900000Y-111845000D01*
%TO.N,P002*%
X104590000Y-113000000D02*
X101270000Y-109680000D01*
X129255000Y-113000000D02*
X104590000Y-113000000D01*
X132515000Y-116260000D02*
X129255000Y-113000000D01*
%TO.N,P029*%
X102895000Y-113845000D02*
X98730000Y-109680000D01*
X108300000Y-113845000D02*
X102895000Y-113845000D01*
X112715000Y-118260000D02*
X108300000Y-113845000D01*
%TO.N,P031*%
X92915000Y-112955000D02*
X96190000Y-109680000D01*
X92915000Y-118260000D02*
X92915000Y-112955000D01*
%TO.N,c1_r1*%
X107551300Y-127058700D02*
X103810000Y-130800000D01*
X107551300Y-117429300D02*
X107551300Y-127058700D01*
X105842000Y-115720000D02*
X107551300Y-117429300D01*
%TO.N,c2_r2*%
X126105900Y-148104100D02*
X123610000Y-150600000D01*
X126105900Y-135983900D02*
X126105900Y-148104100D01*
X125642000Y-135520000D02*
X126105900Y-135983900D01*
%TO.N,c1_r2*%
X106305900Y-135983900D02*
X106305900Y-148104100D01*
X105842000Y-135520000D02*
X106305900Y-135983900D01*
X106305900Y-148104100D02*
X103810000Y-150600000D01*
%TO.N,c1_r3*%
X106500000Y-167710000D02*
X103810000Y-170400000D01*
X106500000Y-155978000D02*
X106500000Y-167710000D01*
X105842000Y-155320000D02*
X106500000Y-155978000D01*
%TO.N,c1_r4*%
X106305900Y-187704100D02*
X103810000Y-190200000D01*
X105842000Y-175120000D02*
X106305900Y-175583900D01*
X106305900Y-175583900D02*
X106305900Y-187704100D01*
%TO.N,c7_r2*%
X225105900Y-150104100D02*
X222610000Y-152600000D01*
X225105900Y-137983900D02*
X225105900Y-150104100D01*
X224642000Y-137520000D02*
X225105900Y-137983900D01*
%TO.N,c8_r2*%
X248005000Y-147045000D02*
X248500000Y-147540000D01*
X244442000Y-147045000D02*
X248005000Y-147045000D01*
%TO.N,P010*%
X211715000Y-159860000D02*
X211715000Y-179660000D01*
%TO.N,c7_r3*%
X225105900Y-169904100D02*
X222610000Y-172400000D01*
X225105900Y-157783900D02*
X225105900Y-169904100D01*
X224642000Y-157320000D02*
X225105900Y-157783900D01*
%TD*%
M02*
