%TF.GenerationSoftware,KiCad,Pcbnew,10.0.0*%
%TF.CreationDate,2026-03-28T23:53:37+01:00*%
%TF.ProjectId,Bifrost_right,42696672-6f73-4745-9f72-696768742e6b,v1.0.0*%
%TF.SameCoordinates,Original*%
%TF.FileFunction,Soldermask,Top*%
%TF.FilePolarity,Negative*%
%FSLAX46Y46*%
G04 Gerber Fmt 4.6, Leading zero omitted, Abs format (unit mm)*
G04 Created by KiCad (PCBNEW 10.0.0) date 2026-03-28 23:53:37*
%MOMM*%
%LPD*%
G01*
G04 APERTURE LIST*
G04 Aperture macros list*
%AMRoundRect*
0 Rectangle with rounded corners*
0 $1 Rounding radius*
0 $2 $3 $4 $5 $6 $7 $8 $9 X,Y pos of 4 corners*
0 Add a 4 corners polygon primitive as box body*
4,1,4,$2,$3,$4,$5,$6,$7,$8,$9,$2,$3,0*
0 Add four circle primitives for the rounded corners*
1,1,$1+$1,$2,$3*
1,1,$1+$1,$4,$5*
1,1,$1+$1,$6,$7*
1,1,$1+$1,$8,$9*
0 Add four rect primitives between the rounded corners*
20,1,$1+$1,$2,$3,$4,$5,0*
20,1,$1+$1,$4,$5,$6,$7,0*
20,1,$1+$1,$6,$7,$8,$9,0*
20,1,$1+$1,$8,$9,$2,$3,0*%
G04 Aperture macros list end*
%ADD10C,4.087800*%
%ADD11C,3.148000*%
%ADD12C,3.100000*%
%ADD13C,1.801800*%
%ADD14C,2.005000*%
%ADD15RoundRect,0.050000X0.889000X-0.889000X0.889000X0.889000X-0.889000X0.889000X-0.889000X-0.889000X0*%
%ADD16RoundRect,0.050000X0.600000X-0.450000X0.600000X0.450000X-0.600000X0.450000X-0.600000X-0.450000X0*%
%ADD17RoundRect,0.050000X-0.450000X-0.600000X0.450000X-0.600000X0.450000X0.600000X-0.450000X0.600000X0*%
%ADD18RoundRect,0.050000X-0.889000X-0.889000X0.889000X-0.889000X0.889000X0.889000X-0.889000X0.889000X0*%
%ADD19C,1.852600*%
%ADD20RoundRect,0.050000X0.850000X-0.600000X0.850000X0.600000X-0.850000X0.600000X-0.850000X-0.600000X0*%
%ADD21O,1.800000X1.300000*%
%ADD22C,4.100000*%
G04 APERTURE END LIST*
D10*
%TO.C,REF\u002A\u002A*%
X138850000Y-208225000D03*
X100750000Y-208225000D03*
D11*
X138850000Y-193015000D03*
X100750000Y-193015000D03*
%TD*%
D12*
%TO.C,S5*%
X115990000Y-197460000D03*
X122340000Y-194920000D03*
D13*
X114720000Y-200000000D03*
X124880000Y-200000000D03*
D10*
X119800000Y-200000000D03*
%TD*%
D11*
%TO.C,REF\u002A\u002A*%
X231615000Y-164063000D03*
X231615000Y-140187000D03*
D10*
X246825000Y-164063000D03*
X246825000Y-140187000D03*
%TD*%
%TO.C,S35*%
X238600000Y-152125000D03*
D13*
X243680000Y-152125000D03*
X233520000Y-152125000D03*
D12*
X241140000Y-147045000D03*
X234790000Y-149585000D03*
%TD*%
D11*
%TO.C,REF\u002A\u002A*%
X217137000Y-115815000D03*
X241013000Y-115815000D03*
D10*
X217137000Y-131025000D03*
X241013000Y-131025000D03*
%TD*%
D11*
%TO.C,REF\u002A\u002A*%
X88062000Y-133615000D03*
X111938000Y-133615000D03*
D10*
X88062000Y-148825000D03*
X111938000Y-148825000D03*
%TD*%
D14*
%TO.C,D35*%
X248500000Y-147540000D03*
D15*
X248500000Y-155160000D03*
D16*
X248500000Y-149700000D03*
X248500000Y-153000000D03*
%TD*%
D10*
%TO.C,S1*%
X100000000Y-180200000D03*
D13*
X105080000Y-180200000D03*
X94920000Y-180200000D03*
D12*
X102540000Y-175120000D03*
X96190000Y-177660000D03*
%TD*%
D10*
%TO.C,S2*%
X100000000Y-160400000D03*
D13*
X105080000Y-160400000D03*
X94920000Y-160400000D03*
D12*
X102540000Y-155320000D03*
X96190000Y-157860000D03*
%TD*%
D10*
%TO.C,S3*%
X100000000Y-140600000D03*
D13*
X105080000Y-140600000D03*
X94920000Y-140600000D03*
D12*
X102540000Y-135520000D03*
X96190000Y-138060000D03*
%TD*%
D10*
%TO.C,S4*%
X100000000Y-120800000D03*
D13*
X105080000Y-120800000D03*
X94920000Y-120800000D03*
D12*
X102540000Y-115720000D03*
X96190000Y-118260000D03*
%TD*%
D10*
%TO.C,S6*%
X119800000Y-180200000D03*
D13*
X124880000Y-180200000D03*
X114720000Y-180200000D03*
D12*
X122340000Y-175120000D03*
X115990000Y-177660000D03*
%TD*%
D10*
%TO.C,S7*%
X119800000Y-160400000D03*
D13*
X124880000Y-160400000D03*
X114720000Y-160400000D03*
D12*
X122340000Y-155320000D03*
X115990000Y-157860000D03*
%TD*%
D10*
%TO.C,S8*%
X119800000Y-140600000D03*
D13*
X124880000Y-140600000D03*
X114720000Y-140600000D03*
D12*
X122340000Y-135520000D03*
X115990000Y-138060000D03*
%TD*%
D10*
%TO.C,S9*%
X119800000Y-120800000D03*
D13*
X124880000Y-120800000D03*
X114720000Y-120800000D03*
D12*
X122340000Y-115720000D03*
X115990000Y-118260000D03*
%TD*%
D10*
%TO.C,S10*%
X139600000Y-178200000D03*
D13*
X144680000Y-178200000D03*
X134520000Y-178200000D03*
D12*
X142140000Y-173120000D03*
X135790000Y-175660000D03*
%TD*%
D10*
%TO.C,S11*%
X139600000Y-158400000D03*
D13*
X144680000Y-158400000D03*
X134520000Y-158400000D03*
D12*
X142140000Y-153320000D03*
X135790000Y-155860000D03*
%TD*%
D10*
%TO.C,S12*%
X139600000Y-138600000D03*
D13*
X144680000Y-138600000D03*
X134520000Y-138600000D03*
D12*
X142140000Y-133520000D03*
X135790000Y-136060000D03*
%TD*%
D10*
%TO.C,S13*%
X139600000Y-118800000D03*
D13*
X144680000Y-118800000D03*
X134520000Y-118800000D03*
D12*
X142140000Y-113720000D03*
X135790000Y-116260000D03*
%TD*%
D10*
%TO.C,S14*%
X159400000Y-196000000D03*
D13*
X164480000Y-196000000D03*
X154320000Y-196000000D03*
D12*
X161940000Y-190920000D03*
X155590000Y-193460000D03*
%TD*%
D10*
%TO.C,S15*%
X159400000Y-176200000D03*
D13*
X164480000Y-176200000D03*
X154320000Y-176200000D03*
D12*
X161940000Y-171120000D03*
X155590000Y-173660000D03*
%TD*%
D10*
%TO.C,S16*%
X159400000Y-156400000D03*
D13*
X164480000Y-156400000D03*
X154320000Y-156400000D03*
D12*
X161940000Y-151320000D03*
X155590000Y-153860000D03*
%TD*%
D10*
%TO.C,S17*%
X159400000Y-136600000D03*
D13*
X164480000Y-136600000D03*
X154320000Y-136600000D03*
D12*
X161940000Y-131520000D03*
X155590000Y-134060000D03*
%TD*%
D10*
%TO.C,S18*%
X159400000Y-116800000D03*
D13*
X164480000Y-116800000D03*
X154320000Y-116800000D03*
D12*
X161940000Y-111720000D03*
X155590000Y-114260000D03*
%TD*%
D10*
%TO.C,S19*%
X179200000Y-198000000D03*
D13*
X184280000Y-198000000D03*
X174120000Y-198000000D03*
D12*
X181740000Y-192920000D03*
X175390000Y-195460000D03*
%TD*%
D10*
%TO.C,S20*%
X179200000Y-178200000D03*
D13*
X184280000Y-178200000D03*
X174120000Y-178200000D03*
D12*
X181740000Y-173120000D03*
X175390000Y-175660000D03*
%TD*%
D10*
%TO.C,S21*%
X179200000Y-158400000D03*
D13*
X184280000Y-158400000D03*
X174120000Y-158400000D03*
D12*
X181740000Y-153320000D03*
X175390000Y-155860000D03*
%TD*%
D10*
%TO.C,S22*%
X179200000Y-138600000D03*
D13*
X184280000Y-138600000D03*
X174120000Y-138600000D03*
D12*
X181740000Y-133520000D03*
X175390000Y-136060000D03*
%TD*%
D10*
%TO.C,S23*%
X179200000Y-118800000D03*
D13*
X184280000Y-118800000D03*
X174120000Y-118800000D03*
D12*
X181740000Y-113720000D03*
X175390000Y-116260000D03*
%TD*%
D10*
%TO.C,S24*%
X199000000Y-202000000D03*
D13*
X204080000Y-202000000D03*
X193920000Y-202000000D03*
D12*
X201540000Y-196920000D03*
X195190000Y-199460000D03*
%TD*%
D10*
%TO.C,S25*%
X199000000Y-182200000D03*
D13*
X204080000Y-182200000D03*
X193920000Y-182200000D03*
D12*
X201540000Y-177120000D03*
X195190000Y-179660000D03*
%TD*%
D10*
%TO.C,S26*%
X199000000Y-162400000D03*
D13*
X204080000Y-162400000D03*
X193920000Y-162400000D03*
D12*
X201540000Y-157320000D03*
X195190000Y-159860000D03*
%TD*%
D10*
%TO.C,S27*%
X199000000Y-142600000D03*
D13*
X204080000Y-142600000D03*
X193920000Y-142600000D03*
D12*
X201540000Y-137520000D03*
X195190000Y-140060000D03*
%TD*%
D10*
%TO.C,S28*%
X199000000Y-122800000D03*
D13*
X204080000Y-122800000D03*
X193920000Y-122800000D03*
D12*
X201540000Y-117720000D03*
X195190000Y-120260000D03*
%TD*%
D10*
%TO.C,S29*%
X218800000Y-202000000D03*
D13*
X223880000Y-202000000D03*
X213720000Y-202000000D03*
D12*
X221340000Y-196920000D03*
X214990000Y-199460000D03*
%TD*%
D10*
%TO.C,S30*%
X218800000Y-182200000D03*
D13*
X223880000Y-182200000D03*
X213720000Y-182200000D03*
D12*
X221340000Y-177120000D03*
X214990000Y-179660000D03*
%TD*%
D10*
%TO.C,S31*%
X218800000Y-162400000D03*
D13*
X223880000Y-162400000D03*
X213720000Y-162400000D03*
D12*
X221340000Y-157320000D03*
X214990000Y-159860000D03*
%TD*%
D10*
%TO.C,S32*%
X218800000Y-142600000D03*
D13*
X223880000Y-142600000D03*
X213720000Y-142600000D03*
D12*
X221340000Y-137520000D03*
X214990000Y-140060000D03*
%TD*%
D10*
%TO.C,S33*%
X238600000Y-202000000D03*
D13*
X243680000Y-202000000D03*
X233520000Y-202000000D03*
D12*
X241140000Y-196920000D03*
X234790000Y-199460000D03*
%TD*%
D10*
%TO.C,S34*%
X238600000Y-182200000D03*
D13*
X243680000Y-182200000D03*
X233520000Y-182200000D03*
D12*
X241140000Y-177120000D03*
X234790000Y-179660000D03*
%TD*%
D10*
%TO.C,S36*%
X229075000Y-122800000D03*
D13*
X234155000Y-122800000D03*
X223995000Y-122800000D03*
D12*
X231615000Y-117720000D03*
X225265000Y-120260000D03*
%TD*%
D17*
%TO.C,D1*%
X98350000Y-190200000D03*
X101650000Y-190200000D03*
D18*
X96190000Y-190200000D03*
D14*
X103810000Y-190200000D03*
%TD*%
D17*
%TO.C,D2*%
X98350000Y-170400000D03*
X101650000Y-170400000D03*
D18*
X96190000Y-170400000D03*
D14*
X103810000Y-170400000D03*
%TD*%
D17*
%TO.C,D3*%
X98350000Y-150600000D03*
X101650000Y-150600000D03*
D18*
X96190000Y-150600000D03*
D14*
X103810000Y-150600000D03*
%TD*%
D17*
%TO.C,D4*%
X98350000Y-130800000D03*
X101650000Y-130800000D03*
D18*
X96190000Y-130800000D03*
D14*
X103810000Y-130800000D03*
%TD*%
D17*
%TO.C,D5*%
X118150000Y-210000000D03*
X121450000Y-210000000D03*
D18*
X115990000Y-210000000D03*
D14*
X123610000Y-210000000D03*
%TD*%
D17*
%TO.C,D6*%
X118150000Y-190200000D03*
X121450000Y-190200000D03*
D18*
X115990000Y-190200000D03*
D14*
X123610000Y-190200000D03*
%TD*%
D17*
%TO.C,D7*%
X118150000Y-170400000D03*
X121450000Y-170400000D03*
D18*
X115990000Y-170400000D03*
D14*
X123610000Y-170400000D03*
%TD*%
D17*
%TO.C,D8*%
X118150000Y-150600000D03*
X121450000Y-150600000D03*
D18*
X115990000Y-150600000D03*
D14*
X123610000Y-150600000D03*
%TD*%
D17*
%TO.C,D9*%
X118150000Y-130800000D03*
X121450000Y-130800000D03*
D18*
X115990000Y-130800000D03*
D14*
X123610000Y-130800000D03*
%TD*%
D17*
%TO.C,D10*%
X137950000Y-188200000D03*
X141250000Y-188200000D03*
D18*
X135790000Y-188200000D03*
D14*
X143410000Y-188200000D03*
%TD*%
D17*
%TO.C,D11*%
X137950000Y-168400000D03*
X141250000Y-168400000D03*
D18*
X135790000Y-168400000D03*
D14*
X143410000Y-168400000D03*
%TD*%
D17*
%TO.C,D12*%
X137950000Y-148600000D03*
X141250000Y-148600000D03*
D18*
X135790000Y-148600000D03*
D14*
X143410000Y-148600000D03*
%TD*%
D17*
%TO.C,D13*%
X137950000Y-128800000D03*
X141250000Y-128800000D03*
D18*
X135790000Y-128800000D03*
D14*
X143410000Y-128800000D03*
%TD*%
D17*
%TO.C,D14*%
X157750000Y-206000000D03*
X161050000Y-206000000D03*
D18*
X155590000Y-206000000D03*
D14*
X163210000Y-206000000D03*
%TD*%
D17*
%TO.C,D15*%
X157750000Y-186200000D03*
X161050000Y-186200000D03*
D18*
X155590000Y-186200000D03*
D14*
X163210000Y-186200000D03*
%TD*%
D17*
%TO.C,D16*%
X157750000Y-166400000D03*
X161050000Y-166400000D03*
D18*
X155590000Y-166400000D03*
D14*
X163210000Y-166400000D03*
%TD*%
D17*
%TO.C,D17*%
X157750000Y-146600000D03*
X161050000Y-146600000D03*
D18*
X155590000Y-146600000D03*
D14*
X163210000Y-146600000D03*
%TD*%
D17*
%TO.C,D18*%
X157750000Y-126800000D03*
X161050000Y-126800000D03*
D18*
X155590000Y-126800000D03*
D14*
X163210000Y-126800000D03*
%TD*%
D17*
%TO.C,D19*%
X177550000Y-208000000D03*
X180850000Y-208000000D03*
D18*
X175390000Y-208000000D03*
D14*
X183010000Y-208000000D03*
%TD*%
D17*
%TO.C,D20*%
X177550000Y-188200000D03*
X180850000Y-188200000D03*
D18*
X175390000Y-188200000D03*
D14*
X183010000Y-188200000D03*
%TD*%
D17*
%TO.C,D21*%
X177550000Y-168400000D03*
X180850000Y-168400000D03*
D18*
X175390000Y-168400000D03*
D14*
X183010000Y-168400000D03*
%TD*%
D17*
%TO.C,D22*%
X177550000Y-148600000D03*
X180850000Y-148600000D03*
D18*
X175390000Y-148600000D03*
D14*
X183010000Y-148600000D03*
%TD*%
D17*
%TO.C,D23*%
X177550000Y-128800000D03*
X180850000Y-128800000D03*
D18*
X175390000Y-128800000D03*
D14*
X183010000Y-128800000D03*
%TD*%
D17*
%TO.C,D24*%
X197350000Y-212000000D03*
X200650000Y-212000000D03*
D18*
X195190000Y-212000000D03*
D14*
X202810000Y-212000000D03*
%TD*%
D17*
%TO.C,D25*%
X197350000Y-192200000D03*
X200650000Y-192200000D03*
D18*
X195190000Y-192200000D03*
D14*
X202810000Y-192200000D03*
%TD*%
D17*
%TO.C,D26*%
X197350000Y-172400000D03*
X200650000Y-172400000D03*
D18*
X195190000Y-172400000D03*
D14*
X202810000Y-172400000D03*
%TD*%
D17*
%TO.C,D27*%
X197350000Y-152600000D03*
X200650000Y-152600000D03*
D18*
X195190000Y-152600000D03*
D14*
X202810000Y-152600000D03*
%TD*%
D17*
%TO.C,D28*%
X197350000Y-132800000D03*
X200650000Y-132800000D03*
D18*
X195190000Y-132800000D03*
D14*
X202810000Y-132800000D03*
%TD*%
D17*
%TO.C,D29*%
X217150000Y-212000000D03*
X220450000Y-212000000D03*
D18*
X214990000Y-212000000D03*
D14*
X222610000Y-212000000D03*
%TD*%
D17*
%TO.C,D30*%
X217150000Y-192200000D03*
X220450000Y-192200000D03*
D18*
X214990000Y-192200000D03*
D14*
X222610000Y-192200000D03*
%TD*%
D17*
%TO.C,D31*%
X217150000Y-172400000D03*
X220450000Y-172400000D03*
D18*
X214990000Y-172400000D03*
D14*
X222610000Y-172400000D03*
%TD*%
D17*
%TO.C,D32*%
X217150000Y-152600000D03*
X220450000Y-152600000D03*
D18*
X214990000Y-152600000D03*
D14*
X222610000Y-152600000D03*
%TD*%
D17*
%TO.C,D33*%
X236950000Y-212000000D03*
X240250000Y-212000000D03*
D18*
X234790000Y-212000000D03*
D14*
X242410000Y-212000000D03*
%TD*%
D17*
%TO.C,D34*%
X236950000Y-192200000D03*
X240250000Y-192200000D03*
D18*
X234790000Y-192200000D03*
D14*
X242410000Y-192200000D03*
%TD*%
D17*
%TO.C,D36*%
X227425000Y-132800000D03*
X230725000Y-132800000D03*
D18*
X225265000Y-132800000D03*
D14*
X232885000Y-132800000D03*
%TD*%
D19*
%TO.C,MCU1*%
X86030000Y-124920000D03*
X88570000Y-124920000D03*
X91110000Y-124920000D03*
X93650000Y-124920000D03*
X96190000Y-124920000D03*
X98730000Y-124920000D03*
X101270000Y-124920000D03*
X103810000Y-124920000D03*
X106350000Y-124920000D03*
X108890000Y-124920000D03*
X111430000Y-124920000D03*
X113970000Y-124920000D03*
X113970000Y-109680000D03*
X111430000Y-109680000D03*
X108890000Y-109680000D03*
X106350000Y-109680000D03*
X103810000Y-109680000D03*
X101270000Y-109680000D03*
X98730000Y-109680000D03*
X96190000Y-109680000D03*
X93650000Y-109680000D03*
X91110000Y-109680000D03*
X88570000Y-109680000D03*
X86030000Y-109680000D03*
X108890000Y-122380000D03*
X108890000Y-119840000D03*
X108890000Y-117300000D03*
%TD*%
D20*
%TO.C,JST1*%
X142600000Y-106800000D03*
D21*
X142600000Y-104800000D03*
%TD*%
D19*
%TO.C,SW1*%
X133800000Y-105070000D03*
X133800000Y-102530000D03*
%TD*%
%TO.C,SW2*%
X129800000Y-102530000D03*
X129800000Y-105070000D03*
%TD*%
D22*
%TO.C,*%
X87000000Y-104800000D03*
%TD*%
%TO.C,*%
X251600000Y-104800000D03*
%TD*%
%TO.C,*%
X87000000Y-212750000D03*
%TD*%
%TO.C,*%
X251600000Y-213000000D03*
%TD*%
%TO.C,*%
X168900000Y-146875000D03*
%TD*%
M02*
