0
SECTION
2
HEADER
9
$INSUNITS
70
4
0
ENDSEC
0
SECTION
2
TABLES
0
TABLE
2
LTYPE
0
LTYPE
72
65
70
0
2
CONTINUOUS
3
______
73
0
40
0
0
LTYPE
72
65
70
0
2
DASHED
3
_ _ _ 
73
2
40
7.5
49
5
49
-2.5
0
LTYPE
72
65
70
0
2
DOTTED
3
. . . 
73
2
40
1.5
49
0.5
49
-1
0
ENDTAB
0
TABLE
2
LAYER
0
ENDTAB
0
ENDSEC
0
SECTION
2
ENTITIES
0
LINE
8
0
6
CONTINUOUS
10
234.325
20
-97.275
11
84.4745843
21
-97.275
0
LINE
8
0
6
CONTINUOUS
10
82.4745843
20
-99.2745842
11
82.4504159
21
-215.5245842
0
LINE
8
0
6
CONTINUOUS
10
84.4504159
20
-217.525
11
179.475
21
-217.525
0
LINE
8
0
6
CONTINUOUS
10
181.475
20
-219.525
11
181.475
21
-233.325
0
LINE
8
0
6
CONTINUOUS
10
183.475
20
-235.325
11
234.325
21
-235.325
0
LINE
8
0
6
CONTINUOUS
10
236.325
20
-233.325
11
236.325
21
-99.275
0
ARC
8
0
6
CONTINUOUS
10
84.4745843
20
-99.275
40
2
50
90
51
179.9880882
0
ARC
8
0
6
CONTINUOUS
10
84.4504159
20
-215.525
40
2
50
179.9880882
51
270
0
ARC
8
0
6
CONTINUOUS
10
179.475
20
-219.525
40
2
50
0
51
90
0
ARC
8
0
6
CONTINUOUS
10
183.475
20
-233.325
40
2
50
180
51
270
0
ARC
8
0
6
CONTINUOUS
10
234.325
20
-233.325
40
2
50
270
51
0
0
ARC
8
0
6
CONTINUOUS
10
234.325
20
-99.275
40
2
50
0
51
90
0
ENDSEC
0
EOF