0
SECTION
2
HEADER
9
$INSUNITS
70
4
0
ENDSEC
0
SECTION
2
TABLES
0
TABLE
2
LTYPE
0
LTYPE
72
65
70
0
2
CONTINUOUS
3
______
73
0
40
0
0
LTYPE
72
65
70
0
2
DASHED
3
_ _ _ 
73
2
40
7.5
49
5
49
-2.5
0
LTYPE
72
65
70
0
2
DOTTED
3
. . . 
73
2
40
1.5
49
0.5
49
-1
0
ENDTAB
0
TABLE
2
LAYER
0
ENDTAB
0
ENDSEC
0
SECTION
2
ENTITIES
0
LINE
8
0
6
CONTINUOUS
10
90.75
20
-209.275
11
128.25
21
-209.275
0
LINE
8
0
6
CONTINUOUS
10
90.75
20
-190.725
11
128.25
21
-190.725
0
LINE
8
0
6
CONTINUOUS
10
90.75
20
-189.475
11
109.25
21
-189.475
0
LINE
8
0
6
CONTINUOUS
10
109.25
20
-189.475
11
109.25
21
-170.925
0
LINE
8
0
6
CONTINUOUS
10
109.25
20
-170.925
11
90.75
21
-170.925
0
LINE
8
0
6
CONTINUOUS
10
90.75
20
-170.925
11
90.75
21
-189.475
0
LINE
8
0
6
CONTINUOUS
10
90.75
20
-169.675
11
128.25
21
-169.675
0
LINE
8
0
6
CONTINUOUS
10
90.75
20
-151.125
11
128.25
21
-151.125
0
LINE
8
0
6
CONTINUOUS
10
90.75
20
-149.875
11
128.25
21
-149.875
0
LINE
8
0
6
CONTINUOUS
10
90.75
20
-131.325
11
128.25
21
-131.325
0
LINE
8
0
6
CONTINUOUS
10
90.75
20
-130.075
11
109.25
21
-130.075
0
LINE
8
0
6
CONTINUOUS
10
109.25
20
-130.075
11
109.25
21
-111.525
0
LINE
8
0
6
CONTINUOUS
10
109.25
20
-111.525
11
90.75
21
-111.525
0
LINE
8
0
6
CONTINUOUS
10
90.75
20
-111.525
11
90.75
21
-130.075
0
LINE
8
0
6
CONTINUOUS
10
110.55
20
-189.475
11
129.05
21
-189.475
0
LINE
8
0
6
CONTINUOUS
10
129.05
20
-189.475
11
129.05
21
-170.925
0
LINE
8
0
6
CONTINUOUS
10
129.05
20
-170.925
11
110.55
21
-170.925
0
LINE
8
0
6
CONTINUOUS
10
110.55
20
-170.925
11
110.55
21
-189.475
0
LINE
8
0
6
CONTINUOUS
10
110.55
20
-130.075
11
129.05
21
-130.075
0
LINE
8
0
6
CONTINUOUS
10
129.05
20
-130.075
11
129.05
21
-111.525
0
LINE
8
0
6
CONTINUOUS
10
129.05
20
-111.525
11
110.55
21
-111.525
0
LINE
8
0
6
CONTINUOUS
10
110.55
20
-111.525
11
110.55
21
-130.075
0
LINE
8
0
6
CONTINUOUS
10
130.35
20
-205.275
11
148.85
21
-205.275
0
LINE
8
0
6
CONTINUOUS
10
148.85
20
-205.275
11
148.85
21
-186.725
0
LINE
8
0
6
CONTINUOUS
10
148.85
20
-186.725
11
130.35
21
-186.725
0
LINE
8
0
6
CONTINUOUS
10
130.35
20
-186.725
11
130.35
21
-205.275
0
LINE
8
0
6
CONTINUOUS
10
130.35
20
-185.475
11
148.85
21
-185.475
0
LINE
8
0
6
CONTINUOUS
10
148.85
20
-185.475
11
148.85
21
-166.925
0
LINE
8
0
6
CONTINUOUS
10
148.85
20
-166.925
11
130.35
21
-166.925
0
LINE
8
0
6
CONTINUOUS
10
130.35
20
-166.925
11
130.35
21
-185.475
0
LINE
8
0
6
CONTINUOUS
10
130.35
20
-165.675
11
148.85
21
-165.675
0
LINE
8
0
6
CONTINUOUS
10
148.85
20
-165.675
11
148.85
21
-147.125
0
LINE
8
0
6
CONTINUOUS
10
148.85
20
-147.125
11
130.35
21
-147.125
0
LINE
8
0
6
CONTINUOUS
10
130.35
20
-147.125
11
130.35
21
-165.675
0
LINE
8
0
6
CONTINUOUS
10
130.35
20
-145.875
11
148.85
21
-145.875
0
LINE
8
0
6
CONTINUOUS
10
148.85
20
-145.875
11
148.85
21
-127.325
0
LINE
8
0
6
CONTINUOUS
10
148.85
20
-127.325
11
130.35
21
-127.325
0
LINE
8
0
6
CONTINUOUS
10
130.35
20
-127.325
11
130.35
21
-145.875
0
LINE
8
0
6
CONTINUOUS
10
130.35
20
-126.075
11
148.85
21
-126.075
0
LINE
8
0
6
CONTINUOUS
10
148.85
20
-126.075
11
148.85
21
-107.525
0
LINE
8
0
6
CONTINUOUS
10
148.85
20
-107.525
11
130.35
21
-107.525
0
LINE
8
0
6
CONTINUOUS
10
130.35
20
-107.525
11
130.35
21
-126.075
0
LINE
8
0
6
CONTINUOUS
10
150.15
20
-203.275
11
168.65
21
-203.275
0
LINE
8
0
6
CONTINUOUS
10
168.65
20
-203.275
11
168.65
21
-184.725
0
LINE
8
0
6
CONTINUOUS
10
168.65
20
-184.725
11
150.15
21
-184.725
0
LINE
8
0
6
CONTINUOUS
10
150.15
20
-184.725
11
150.15
21
-203.275
0
LINE
8
0
6
CONTINUOUS
10
150.15
20
-183.475
11
168.65
21
-183.475
0
LINE
8
0
6
CONTINUOUS
10
168.65
20
-183.475
11
168.65
21
-164.925
0
LINE
8
0
6
CONTINUOUS
10
168.65
20
-164.925
11
150.15
21
-164.925
0
LINE
8
0
6
CONTINUOUS
10
150.15
20
-164.925
11
150.15
21
-183.475
0
LINE
8
0
6
CONTINUOUS
10
150.15
20
-163.675
11
168.65
21
-163.675
0
LINE
8
0
6
CONTINUOUS
10
168.65
20
-163.675
11
168.65
21
-145.125
0
LINE
8
0
6
CONTINUOUS
10
168.65
20
-145.125
11
150.15
21
-145.125
0
LINE
8
0
6
CONTINUOUS
10
150.15
20
-145.125
11
150.15
21
-163.675
0
LINE
8
0
6
CONTINUOUS
10
150.15
20
-143.875
11
168.65
21
-143.875
0
LINE
8
0
6
CONTINUOUS
10
168.65
20
-143.875
11
168.65
21
-125.325
0
LINE
8
0
6
CONTINUOUS
10
168.65
20
-125.325
11
150.15
21
-125.325
0
LINE
8
0
6
CONTINUOUS
10
150.15
20
-125.325
11
150.15
21
-143.875
0
LINE
8
0
6
CONTINUOUS
10
150.15
20
-124.075
11
168.65
21
-124.075
0
LINE
8
0
6
CONTINUOUS
10
168.65
20
-124.075
11
168.65
21
-105.525
0
LINE
8
0
6
CONTINUOUS
10
168.65
20
-105.525
11
150.15
21
-105.525
0
LINE
8
0
6
CONTINUOUS
10
150.15
20
-105.525
11
150.15
21
-124.075
0
LINE
8
0
6
CONTINUOUS
10
169.95
20
-185.475
11
188.45
21
-185.475
0
LINE
8
0
6
CONTINUOUS
10
188.45
20
-185.475
11
188.45
21
-166.925
0
LINE
8
0
6
CONTINUOUS
10
188.45
20
-166.925
11
169.95
21
-166.925
0
LINE
8
0
6
CONTINUOUS
10
169.95
20
-166.925
11
169.95
21
-185.475
0
LINE
8
0
6
CONTINUOUS
10
169.95
20
-165.675
11
188.45
21
-165.675
0
LINE
8
0
6
CONTINUOUS
10
188.45
20
-165.675
11
188.45
21
-147.125
0
LINE
8
0
6
CONTINUOUS
10
188.45
20
-147.125
11
169.95
21
-147.125
0
LINE
8
0
6
CONTINUOUS
10
169.95
20
-147.125
11
169.95
21
-165.675
0
LINE
8
0
6
CONTINUOUS
10
169.95
20
-145.875
11
188.45
21
-145.875
0
LINE
8
0
6
CONTINUOUS
10
188.45
20
-145.875
11
188.45
21
-127.325
0
LINE
8
0
6
CONTINUOUS
10
188.45
20
-127.325
11
169.95
21
-127.325
0
LINE
8
0
6
CONTINUOUS
10
169.95
20
-127.325
11
169.95
21
-145.875
0
LINE
8
0
6
CONTINUOUS
10
169.95
20
-126.075
11
188.45
21
-126.075
0
LINE
8
0
6
CONTINUOUS
10
188.45
20
-126.075
11
188.45
21
-107.525
0
LINE
8
0
6
CONTINUOUS
10
188.45
20
-107.525
11
169.95
21
-107.525
0
LINE
8
0
6
CONTINUOUS
10
169.95
20
-107.525
11
169.95
21
-126.075
0
LINE
8
0
6
CONTINUOUS
10
170.75
20
-207.275
11
227.25
21
-207.275
0
LINE
8
0
6
CONTINUOUS
10
170.75
20
-188.725
11
227.25
21
-188.725
0
LINE
8
0
6
CONTINUOUS
10
189.75
20
-187.475
11
208.25
21
-187.475
0
LINE
8
0
6
CONTINUOUS
10
208.25
20
-187.475
11
208.25
21
-168.925
0
LINE
8
0
6
CONTINUOUS
10
208.25
20
-168.925
11
189.75
21
-168.925
0
LINE
8
0
6
CONTINUOUS
10
189.75
20
-168.925
11
189.75
21
-187.475
0
LINE
8
0
6
CONTINUOUS
10
189.75
20
-167.675
11
208.25
21
-167.675
0
LINE
8
0
6
CONTINUOUS
10
208.25
20
-167.675
11
208.25
21
-149.125
0
LINE
8
0
6
CONTINUOUS
10
208.25
20
-149.125
11
189.75
21
-149.125
0
LINE
8
0
6
CONTINUOUS
10
189.75
20
-149.125
11
189.75
21
-167.675
0
LINE
8
0
6
CONTINUOUS
10
189.75
20
-147.875
11
208.25
21
-147.875
0
LINE
8
0
6
CONTINUOUS
10
208.25
20
-147.875
11
208.25
21
-129.325
0
LINE
8
0
6
CONTINUOUS
10
208.25
20
-129.325
11
189.75
21
-129.325
0
LINE
8
0
6
CONTINUOUS
10
189.75
20
-129.325
11
189.75
21
-147.875
0
LINE
8
0
6
CONTINUOUS
10
189.75
20
-128.075
11
208.25
21
-128.075
0
LINE
8
0
6
CONTINUOUS
10
208.25
20
-128.075
11
208.25
21
-109.525
0
LINE
8
0
6
CONTINUOUS
10
208.25
20
-109.525
11
189.75
21
-109.525
0
LINE
8
0
6
CONTINUOUS
10
189.75
20
-109.525
11
189.75
21
-128.075
0
LINE
8
0
6
CONTINUOUS
10
209.55
20
-187.475
11
228.05
21
-187.475
0
LINE
8
0
6
CONTINUOUS
10
228.05
20
-187.475
11
228.05
21
-168.925
0
LINE
8
0
6
CONTINUOUS
10
228.05
20
-168.925
11
209.55
21
-168.925
0
LINE
8
0
6
CONTINUOUS
10
209.55
20
-168.925
11
209.55
21
-187.475
0
LINE
8
0
6
CONTINUOUS
10
209.55
20
-167.675
11
228.05
21
-167.675
0
LINE
8
0
6
CONTINUOUS
10
228.05
20
-167.675
11
228.05
21
-149.125
0
LINE
8
0
6
CONTINUOUS
10
228.05
20
-149.125
11
209.55
21
-149.125
0
LINE
8
0
6
CONTINUOUS
10
209.55
20
-149.125
11
209.55
21
-167.675
0
LINE
8
0
6
CONTINUOUS
10
209.55
20
-147.875
11
228.05
21
-147.875
0
LINE
8
0
6
CONTINUOUS
10
228.05
20
-147.875
11
228.05
21
-129.325
0
LINE
8
0
6
CONTINUOUS
10
228.05
20
-129.325
11
209.55
21
-129.325
0
LINE
8
0
6
CONTINUOUS
10
209.55
20
-129.325
11
209.55
21
-147.875
0
LINE
8
0
6
CONTINUOUS
10
209.55
20
-128.075
11
228.05
21
-128.075
0
LINE
8
0
6
CONTINUOUS
10
228.05
20
-128.075
11
228.05
21
-109.525
0
LINE
8
0
6
CONTINUOUS
10
228.05
20
-109.525
11
209.55
21
-109.525
0
LINE
8
0
6
CONTINUOUS
10
209.55
20
-109.525
11
209.55
21
-128.075
0
LINE
8
0
6
CONTINUOUS
10
189.75
20
-227.075
11
208.25
21
-227.075
0
LINE
8
0
6
CONTINUOUS
10
208.25
20
-227.075
11
208.25
21
-208.525
0
LINE
8
0
6
CONTINUOUS
10
208.25
20
-208.525
11
189.75
21
-208.525
0
LINE
8
0
6
CONTINUOUS
10
189.75
20
-208.525
11
189.75
21
-227.075
0
LINE
8
0
6
CONTINUOUS
10
209.55
20
-227.075
11
228.05
21
-227.075
0
LINE
8
0
6
CONTINUOUS
10
228.05
20
-227.075
11
228.05
21
-208.525
0
LINE
8
0
6
CONTINUOUS
10
228.05
20
-208.525
11
209.55
21
-208.525
0
LINE
8
0
6
CONTINUOUS
10
209.55
20
-208.525
11
209.55
21
-227.075
0
LINE
8
0
6
CONTINUOUS
10
128.25
20
-149.875
11
128.25
21
-131.325
0
LINE
8
0
6
CONTINUOUS
10
90.75
20
-131.325
11
90.75
21
-149.875
0
LINE
8
0
6
CONTINUOUS
10
128.25
20
-209.275
11
128.25
21
-190.725
0
LINE
8
0
6
CONTINUOUS
10
90.75
20
-190.725
11
90.75
21
-209.275
0
LINE
8
0
6
CONTINUOUS
10
128.25
20
-169.675
11
128.25
21
-151.125
0
LINE
8
0
6
CONTINUOUS
10
90.75
20
-151.125
11
90.75
21
-169.675
0
LINE
8
0
6
CONTINUOUS
10
227.25
20
-207.275
11
227.25
21
-188.725
0
LINE
8
0
6
CONTINUOUS
10
170.75
20
-188.725
11
170.75
21
-207.275
0
ENDSEC
0
EOF