0
SECTION
2
HEADER
9
$INSUNITS
70
4
0
ENDSEC
0
SECTION
2
TABLES
0
TABLE
2
LTYPE
0
LTYPE
72
65
70
0
2
CONTINUOUS
3
______
73
0
40
0
0
LTYPE
72
65
70
0
2
DASHED
3
_ _ _ 
73
2
40
7.5
49
5
49
-2.5
0
LTYPE
72
65
70
0
2
DOTTED
3
. . . 
73
2
40
1.5
49
0.5
49
-1
0
ENDTAB
0
TABLE
2
LAYER
0
ENDTAB
0
ENDSEC
0
SECTION
2
ENTITIES
0
LINE
8
0
6
CONTINUOUS
10
98.975
20
-210.525
11
120.025
21
-210.525
0
LINE
8
0
6
CONTINUOUS
10
120.025
20
-210.525
11
120.025
21
-200.725
0
LINE
8
0
6
CONTINUOUS
10
98.975
20
-200.725
11
98.975
21
-210.525
0
LINE
8
0
6
CONTINUOUS
10
89.475
20
-200.725
11
89.475
21
-159.675
0
LINE
8
0
6
CONTINUOUS
10
120.525
20
-196.725
11
120.525
21
-200.725
0
LINE
8
0
6
CONTINUOUS
10
120.525
20
-200.725
11
120.025
21
-200.725
0
LINE
8
0
6
CONTINUOUS
10
98.975
20
-200.725
11
89.475
21
-200.725
0
LINE
8
0
6
CONTINUOUS
10
89.475
20
-159.675
11
98.975
21
-159.675
0
LINE
8
0
6
CONTINUOUS
10
98.975
20
-159.675
11
98.975
21
-141.325
0
LINE
8
0
6
CONTINUOUS
10
89.475
20
-110.275
11
129.075
21
-110.275
0
LINE
8
0
6
CONTINUOUS
10
89.475
20
-141.325
11
89.475
21
-110.275
0
LINE
8
0
6
CONTINUOUS
10
98.975
20
-141.325
11
89.475
21
-141.325
0
LINE
8
0
6
CONTINUOUS
10
129.075
20
-206.525
11
150.125
21
-206.525
0
LINE
8
0
6
CONTINUOUS
10
150.125
20
-206.525
11
150.125
21
-204.525
0
LINE
8
0
6
CONTINUOUS
10
129.075
20
-196.725
11
129.075
21
-206.525
0
LINE
8
0
6
CONTINUOUS
10
129.075
20
-196.725
11
120.525
21
-196.725
0
LINE
8
0
6
CONTINUOUS
10
129.075
20
-106.275
11
148.875
21
-106.275
0
LINE
8
0
6
CONTINUOUS
10
129.075
20
-106.275
11
129.075
21
-110.275
0
LINE
8
0
6
CONTINUOUS
10
150.125
20
-204.525
11
169.925
21
-204.525
0
LINE
8
0
6
CONTINUOUS
10
169.925
20
-204.525
11
169.925
21
-194.725
0
LINE
8
0
6
CONTINUOUS
10
179.925
20
-186.725
11
179.925
21
-194.725
0
LINE
8
0
6
CONTINUOUS
10
179.925
20
-194.725
11
169.925
21
-194.725
0
LINE
8
0
6
CONTINUOUS
10
169.925
20
-106.275
11
169.925
21
-104.275
0
LINE
8
0
6
CONTINUOUS
10
169.925
20
-104.275
11
148.875
21
-104.275
0
LINE
8
0
6
CONTINUOUS
10
148.875
20
-104.275
11
148.875
21
-106.275
0
LINE
8
0
6
CONTINUOUS
10
179.925
20
-186.725
11
188.475
21
-186.725
0
LINE
8
0
6
CONTINUOUS
10
189.725
20
-108.275
11
189.725
21
-106.275
0
LINE
8
0
6
CONTINUOUS
10
169.925
20
-106.275
11
189.725
21
-106.275
0
LINE
8
0
6
CONTINUOUS
10
209.525
20
-207.275
11
209.525
21
-198.725
0
LINE
8
0
6
CONTINUOUS
10
188.475
20
-228.325
11
188.475
21
-186.725
0
LINE
8
0
6
CONTINUOUS
10
219.525
20
-188.725
11
219.525
21
-198.725
0
LINE
8
0
6
CONTINUOUS
10
219.525
20
-198.725
11
209.525
21
-198.725
0
LINE
8
0
6
CONTINUOUS
10
189.725
20
-108.275
11
229.325
21
-108.275
0
LINE
8
0
6
CONTINUOUS
10
219.525
20
-188.725
11
229.325
21
-188.725
0
LINE
8
0
6
CONTINUOUS
10
229.325
20
-188.725
11
229.325
21
-108.275
0
LINE
8
0
6
CONTINUOUS
10
188.475
20
-228.325
11
229.325
21
-228.325
0
LINE
8
0
6
CONTINUOUS
10
209.525
20
-207.275
11
229.325
21
-207.275
0
LINE
8
0
6
CONTINUOUS
10
229.325
20
-228.325
11
229.325
21
-207.275
0
ENDSEC
0
EOF