0
SECTION
2
HEADER
9
$INSUNITS
70
4
0
ENDSEC
0
SECTION
2
TABLES
0
TABLE
2
LTYPE
0
LTYPE
72
65
70
0
2
CONTINUOUS
3
______
73
0
40
0
0
LTYPE
72
65
70
0
2
DASHED
3
_ _ _ 
73
2
40
7.5
49
5
49
-2.5
0
LTYPE
72
65
70
0
2
DOTTED
3
. . . 
73
2
40
1.5
49
0.5
49
-1
0
ENDTAB
0
TABLE
2
LAYER
0
ENDTAB
0
ENDSEC
0
SECTION
2
ENTITIES
0
LINE
8
0
6
CONTINUOUS
10
227.8257673
20
-102.275
11
86.4745586
21
-102.275
0
LINE
8
0
6
CONTINUOUS
10
84.4745586
20
-104.2745584
11
84.4504416
21
-213.5245584
0
LINE
8
0
6
CONTINUOUS
10
86.4504416
20
-215.525
11
177.7308565
21
-215.525
0
LINE
8
0
6
CONTINUOUS
10
179.7308479
20
-217.519135
11
179.7691521
21
-230.580865
0
LINE
8
0
6
CONTINUOUS
10
181.7691435
20
-232.575
11
227.8742323
21
-232.575
0
LINE
8
0
6
CONTINUOUS
10
229.8742322
20
-230.5742326
11
229.8257672
21
-104.2742326
0
ARC
8
0
6
CONTINUOUS
10
86.4745586
20
-104.275
40
2
50
90
51
179.9873491
0
ARC
8
0
6
CONTINUOUS
10
86.4504416
20
-213.525
40
2
50
179.9873491
51
270
0
ARC
8
0
6
CONTINUOUS
10
177.7308565
20
-217.525
40
2
50
0.1680201
51
90
0
ARC
8
0
6
CONTINUOUS
10
181.7691435
20
-230.575
40
2
50
180.1680201
51
270
0
ARC
8
0
6
CONTINUOUS
10
227.8742323
20
-230.575
40
2
50
270
51
0.0219844
0
ARC
8
0
6
CONTINUOUS
10
227.8257673
20
-104.275
40
2
50
0.0219844
51
90
0
ENDSEC
0
EOF