0
SECTION
2
HEADER
9
$INSUNITS
70
4
0
ENDSEC
0
SECTION
2
TABLES
0
TABLE
2
LTYPE
0
LTYPE
72
65
70
0
2
CONTINUOUS
3
______
73
0
40
0
0
LTYPE
72
65
70
0
2
DASHED
3
_ _ _ 
73
2
40
7.5
49
5
49
-2.5
0
LTYPE
72
65
70
0
2
DOTTED
3
. . . 
73
2
40
1.5
49
0.5
49
-1
0
ENDTAB
0
TABLE
2
LAYER
0
ENDTAB
0
ENDSEC
0
SECTION
2
ENTITIES
0
LINE
8
0
6
CONTINUOUS
10
90.75
20
-209.275
11
128.25
21
-209.275
0
LINE
8
0
6
CONTINUOUS
10
90.75
20
-190.725
11
128.25
21
-190.725
0
LINE
8
0
6
CONTINUOUS
10
90.75
20
-190.225
11
109.25
21
-190.225
0
LINE
8
0
6
CONTINUOUS
10
109.25
20
-190.225
11
109.25
21
-171.675
0
LINE
8
0
6
CONTINUOUS
10
109.25
20
-171.675
11
90.75
21
-171.675
0
LINE
8
0
6
CONTINUOUS
10
90.75
20
-171.675
11
90.75
21
-190.225
0
LINE
8
0
6
CONTINUOUS
10
90.75
20
-171.175
11
128.25
21
-171.175
0
LINE
8
0
6
CONTINUOUS
10
90.75
20
-152.625
11
128.25
21
-152.625
0
LINE
8
0
6
CONTINUOUS
10
90.75
20
-152.125
11
128.25
21
-152.125
0
LINE
8
0
6
CONTINUOUS
10
90.75
20
-133.575
11
128.25
21
-133.575
0
LINE
8
0
6
CONTINUOUS
10
90.75
20
-133.075
11
109.25
21
-133.075
0
LINE
8
0
6
CONTINUOUS
10
109.25
20
-133.075
11
109.25
21
-114.525
0
LINE
8
0
6
CONTINUOUS
10
109.25
20
-114.525
11
90.75
21
-114.525
0
LINE
8
0
6
CONTINUOUS
10
90.75
20
-114.525
11
90.75
21
-133.075
0
LINE
8
0
6
CONTINUOUS
10
109.8
20
-190.225
11
128.3
21
-190.225
0
LINE
8
0
6
CONTINUOUS
10
128.3
20
-190.225
11
128.3
21
-171.675
0
LINE
8
0
6
CONTINUOUS
10
128.3
20
-171.675
11
109.8
21
-171.675
0
LINE
8
0
6
CONTINUOUS
10
109.8
20
-171.675
11
109.8
21
-190.225
0
LINE
8
0
6
CONTINUOUS
10
109.8
20
-133.075
11
128.3
21
-133.075
0
LINE
8
0
6
CONTINUOUS
10
128.3
20
-133.075
11
128.3
21
-114.525
0
LINE
8
0
6
CONTINUOUS
10
128.3
20
-114.525
11
109.8
21
-114.525
0
LINE
8
0
6
CONTINUOUS
10
109.8
20
-114.525
11
109.8
21
-133.075
0
LINE
8
0
6
CONTINUOUS
10
128.85
20
-205.275
11
147.35
21
-205.275
0
LINE
8
0
6
CONTINUOUS
10
147.35
20
-205.275
11
147.35
21
-186.725
0
LINE
8
0
6
CONTINUOUS
10
147.35
20
-186.725
11
128.85
21
-186.725
0
LINE
8
0
6
CONTINUOUS
10
128.85
20
-186.725
11
128.85
21
-205.275
0
LINE
8
0
6
CONTINUOUS
10
128.85
20
-186.225
11
147.35
21
-186.225
0
LINE
8
0
6
CONTINUOUS
10
147.35
20
-186.225
11
147.35
21
-167.675
0
LINE
8
0
6
CONTINUOUS
10
147.35
20
-167.675
11
128.85
21
-167.675
0
LINE
8
0
6
CONTINUOUS
10
128.85
20
-167.675
11
128.85
21
-186.225
0
LINE
8
0
6
CONTINUOUS
10
128.85
20
-167.175
11
147.35
21
-167.175
0
LINE
8
0
6
CONTINUOUS
10
147.35
20
-167.175
11
147.35
21
-148.625
0
LINE
8
0
6
CONTINUOUS
10
147.35
20
-148.625
11
128.85
21
-148.625
0
LINE
8
0
6
CONTINUOUS
10
128.85
20
-148.625
11
128.85
21
-167.175
0
LINE
8
0
6
CONTINUOUS
10
128.85
20
-148.125
11
147.35
21
-148.125
0
LINE
8
0
6
CONTINUOUS
10
147.35
20
-148.125
11
147.35
21
-129.575
0
LINE
8
0
6
CONTINUOUS
10
147.35
20
-129.575
11
128.85
21
-129.575
0
LINE
8
0
6
CONTINUOUS
10
128.85
20
-129.575
11
128.85
21
-148.125
0
LINE
8
0
6
CONTINUOUS
10
128.85
20
-129.075
11
147.35
21
-129.075
0
LINE
8
0
6
CONTINUOUS
10
147.35
20
-129.075
11
147.35
21
-110.525
0
LINE
8
0
6
CONTINUOUS
10
147.35
20
-110.525
11
128.85
21
-110.525
0
LINE
8
0
6
CONTINUOUS
10
128.85
20
-110.525
11
128.85
21
-129.075
0
LINE
8
0
6
CONTINUOUS
10
147.9
20
-203.275
11
166.4
21
-203.275
0
LINE
8
0
6
CONTINUOUS
10
166.4
20
-203.275
11
166.4
21
-184.725
0
LINE
8
0
6
CONTINUOUS
10
166.4
20
-184.725
11
147.9
21
-184.725
0
LINE
8
0
6
CONTINUOUS
10
147.9
20
-184.725
11
147.9
21
-203.275
0
LINE
8
0
6
CONTINUOUS
10
147.9
20
-184.225
11
166.4
21
-184.225
0
LINE
8
0
6
CONTINUOUS
10
166.4
20
-184.225
11
166.4
21
-165.675
0
LINE
8
0
6
CONTINUOUS
10
166.4
20
-165.675
11
147.9
21
-165.675
0
LINE
8
0
6
CONTINUOUS
10
147.9
20
-165.675
11
147.9
21
-184.225
0
LINE
8
0
6
CONTINUOUS
10
147.9
20
-165.175
11
166.4
21
-165.175
0
LINE
8
0
6
CONTINUOUS
10
166.4
20
-165.175
11
166.4
21
-146.625
0
LINE
8
0
6
CONTINUOUS
10
166.4
20
-146.625
11
147.9
21
-146.625
0
LINE
8
0
6
CONTINUOUS
10
147.9
20
-146.625
11
147.9
21
-165.175
0
LINE
8
0
6
CONTINUOUS
10
147.9
20
-146.125
11
166.4
21
-146.125
0
LINE
8
0
6
CONTINUOUS
10
166.4
20
-146.125
11
166.4
21
-127.575
0
LINE
8
0
6
CONTINUOUS
10
166.4
20
-127.575
11
147.9
21
-127.575
0
LINE
8
0
6
CONTINUOUS
10
147.9
20
-127.575
11
147.9
21
-146.125
0
LINE
8
0
6
CONTINUOUS
10
147.9
20
-127.075
11
166.4
21
-127.075
0
LINE
8
0
6
CONTINUOUS
10
166.4
20
-127.075
11
166.4
21
-108.525
0
LINE
8
0
6
CONTINUOUS
10
166.4
20
-108.525
11
147.9
21
-108.525
0
LINE
8
0
6
CONTINUOUS
10
147.9
20
-108.525
11
147.9
21
-127.075
0
LINE
8
0
6
CONTINUOUS
10
166.95
20
-186.225
11
185.45
21
-186.225
0
LINE
8
0
6
CONTINUOUS
10
185.45
20
-186.225
11
185.45
21
-167.675
0
LINE
8
0
6
CONTINUOUS
10
185.45
20
-167.675
11
166.95
21
-167.675
0
LINE
8
0
6
CONTINUOUS
10
166.95
20
-167.675
11
166.95
21
-186.225
0
LINE
8
0
6
CONTINUOUS
10
166.95
20
-167.175
11
185.45
21
-167.175
0
LINE
8
0
6
CONTINUOUS
10
185.45
20
-167.175
11
185.45
21
-148.625
0
LINE
8
0
6
CONTINUOUS
10
185.45
20
-148.625
11
166.95
21
-148.625
0
LINE
8
0
6
CONTINUOUS
10
166.95
20
-148.625
11
166.95
21
-167.175
0
LINE
8
0
6
CONTINUOUS
10
166.95
20
-148.125
11
185.45
21
-148.125
0
LINE
8
0
6
CONTINUOUS
10
185.45
20
-148.125
11
185.45
21
-129.575
0
LINE
8
0
6
CONTINUOUS
10
185.45
20
-129.575
11
166.95
21
-129.575
0
LINE
8
0
6
CONTINUOUS
10
166.95
20
-129.575
11
166.95
21
-148.125
0
LINE
8
0
6
CONTINUOUS
10
166.95
20
-129.075
11
185.45
21
-129.075
0
LINE
8
0
6
CONTINUOUS
10
185.45
20
-129.075
11
185.45
21
-110.525
0
LINE
8
0
6
CONTINUOUS
10
185.45
20
-110.525
11
166.95
21
-110.525
0
LINE
8
0
6
CONTINUOUS
10
166.95
20
-110.525
11
166.95
21
-129.075
0
LINE
8
0
6
CONTINUOUS
10
167
20
-207.275
11
223.5
21
-207.275
0
LINE
8
0
6
CONTINUOUS
10
167
20
-188.725
11
223.5
21
-188.725
0
LINE
8
0
6
CONTINUOUS
10
186
20
-188.225
11
204.5
21
-188.225
0
LINE
8
0
6
CONTINUOUS
10
204.5
20
-188.225
11
204.5
21
-169.675
0
LINE
8
0
6
CONTINUOUS
10
204.5
20
-169.675
11
186
21
-169.675
0
LINE
8
0
6
CONTINUOUS
10
186
20
-169.675
11
186
21
-188.225
0
LINE
8
0
6
CONTINUOUS
10
186
20
-169.175
11
204.5
21
-169.175
0
LINE
8
0
6
CONTINUOUS
10
204.5
20
-169.175
11
204.5
21
-150.625
0
LINE
8
0
6
CONTINUOUS
10
204.5
20
-150.625
11
186
21
-150.625
0
LINE
8
0
6
CONTINUOUS
10
186
20
-150.625
11
186
21
-169.175
0
LINE
8
0
6
CONTINUOUS
10
186
20
-150.125
11
204.5
21
-150.125
0
LINE
8
0
6
CONTINUOUS
10
204.5
20
-150.125
11
204.5
21
-131.575
0
LINE
8
0
6
CONTINUOUS
10
204.5
20
-131.575
11
186
21
-131.575
0
LINE
8
0
6
CONTINUOUS
10
186
20
-131.575
11
186
21
-150.125
0
LINE
8
0
6
CONTINUOUS
10
186
20
-131.075
11
204.5
21
-131.075
0
LINE
8
0
6
CONTINUOUS
10
204.5
20
-131.075
11
204.5
21
-112.525
0
LINE
8
0
6
CONTINUOUS
10
204.5
20
-112.525
11
186
21
-112.525
0
LINE
8
0
6
CONTINUOUS
10
186
20
-112.525
11
186
21
-131.075
0
LINE
8
0
6
CONTINUOUS
10
205.05
20
-188.225
11
223.55
21
-188.225
0
LINE
8
0
6
CONTINUOUS
10
223.55
20
-188.225
11
223.55
21
-169.675
0
LINE
8
0
6
CONTINUOUS
10
223.55
20
-169.675
11
205.05
21
-169.675
0
LINE
8
0
6
CONTINUOUS
10
205.05
20
-169.675
11
205.05
21
-188.225
0
LINE
8
0
6
CONTINUOUS
10
205.05
20
-169.175
11
223.55
21
-169.175
0
LINE
8
0
6
CONTINUOUS
10
223.55
20
-169.175
11
223.55
21
-150.625
0
LINE
8
0
6
CONTINUOUS
10
223.55
20
-150.625
11
205.05
21
-150.625
0
LINE
8
0
6
CONTINUOUS
10
205.05
20
-150.625
11
205.05
21
-169.175
0
LINE
8
0
6
CONTINUOUS
10
205.05
20
-150.125
11
223.55
21
-150.125
0
LINE
8
0
6
CONTINUOUS
10
223.55
20
-150.125
11
223.55
21
-131.575
0
LINE
8
0
6
CONTINUOUS
10
223.55
20
-131.575
11
205.05
21
-131.575
0
LINE
8
0
6
CONTINUOUS
10
205.05
20
-131.575
11
205.05
21
-150.125
0
LINE
8
0
6
CONTINUOUS
10
205.05
20
-131.075
11
223.55
21
-131.075
0
LINE
8
0
6
CONTINUOUS
10
223.55
20
-131.075
11
223.55
21
-112.525
0
LINE
8
0
6
CONTINUOUS
10
223.55
20
-112.525
11
205.05
21
-112.525
0
LINE
8
0
6
CONTINUOUS
10
205.05
20
-112.525
11
205.05
21
-131.075
0
LINE
8
0
6
CONTINUOUS
10
186.05
20
-226.325
11
204.55
21
-226.325
0
LINE
8
0
6
CONTINUOUS
10
204.55
20
-226.325
11
204.55
21
-207.775
0
LINE
8
0
6
CONTINUOUS
10
204.55
20
-207.775
11
186.05
21
-207.775
0
LINE
8
0
6
CONTINUOUS
10
186.05
20
-207.775
11
186.05
21
-226.325
0
LINE
8
0
6
CONTINUOUS
10
205.1
20
-226.325
11
223.6
21
-226.325
0
LINE
8
0
6
CONTINUOUS
10
223.6
20
-226.325
11
223.6
21
-207.775
0
LINE
8
0
6
CONTINUOUS
10
223.6
20
-207.775
11
205.1
21
-207.775
0
LINE
8
0
6
CONTINUOUS
10
205.1
20
-207.775
11
205.1
21
-226.325
0
LINE
8
0
6
CONTINUOUS
10
128.25
20
-152.125
11
128.25
21
-133.575
0
LINE
8
0
6
CONTINUOUS
10
90.75
20
-133.575
11
90.75
21
-152.125
0
LINE
8
0
6
CONTINUOUS
10
128.25
20
-209.275
11
128.25
21
-190.725
0
LINE
8
0
6
CONTINUOUS
10
90.75
20
-190.725
11
90.75
21
-209.275
0
LINE
8
0
6
CONTINUOUS
10
128.25
20
-171.175
11
128.25
21
-152.625
0
LINE
8
0
6
CONTINUOUS
10
90.75
20
-152.625
11
90.75
21
-171.175
0
LINE
8
0
6
CONTINUOUS
10
223.5
20
-207.275
11
223.5
21
-188.725
0
LINE
8
0
6
CONTINUOUS
10
167
20
-188.725
11
167
21
-207.275
0
ENDSEC
0
EOF