0
SECTION
2
HEADER
9
$INSUNITS
70
4
0
ENDSEC
0
SECTION
2
TABLES
0
TABLE
2
LTYPE
0
LTYPE
72
65
70
0
2
CONTINUOUS
3
______
73
0
40
0
0
LTYPE
72
65
70
0
2
DASHED
3
_ _ _ 
73
2
40
7.5
49
5
49
-2.5
0
LTYPE
72
65
70
0
2
DOTTED
3
. . . 
73
2
40
1.5
49
0.5
49
-1
0
ENDTAB
0
TABLE
2
LAYER
0
ENDTAB
0
ENDSEC
0
SECTION
2
ENTITIES
0
LINE
8
0
6
CONTINUOUS
10
98.975
20
-210.525
11
120.025
21
-210.525
0
LINE
8
0
6
CONTINUOUS
10
120.025
20
-210.525
11
120.025
21
-201.475
0
LINE
8
0
6
CONTINUOUS
10
98.975
20
-201.475
11
98.975
21
-210.525
0
LINE
8
0
6
CONTINUOUS
10
89.475
20
-201.475
11
89.475
21
-160.425
0
LINE
8
0
6
CONTINUOUS
10
120.525
20
-197.475
11
120.525
21
-201.475
0
LINE
8
0
6
CONTINUOUS
10
120.525
20
-201.475
11
120.025
21
-201.475
0
LINE
8
0
6
CONTINUOUS
10
98.975
20
-201.475
11
89.475
21
-201.475
0
LINE
8
0
6
CONTINUOUS
10
89.475
20
-160.425
11
98.975
21
-160.425
0
LINE
8
0
6
CONTINUOUS
10
98.975
20
-160.425
11
98.975
21
-144.325
0
LINE
8
0
6
CONTINUOUS
10
89.475
20
-113.275
11
127.575
21
-113.275
0
LINE
8
0
6
CONTINUOUS
10
89.475
20
-144.325
11
89.475
21
-113.275
0
LINE
8
0
6
CONTINUOUS
10
89.475
20
-144.325
11
98.975
21
-144.325
0
LINE
8
0
6
CONTINUOUS
10
127.575
20
-206.525
11
148.625
21
-206.525
0
LINE
8
0
6
CONTINUOUS
10
148.625
20
-206.525
11
148.625
21
-204.525
0
LINE
8
0
6
CONTINUOUS
10
127.575
20
-197.475
11
127.575
21
-206.525
0
LINE
8
0
6
CONTINUOUS
10
127.575
20
-197.475
11
120.525
21
-197.475
0
LINE
8
0
6
CONTINUOUS
10
127.575
20
-109.275
11
146.625
21
-109.275
0
LINE
8
0
6
CONTINUOUS
10
127.575
20
-109.275
11
127.575
21
-113.275
0
LINE
8
0
6
CONTINUOUS
10
148.625
20
-204.525
11
167.675
21
-204.525
0
LINE
8
0
6
CONTINUOUS
10
167.675
20
-204.525
11
167.675
21
-195.475
0
LINE
8
0
6
CONTINUOUS
10
177.675
20
-187.475
11
177.675
21
-195.475
0
LINE
8
0
6
CONTINUOUS
10
177.675
20
-195.475
11
167.675
21
-195.475
0
LINE
8
0
6
CONTINUOUS
10
167.675
20
-109.275
11
167.675
21
-107.275
0
LINE
8
0
6
CONTINUOUS
10
167.675
20
-107.275
11
146.625
21
-107.275
0
LINE
8
0
6
CONTINUOUS
10
146.625
20
-107.275
11
146.625
21
-109.275
0
LINE
8
0
6
CONTINUOUS
10
177.675
20
-187.475
11
184.725
21
-187.475
0
LINE
8
0
6
CONTINUOUS
10
186.725
20
-111.275
11
186.725
21
-109.275
0
LINE
8
0
6
CONTINUOUS
10
167.675
20
-109.275
11
186.725
21
-109.275
0
LINE
8
0
6
CONTINUOUS
10
184.725
20
-208.525
11
184.775
21
-208.525
0
LINE
8
0
6
CONTINUOUS
10
205.775
20
-206.525
11
205.775
21
-199.475
0
LINE
8
0
6
CONTINUOUS
10
184.725
20
-208.525
11
184.725
21
-187.475
0
LINE
8
0
6
CONTINUOUS
10
215.775
20
-189.475
11
215.775
21
-199.475
0
LINE
8
0
6
CONTINUOUS
10
215.775
20
-199.475
11
205.775
21
-199.475
0
LINE
8
0
6
CONTINUOUS
10
186.725
20
-111.275
11
224.825
21
-111.275
0
LINE
8
0
6
CONTINUOUS
10
215.775
20
-189.475
11
224.825
21
-189.475
0
LINE
8
0
6
CONTINUOUS
10
224.825
20
-189.475
11
224.825
21
-111.275
0
LINE
8
0
6
CONTINUOUS
10
184.775
20
-227.575
11
224.875
21
-227.575
0
LINE
8
0
6
CONTINUOUS
10
205.775
20
-206.525
11
224.875
21
-206.525
0
LINE
8
0
6
CONTINUOUS
10
184.775
20
-208.525
11
184.775
21
-227.575
0
LINE
8
0
6
CONTINUOUS
10
224.875
20
-227.575
11
224.875
21
-206.525
0
ENDSEC
0
EOF